<svg width="24" height="16" viewBox="0 0 24 16" fill="none" xmlns="http://www.w3.org/2000/svg">
<g clip-path="url(#clip0_1_10206)">
<path d="M24.0005 0H0V16H24.0005V0Z" fill="#F0F0F0"/>
<path d="M24.0005 0H0V5.33332H24.0005V0Z" fill="#D80027"/>
<path d="M24.0005 10.6667H0V16H24.0005V10.6667Z" fill="black"/>
<path d="M15.0004 7.07607H12.7503C12.7503 6.66187 12.4145 6.32605 12.0003 6.32605C11.5861 6.32605 11.2503 6.66187 11.2503 7.07607H9.00024C9.00024 7.49026 9.36105 7.82608 9.77524 7.82608H9.75026C9.75026 8.24028 10.0861 8.5761 10.5003 8.5761C10.5003 8.99029 10.8361 9.32611 11.2503 9.32611H12.7503C13.1645 9.32611 13.5003 8.99029 13.5003 8.5761C13.9145 8.5761 14.2504 8.24028 14.2504 7.82608H14.2254C14.6396 7.82608 15.0004 7.49031 15.0004 7.07607Z" fill="#FF9811"/>
</g>
<defs>
<clipPath id="clip0_1_10206">
<rect width="24" height="16" fill="white"/>
</clipPath>
</defs>
</svg>
