<svg width="24" height="16" viewBox="0 0 24 16" fill="none" xmlns="http://www.w3.org/2000/svg">
<g clip-path="url(#clip0_1_10456)">
<path d="M24.0005 0H0V16H24.0005V0Z" fill="#F0F0F0"/>
<path d="M24.0005 0H0V5.33332H24.0005V0Z" fill="#A2001D"/>
<path d="M24.0005 10.6667H0V16H24.0005V10.6667Z" fill="black"/>
<path d="M10.2747 7.5345C10.2708 7.5345 10.267 7.53478 10.2631 7.53483L8.89864 7.5345C8.96783 7.26722 9.21032 7.06898 9.49893 7.06898V6.13788C8.64326 6.13788 7.94719 6.83399 7.94719 7.68961V8.44994V8.46546H10.2632C10.2684 8.46546 10.2726 8.46546 10.2748 8.46546C10.3604 8.46546 10.43 8.53507 10.43 8.62062V8.93094H7.32642V9.86199H11.361V8.62067C11.361 8.02178 10.8737 7.5345 10.2747 7.5345Z" fill="#496E2D"/>
<path d="M12.6024 8.93108V6.13788H11.6714V9.86213H13.2231V8.93108H12.6024Z" fill="#496E2D"/>
<path d="M15.7059 8.93108V6.13788H14.7749V8.93108H14.4645V8.00007H13.5334V9.86213H16.3266V8.93108H15.7059Z" fill="#496E2D"/>
</g>
<defs>
<clipPath id="clip0_1_10456">
<rect width="24" height="16" fill="white"/>
</clipPath>
</defs>
</svg>
