<svg width="18" height="19" viewBox="0 0 18 19" fill="none" xmlns="http://www.w3.org/2000/svg">
<path d="M9.2625 0.504346C14.0625 0.617053 18 4.86237 18 9.89665V10.5353C18 12.4514 16.425 13.9917 14.55 13.9917C13.3125 13.9917 12.2625 13.353 11.625 12.4138C10.875 13.1652 9.825 13.6536 8.7 13.6536C6.375 13.6536 4.5 11.7375 4.5 9.48339C4.5 7.19167 6.375 5.27564 8.7 5.27564C9.6 5.27564 10.425 5.57619 11.1 6.10216C11.175 5.6889 11.55 5.35077 12 5.35077C12.4875 5.35077 12.9 5.72647 12.9 6.21487V10.6105C12.9 11.5121 13.6125 12.2635 14.55 12.2635C15.45 12.2635 16.2 11.5121 16.2 10.6105V9.89665C16.2 5.8016 13.05 2.42038 9.1875 2.30767C7.2 2.23253 5.4 2.94634 3.975 4.33641C2.55 5.6889 1.8 7.56736 1.8 9.55853C1.8 13.1276 4.425 16.2083 7.9125 16.7342C8.4 16.8094 8.7375 17.2602 8.6625 17.7486C8.5875 18.1994 8.2125 18.5 7.8 18.5C7.725 18.5 7.6875 18.5 7.65 18.5C3.2625 17.8613 0 13.9917 0 9.55853C0 7.07896 0.975 4.74967 2.7375 3.02148C4.5 1.33087 6.825 0.429207 9.2625 0.504346ZM8.7 11.8878C10.0125 11.8878 11.1 10.8359 11.1 9.52096C11.1 8.2436 10.0125 7.1541 8.7 7.1541C7.35 7.1541 6.3 8.20603 6.3 9.52096C6.3 10.8359 7.35 11.8878 8.7 11.8878Z" fill="#204544"/>
</svg>
