<svg width="1487" height="1140" viewBox="0 0 1487 1140" fill="none" xmlns="http://www.w3.org/2000/svg">
<path d="M52.205 0.171272L78.1727 15.1632V45.1494L52.205 60.1401L26.2373 45.1494V15.1632L52.205 0.171272ZM104.378 0.171272L130.346 15.1632V45.1494L104.378 60.1401L78.4105 45.1494V15.1632L104.378 0.171272Z" stroke="#204544" stroke-opacity="0.12" stroke-width="0.296556"/>
<path d="M156.549 0.171272L182.516 15.1632V45.1494L156.549 60.1413L130.581 45.1494V15.1632L156.549 0.171272Z" fill="#204544" fill-opacity="0.04" stroke="#204544" stroke-opacity="0.12" stroke-width="0.296556"/>
<path d="M208.726 0.171272L234.694 15.1632V45.1494L208.726 60.1413L182.758 45.1494V15.1632L208.726 0.171272ZM260.899 0.171272L286.867 15.1632V45.1494L260.899 60.1413L234.931 45.1494V15.1632L260.899 0.171272ZM469.592 0.171272L495.56 15.1632V45.1494L469.592 60.1413L443.624 45.1494V15.1632L469.592 0.171272ZM626.111 0.171272L652.079 15.1632V45.1494L626.111 60.1413L600.144 45.1494V15.1632L626.111 0.171272ZM678.285 0.171272L704.252 15.1632V45.1494L678.285 60.1413L652.317 45.1494V15.1632L678.285 0.171272Z" stroke="#204544" stroke-opacity="0.12" stroke-width="0.296556"/>
<path d="M782.628 0.171272L808.596 15.1632V45.1494L782.628 60.1413L756.661 45.1494V15.1632L782.628 0.171272Z" fill="#204544" fill-opacity="0.04" stroke="#204544" stroke-opacity="0.12" stroke-width="0.296556"/>
<path d="M834.807 0.171272L860.774 15.1632V45.1494L834.807 60.1413L808.839 45.1494V15.1632L834.807 0.171272ZM991.326 0.171272L1017.29 15.1632V45.1494L991.326 60.1413L965.359 45.1494V15.1632L991.326 0.171272Z" stroke="#204544" stroke-opacity="0.12" stroke-width="0.296556"/>
<path d="M1095.67 0.171272L1121.64 15.1632V45.1494L1095.67 60.1413L1069.7 45.1494V15.1632L1095.67 0.171272Z" fill="#204544" fill-opacity="0.04" stroke="#204544" stroke-opacity="0.12" stroke-width="0.296556"/>
<path d="M1200.01 0.171272L1225.98 15.1632V45.1494L1200.01 60.1413L1174.04 45.1494V15.1632L1200.01 0.171272ZM1408.7 0.171272L1434.67 15.1632V45.1494L1408.7 60.1413L1382.74 45.1494V15.1632L1408.7 0.171272ZM1460.88 0.171272L1486.84 15.1632V45.1494L1460.88 60.1413L1434.91 45.1494V15.1632L1460.88 0.171272ZM78.2879 45.1482L104.256 60.1401V90.1251L78.2879 105.117L52.3203 90.1251V60.1401L78.2879 45.1482ZM182.634 45.1482L208.602 60.1401V90.1251L182.634 105.117L156.667 90.1251V60.1401L182.634 45.1482ZM234.807 45.1482L260.775 60.1401V90.1251L234.807 105.117L208.84 90.1251V60.1401L234.807 45.1482ZM443.5 45.1482L469.468 60.1401V90.1251L443.5 105.117L417.532 90.1251V60.1401L443.5 45.1482ZM495.673 45.1482L521.641 60.1401V90.1251L495.673 105.117L469.706 90.1251V60.1401L495.673 45.1482Z" stroke="#204544" stroke-opacity="0.12" stroke-width="0.296556"/>
<path opacity="0.5" d="M547.852 45.1481L573.819 60.14V90.125L547.852 105.117L521.884 90.125V60.14L547.852 45.1481Z" fill="#204544" fill-opacity="0.2" stroke="#204544" stroke-opacity="0.12" stroke-width="0.296556"/>
<path d="M600.02 45.148L625.988 60.1399V90.1249L600.02 105.117L574.053 90.1249V60.1399L600.02 45.148Z" fill="#204544" fill-opacity="0.04" stroke="#204544" stroke-opacity="0.12" stroke-width="0.296556"/>
<path d="M652.196 45.1481L678.163 60.14V90.125L652.196 105.117L626.228 90.125V60.14L652.196 45.1481Z" fill="#204544" fill-opacity="0.2" stroke="#204544" stroke-opacity="0.12" stroke-width="0.296556"/>
<path d="M913.06 45.148L939.028 60.1399V90.1249L913.06 105.117L887.093 90.1249V60.1399L913.06 45.148ZM965.234 45.148L991.201 60.1399V90.1249L965.234 105.117L939.266 90.1249V60.1399L965.234 45.148ZM1017.41 45.148L1043.37 60.1399V90.1249L1017.41 105.117L991.439 90.1249V60.1399L1017.41 45.148ZM1069.58 45.148L1095.55 60.1399V90.1249L1069.58 105.117L1043.61 90.1249V60.1399L1069.58 45.148ZM1121.75 45.148L1147.72 60.1399V90.1249L1121.75 105.117L1095.79 90.1249V60.1399L1121.75 45.148Z" stroke="#204544" stroke-opacity="0.12" stroke-width="0.296556"/>
<path d="M1226.1 45.1481L1252.07 60.14V90.125L1226.1 105.117L1200.14 90.125V60.14L1226.1 45.1481Z" fill="#204544" fill-opacity="0.08" stroke="#204544" stroke-opacity="0.12" stroke-width="0.296556"/>
<path d="M1382.62 45.1481L1408.59 60.14V90.125L1382.62 105.117L1356.65 90.125V60.14L1382.62 45.1481ZM104.377 90.125L130.344 105.117V135.102L104.377 150.094L78.4091 135.102V105.117L104.377 90.125ZM156.55 90.125L182.518 105.117V135.102L156.55 150.094L130.582 135.102V105.117L156.55 90.125ZM208.723 90.125L234.691 105.117V135.102L208.723 150.094L182.755 135.102V105.117L208.723 90.125Z" stroke="#204544" stroke-opacity="0.12" stroke-width="0.296556"/>
<path d="M260.898 90.1244L286.866 105.116V135.101L260.898 150.093L234.93 135.101V105.116L260.898 90.1244Z" fill="#204544" fill-opacity="0.04" stroke="#204544" stroke-opacity="0.12" stroke-width="0.296556"/>
<path opacity="0.2" d="M313.07 90.1244L339.038 105.116V135.101L313.07 150.093L287.102 135.101V105.116L313.07 90.1244Z" fill="#204544" fill-opacity="0.2" stroke="#204544" stroke-opacity="0.12" stroke-width="0.296556"/>
<path d="M365.241 90.1244L391.209 105.116V135.101L365.241 150.093L339.274 135.101V105.116L365.241 90.1244ZM417.415 90.1244L443.382 105.116V135.101L417.415 150.093L391.447 135.101V105.116L417.415 90.1244Z" stroke="#204544" stroke-opacity="0.12" stroke-width="0.296556"/>
<path opacity="0.3" d="M521.763 90.1244L547.73 105.116V135.101L521.763 150.093L495.795 135.101V105.116L521.763 90.1244Z" fill="#204544" fill-opacity="0.2" stroke="#204544" stroke-opacity="0.12" stroke-width="0.296556"/>
<path d="M678.284 90.1244L704.252 105.116V135.101L678.284 150.093L652.316 135.101V105.116L678.284 90.1244ZM782.63 90.1244L808.598 105.116V135.101L782.63 150.093L756.663 135.101V105.116L782.63 90.1244Z" stroke="#204544" stroke-opacity="0.12" stroke-width="0.296556"/>
<path d="M834.807 90.1244L860.774 105.116V135.101L834.807 150.093L808.839 135.101V105.116L834.807 90.1244Z" fill="#204544" fill-opacity="0.04" stroke="#204544" stroke-opacity="0.12" stroke-width="0.296556"/>
<path d="M886.971 90.1244L912.939 105.116V135.101L886.971 150.093L861.004 135.101V105.116L886.971 90.1244ZM939.145 90.1244L965.112 105.116V135.101L939.145 150.093L913.177 135.101V105.116L939.145 90.1244Z" stroke="#204544" stroke-opacity="0.12" stroke-width="0.296556"/>
<path d="M1043.49 90.1244L1069.46 105.116V135.101L1043.49 150.093L1017.52 135.101V105.116L1043.49 90.1244Z" fill="#204544" fill-opacity="0.04" stroke="#204544" stroke-opacity="0.12" stroke-width="0.296556"/>
<path d="M1095.67 90.1244L1121.64 105.116V135.101L1095.67 150.093L1069.7 135.101V105.116L1095.67 90.1244ZM1200.02 90.1244L1225.99 105.116V135.101L1200.02 150.093L1174.05 135.101V105.116L1200.02 90.1244Z" stroke="#204544" stroke-opacity="0.12" stroke-width="0.296556"/>
<path d="M1304.36 90.1244L1330.32 105.116V135.101L1304.36 150.093L1278.39 135.101V105.116L1304.36 90.1244Z" fill="#204544" fill-opacity="0.12" stroke="#204544" stroke-opacity="0.12" stroke-width="0.296556"/>
<path d="M1356.54 90.1244L1382.5 105.116V135.101L1356.54 150.093L1330.57 135.101V105.116L1356.54 90.1244Z" stroke="#204544" stroke-opacity="0.12" stroke-width="0.296556"/>
<path d="M1408.7 90.1244L1434.67 105.116V135.101L1408.7 150.093L1382.73 135.101V105.116L1408.7 90.1244Z" fill="#204544" fill-opacity="0.08" stroke="#204544" stroke-opacity="0.12" stroke-width="0.296556"/>
<path d="M1460.88 90.1244L1486.85 105.116V135.101L1460.88 150.093L1434.91 135.101V105.116L1460.88 90.1244Z" stroke="#204544" stroke-opacity="0.12" stroke-width="0.296556"/>
<path d="M130.466 135.101L156.433 150.093V180.078L130.466 195.07L104.498 180.078V150.093L130.466 135.101Z" fill="#204544" fill-opacity="0.04" stroke="#204544" stroke-opacity="0.12" stroke-width="0.296556"/>
<path d="M234.809 135.101L260.777 150.093V180.078L234.809 195.07L208.842 180.078V150.093L234.809 135.101ZM339.156 135.101L365.123 150.093V180.078L339.156 195.07L313.188 180.078V150.093L339.156 135.101ZM495.675 135.101L521.643 150.093V180.078L495.675 195.07L469.708 180.078V150.093L495.675 135.101Z" stroke="#204544" stroke-opacity="0.12" stroke-width="0.296556"/>
<path opacity="0.5" d="M547.852 135.101L573.819 150.093V180.078L547.852 195.07L521.884 180.078V150.093L547.852 135.101Z" fill="#204544" fill-opacity="0.2" stroke="#204544" stroke-opacity="0.12" stroke-width="0.296556"/>
<path opacity="0.2" d="M652.196 135.101L678.163 150.093V180.078L652.196 195.07L626.228 180.078V150.093L652.196 135.101Z" fill="#204544" fill-opacity="0.2" stroke="#204544" stroke-opacity="0.12" stroke-width="0.296556"/>
<path d="M704.37 135.101L730.337 150.093V180.078L704.37 195.07L678.402 180.078V150.093L704.37 135.101ZM756.543 135.101L782.511 150.093V180.078L756.543 195.07L730.575 180.078V150.093L756.543 135.101ZM965.235 135.101L991.203 150.093V180.078L965.235 195.07L939.268 180.078V150.093L965.235 135.101ZM1017.41 135.101L1043.38 150.093V180.078L1017.41 195.07L991.441 180.078V150.093L1017.41 135.101ZM1069.58 135.101L1095.55 150.093V180.078L1069.58 195.07L1043.61 180.078V150.093L1069.58 135.101ZM1121.76 135.101L1147.72 150.093V180.078L1121.76 195.07L1095.79 180.078V150.093L1121.76 135.101ZM1173.93 135.101L1199.9 150.093V180.078L1173.93 195.07L1147.96 180.078V150.093L1173.93 135.101ZM1226.1 135.101L1252.07 150.093V180.078L1226.1 195.07L1200.13 180.078V150.093L1226.1 135.101ZM1382.62 135.101L1408.59 150.093V180.078L1382.62 195.07L1356.65 180.078V150.093L1382.62 135.101ZM1434.79 135.101L1460.76 150.093V180.078L1434.79 195.07L1408.83 180.078V150.093L1434.79 135.101ZM52.205 180.078L78.1727 195.07V225.055L52.205 240.046L26.2373 225.055V195.07L52.205 180.078ZM156.551 180.078L182.519 195.07V225.055L156.551 240.046L130.584 225.055V195.07L156.551 180.078ZM208.724 180.078L234.692 195.07V225.055L208.724 240.046L182.757 225.055V195.07L208.724 180.078Z" stroke="#204544" stroke-opacity="0.12" stroke-width="0.296556"/>
<path d="M260.898 180.077L286.866 195.069V225.054L260.898 240.045L234.93 225.054V195.069L260.898 180.077Z" fill="#204544" fill-opacity="0.04" stroke="#204544" stroke-opacity="0.12" stroke-width="0.296556"/>
<path d="M417.414 180.077L443.382 195.069V225.054L417.414 240.045L391.446 225.054V195.069L417.414 180.077Z" fill="#204544" fill-opacity="0.04" stroke="#204544" stroke-opacity="0.12" stroke-width="0.296556"/>
<path d="M469.592 180.077L495.559 195.069V225.054L469.592 240.045L443.624 225.054V195.069L469.592 180.077ZM573.938 180.077L599.906 195.069V225.054L573.938 240.045L547.97 225.054V195.069L573.938 180.077ZM626.111 180.077L652.079 195.069V225.054L626.111 240.045L600.144 225.054V195.069L626.111 180.077Z" stroke="#204544" stroke-opacity="0.12" stroke-width="0.296556"/>
<path d="M730.45 180.077L756.418 195.069V225.054L730.45 240.045L704.483 225.054V195.069L730.45 180.077Z" fill="#204544" fill-opacity="0.08" stroke="#204544" stroke-opacity="0.12" stroke-width="0.296556"/>
<path d="M782.628 180.077L808.596 195.069V225.054L782.628 240.045L756.661 225.054V195.069L782.628 180.077ZM834.802 180.077L860.769 195.069V225.054L834.802 240.045L808.834 225.054V195.069L834.802 180.077Z" stroke="#204544" stroke-opacity="0.12" stroke-width="0.296556"/>
<path d="M886.971 180.077L912.939 195.069V225.054L886.971 240.045L861.004 225.054V195.069L886.971 180.077Z" fill="#204544" fill-opacity="0.04" stroke="#204544" stroke-opacity="0.12" stroke-width="0.296556"/>
<path d="M991.325 180.077L1017.29 195.069V225.054L991.325 240.045L965.358 225.054V195.069L991.325 180.077Z" fill="#204544" fill-opacity="0.08" stroke="#204544" stroke-opacity="0.12" stroke-width="0.296556"/>
<path d="M1043.49 180.077L1069.46 195.069V225.054L1043.49 240.045L1017.52 225.054V195.069L1043.49 180.077ZM1200.01 180.077L1225.98 195.069V225.054L1200.01 240.045L1174.04 225.054V195.069L1200.01 180.077ZM1356.53 180.077L1382.5 195.069V225.054L1356.53 240.046L1330.56 225.054V195.069L1356.53 180.077ZM1408.7 180.077L1434.67 195.069V225.054L1408.7 240.046L1382.74 225.054V195.069L1408.7 180.077Z" stroke="#204544" stroke-opacity="0.12" stroke-width="0.296556"/>
<path d="M26.1161 225.054L52.0837 240.045V270.03L26.1161 285.023L0.148375 270.031V240.045L26.1161 225.054Z" fill="#204544" fill-opacity="0.04" stroke="#204544" stroke-opacity="0.12" stroke-width="0.296556"/>
<path d="M78.2879 225.054L104.256 240.045V270.03L78.2879 285.023L52.3203 270.031V240.045L78.2879 225.054ZM130.461 225.054L156.429 240.046V270.031L130.461 285.023L104.493 270.031V240.045L130.461 225.054ZM234.808 225.054L260.775 240.046V270.031L234.808 285.023L208.84 270.031V240.045L234.808 225.054ZM443.5 225.054L469.468 240.046V270.031L443.5 285.023L417.533 270.031V240.045L443.5 225.054Z" stroke="#204544" stroke-opacity="0.12" stroke-width="0.296556"/>
<path d="M495.674 225.054L521.642 240.046V270.031L495.674 285.023L469.706 270.031V240.045L495.674 225.054Z" fill="#204544" fill-opacity="0.04" stroke="#204544" stroke-opacity="0.12" stroke-width="0.296556"/>
<path d="M600.02 225.054L625.988 240.046V270.031L600.02 285.023L574.053 270.031V240.045L600.02 225.054ZM704.367 225.054L730.334 240.046V270.031L704.367 285.023L678.399 270.031V240.045L704.367 225.054ZM808.713 225.054L834.681 240.046V270.031L808.713 285.023L782.745 270.031V240.045L808.713 225.054ZM860.886 225.054L886.854 240.046V270.031L860.886 285.023L834.919 270.031V240.045L860.886 225.054Z" stroke="#204544" stroke-opacity="0.12" stroke-width="0.296556"/>
<path d="M965.238 225.054L991.206 240.046V270.031L965.238 285.023L939.271 270.031V240.045L965.238 225.054Z" fill="#204544" fill-opacity="0.04" stroke="#204544" stroke-opacity="0.12" stroke-width="0.296556"/>
<path d="M1017.4 225.054L1043.37 240.046V270.031L1017.4 285.023L991.436 270.031V240.045L1017.4 225.054Z" fill="#204544" fill-opacity="0.08" stroke="#204544" stroke-opacity="0.12" stroke-width="0.296556"/>
<path d="M1069.58 225.054L1095.55 240.046V270.031L1069.58 285.023L1043.61 270.031V240.045L1069.58 225.054Z" fill="#204544" fill-opacity="0.04" stroke="#204544" stroke-opacity="0.12" stroke-width="0.296556"/>
<path d="M1173.93 225.054L1199.89 240.046V270.031L1173.93 285.023L1147.96 270.031V240.045L1173.93 225.054Z" fill="#204544" fill-opacity="0.04" stroke="#204544" stroke-opacity="0.12" stroke-width="0.296556"/>
<path d="M1226.1 225.054L1252.07 240.046V270.031L1226.1 285.023L1200.13 270.031V240.045L1226.1 225.054ZM1278.27 225.054L1304.24 240.046V270.031L1278.27 285.023L1252.31 270.031V240.045L1278.27 225.054ZM1330.45 225.054L1356.41 240.046V270.031L1330.45 285.023L1304.48 270.031V240.045L1330.45 225.054ZM1382.62 225.054L1408.59 240.046V270.031L1382.62 285.023L1356.65 270.031V240.045L1382.62 225.054ZM104.377 270.031L130.344 285.023V315.008L104.377 330L78.4091 315.008V285.023L104.377 270.031ZM156.55 270.031L182.518 285.023V315.008L156.55 330L130.582 315.008V285.023L156.55 270.031ZM260.896 270.031L286.864 285.023V315.008L260.896 330L234.929 315.008V285.023L260.896 270.031ZM313.069 270.031L339.037 285.023V315.008L313.069 330L287.102 315.008V285.023L313.069 270.031ZM365.243 270.031L391.21 285.023V315.008L365.243 330L339.275 315.008V285.023L365.243 270.031ZM417.416 270.031L443.383 285.023V315.008L417.416 330L391.448 315.008V285.023L417.416 270.031ZM469.589 270.031L495.557 285.023V315.008L469.589 330L443.621 315.008V285.023L469.589 270.031ZM521.762 270.031L547.73 285.023V315.008L521.762 330L495.794 315.008V285.023L521.762 270.031ZM573.935 270.031L599.903 285.023V315.008L573.935 330L547.968 315.008V285.023L573.935 270.031ZM782.628 270.031L808.596 285.023V315.008L782.628 330L756.66 315.008V285.023L782.628 270.031ZM834.801 270.031L860.769 285.023V315.008L834.801 330L808.833 315.008V285.023L834.801 270.031ZM886.974 270.031L912.942 285.023V315.008L886.974 330L861.007 315.008V285.023L886.974 270.031Z" stroke="#204544" stroke-opacity="0.12" stroke-width="0.296556"/>
<path d="M1043.49 270.031L1069.46 285.023V315.008L1043.49 330L1017.52 315.008V285.023L1043.49 270.031Z" fill="#204544" fill-opacity="0.04" stroke="#204544" stroke-opacity="0.12" stroke-width="0.296556"/>
<path d="M1095.67 270.031L1121.64 285.023V315.008L1095.67 330L1069.7 315.008V285.023L1095.67 270.031Z" fill="#204544" fill-opacity="0.04" stroke="#204544" stroke-opacity="0.12" stroke-width="0.296556"/>
<path d="M1147.83 270.031L1173.8 285.023V315.008L1147.83 330L1121.87 315.008V285.023L1147.83 270.031Z" stroke="#204544" stroke-opacity="0.12" stroke-width="0.296556"/>
<path d="M1304.36 270.031L1330.32 285.023V315.008L1304.36 330L1278.39 315.008V285.023L1304.36 270.031Z" fill="#204544" fill-opacity="0.04" stroke="#204544" stroke-opacity="0.12" stroke-width="0.296556"/>
<path d="M1408.7 270.031L1434.67 285.023V315.008L1408.7 330L1382.73 315.008V285.023L1408.7 270.031Z" stroke="#204544" stroke-opacity="0.12" stroke-width="0.296556"/>
<path d="M1460.88 270.031L1486.85 285.023V315.008L1460.88 330L1434.91 315.008V285.023L1460.88 270.031Z" fill="#204544" fill-opacity="0.12" stroke="#204544" stroke-opacity="0.12" stroke-width="0.296556"/>
<path d="M26.1161 315.008L52.0837 329.999V359.984L26.1161 374.976L0.148375 359.984V329.999L26.1161 315.008Z" fill="#204544" fill-opacity="0.12" stroke="#204544" stroke-opacity="0.12" stroke-width="0.296556"/>
<path d="M78.2879 315.008L104.256 329.999V359.984L78.2879 374.976L52.3203 359.984V329.999L78.2879 315.008Z" fill="#204544" fill-opacity="0.12" stroke="#204544" stroke-opacity="0.12" stroke-width="0.296556"/>
<path d="M339.159 315.008L365.127 329.999V359.984L339.159 374.976L313.191 359.984V329.999L339.159 315.008Z" fill="#204544" fill-opacity="0.08" stroke="#204544" stroke-opacity="0.12" stroke-width="0.296556"/>
<path d="M391.331 315.008L417.299 329.999V359.984L391.331 374.976L365.363 359.984V329.999L391.331 315.008ZM443.504 315.008L469.472 329.999V359.984L443.504 374.976L417.536 359.984V329.999L443.504 315.008ZM495.677 315.008L521.645 329.999V359.984L495.677 374.976L469.71 359.984V329.999L495.677 315.008ZM600.024 315.008L625.991 329.999V359.984L600.024 374.976L574.056 359.984V329.999L600.024 315.008Z" stroke="#204544" stroke-opacity="0.12" stroke-width="0.296556"/>
<path d="M704.373 315.008L730.34 329.999V359.984L704.373 374.976L678.405 359.984V329.999L704.373 315.008Z" fill="#204544" fill-opacity="0.08" stroke="#204544" stroke-opacity="0.12" stroke-width="0.296556"/>
<path d="M756.539 315.008L782.507 329.999V359.984L756.539 374.976L730.572 359.984V329.999L756.539 315.008ZM808.712 315.008L834.68 329.999V359.984L808.712 374.976L782.745 359.984V329.999L808.712 315.008ZM860.886 315.008L886.853 329.999V359.984L860.886 374.976L834.918 359.984V329.999L860.886 315.008Z" stroke="#204544" stroke-opacity="0.12" stroke-width="0.296556"/>
<path d="M913.06 315.008L939.028 329.999V359.984L913.06 374.976L887.093 359.984V329.999L913.06 315.008Z" fill="#204544" fill-opacity="0.08" stroke="#204544" stroke-opacity="0.12" stroke-width="0.296556"/>
<path d="M965.239 315.008L991.206 329.999V359.984L965.239 374.976L939.271 359.984V329.999L965.239 315.008ZM1017.41 315.008L1043.38 329.999V359.984L1017.41 374.976L991.444 359.984V329.999L1017.41 315.008ZM1121.76 315.008L1147.73 329.999V359.984L1121.76 374.976L1095.79 359.984V329.999L1121.76 315.008Z" stroke="#204544" stroke-opacity="0.12" stroke-width="0.296556"/>
<path d="M1278.27 315.008L1304.24 329.999V359.984L1278.27 374.976L1252.3 359.984V329.999L1278.27 315.008Z" fill="#204544" fill-opacity="0.04" stroke="#204544" stroke-opacity="0.12" stroke-width="0.296556"/>
<path d="M1330.45 315.008L1356.42 329.999V359.984L1330.45 374.976L1304.48 359.984V329.999L1330.45 315.008Z" fill="#204544" fill-opacity="0.08" stroke="#204544" stroke-opacity="0.12" stroke-width="0.296556"/>
<path d="M1382.63 315.008L1408.59 329.999V359.984L1382.63 374.976L1356.66 359.984V329.999L1382.63 315.008Z" fill="#204544" fill-opacity="0.08" stroke="#204544" stroke-opacity="0.12" stroke-width="0.296556"/>
<path d="M1434.79 315.008L1460.76 329.999V359.984L1434.79 374.976L1408.82 359.984V329.999L1434.79 315.008ZM104.377 359.984L130.344 374.976V404.961L104.377 419.953L78.4091 404.961V374.976L104.377 359.984ZM156.55 359.984L182.518 374.976V404.961L156.55 419.953L130.582 404.961V374.976L156.55 359.984ZM208.723 359.984L234.691 374.976V404.961L208.723 419.953L182.755 404.961V374.976L208.723 359.984Z" stroke="#204544" stroke-opacity="0.12" stroke-width="0.296556"/>
<path d="M313.07 359.984L339.038 374.976V404.961L313.07 419.953L287.102 404.961V374.976L313.07 359.984Z" fill="#204544" fill-opacity="0.04" stroke="#204544" stroke-opacity="0.12" stroke-width="0.296556"/>
<path d="M365.242 359.984L391.209 374.976V404.961L365.242 419.953L339.274 404.961V374.976L365.242 359.984Z" stroke="#204544" stroke-opacity="0.12" stroke-width="0.296556"/>
<path d="M521.763 359.984L547.73 374.976V404.961L521.763 419.953L495.795 404.961V374.976L521.763 359.984Z" fill="#204544" fill-opacity="0.04" stroke="#204544" stroke-opacity="0.12" stroke-width="0.296556"/>
<path d="M573.937 359.984L599.904 374.976V404.961L573.937 419.953L547.969 404.961V374.976L573.937 359.984ZM886.976 359.984L912.944 374.976V404.961L886.976 419.953L861.008 404.961V374.976L886.976 359.984ZM939.149 359.984L965.117 374.976V404.961L939.149 419.953L913.181 404.961V374.976L939.149 359.984Z" stroke="#204544" stroke-opacity="0.12" stroke-width="0.296556"/>
<path d="M991.325 359.984L1017.29 374.976V404.961L991.325 419.953L965.358 404.961V374.976L991.325 359.984Z" fill="#204544" fill-opacity="0.12" stroke="#204544" stroke-opacity="0.12" stroke-width="0.296556"/>
<path d="M1043.49 359.984L1069.46 374.976V404.961L1043.49 419.953L1017.52 404.961V374.976L1043.49 359.984Z" fill="#204544" fill-opacity="0.04" stroke="#204544" stroke-opacity="0.12" stroke-width="0.296556"/>
<path d="M1095.67 359.984L1121.64 374.976V404.961L1095.67 419.953L1069.7 404.961V374.976L1095.67 359.984Z" stroke="#204544" stroke-opacity="0.12" stroke-width="0.296556"/>
<path d="M1200.01 359.984L1225.98 374.976V404.961L1200.01 419.953L1174.05 404.961V374.976L1200.01 359.984Z" fill="#204544" fill-opacity="0.04" stroke="#204544" stroke-opacity="0.12" stroke-width="0.296556"/>
<path d="M1252.19 359.984L1278.16 374.976V404.961L1252.19 419.953L1226.23 404.961V374.976L1252.19 359.984Z" fill="#204544" fill-opacity="0.04" stroke="#204544" stroke-opacity="0.12" stroke-width="0.296556"/>
<path d="M1304.36 359.984L1330.33 374.976V404.961L1304.36 419.953L1278.39 404.961V374.976L1304.36 359.984ZM1356.53 359.984L1382.5 374.976V404.961L1356.53 419.953L1330.57 404.961V374.976L1356.53 359.984ZM234.809 404.96L260.777 419.953V449.938L234.809 464.93L208.842 449.938V419.953L234.809 404.96ZM286.983 404.96L312.95 419.953V449.938L286.983 464.93L261.015 449.938V419.953L286.983 404.96ZM391.329 404.96L417.297 419.953V449.938L391.329 464.93L365.361 449.938V419.953L391.329 404.96ZM443.502 404.96L469.47 419.953V449.938L443.502 464.93L417.535 449.938V419.953L443.502 404.96ZM547.849 404.96L573.816 419.953V449.938L547.849 464.93L521.881 449.938V419.953L547.849 404.96ZM600.022 404.96L625.99 419.953V449.938L600.022 464.93L574.054 449.938V419.953L600.022 404.96ZM652.195 404.96L678.163 419.953V449.938L652.195 464.93L626.227 449.938V419.953L652.195 404.96ZM704.368 404.96L730.336 419.953V449.938L704.368 464.93L678.401 449.938V419.953L704.368 404.96ZM756.541 404.96L782.509 419.953V449.938L756.541 464.93L730.574 449.938V419.953L756.541 404.96Z" stroke="#204544" stroke-opacity="0.12" stroke-width="0.296556"/>
<path d="M860.882 404.961L886.849 419.954V449.939L860.882 464.931L834.914 449.939V419.954L860.882 404.961Z" fill="#204544" fill-opacity="0.04" stroke="#204544" stroke-opacity="0.12" stroke-width="0.296556"/>
<path d="M913.06 404.961L939.028 419.954V449.939L913.06 464.931L887.093 449.939V419.954L913.06 404.961Z" fill="#204544" fill-opacity="0.08" stroke="#204544" stroke-opacity="0.12" stroke-width="0.296556"/>
<path d="M965.239 404.961L991.206 419.954V449.939L965.239 464.931L939.271 449.939V419.954L965.239 404.961ZM1017.41 404.961L1043.38 419.954V449.939L1017.41 464.931L991.444 449.939V419.954L1017.41 404.961Z" stroke="#204544" stroke-opacity="0.12" stroke-width="0.296556"/>
<path d="M1069.58 404.961L1095.55 419.954V449.939L1069.58 464.931L1043.61 449.939V419.954L1069.58 404.961Z" fill="#204544" fill-opacity="0.04" stroke="#204544" stroke-opacity="0.12" stroke-width="0.296556"/>
<path d="M1226.1 404.961L1252.07 419.954V449.939L1226.1 464.931L1200.13 449.939V419.954L1226.1 404.961Z" fill="#204544" fill-opacity="0.04" stroke="#204544" stroke-opacity="0.12" stroke-width="0.296556"/>
<path d="M1278.27 404.961L1304.24 419.954V449.939L1278.27 464.931L1252.3 449.939V419.954L1278.27 404.961Z" stroke="#204544" stroke-opacity="0.12" stroke-width="0.296556"/>
<path d="M1382.63 404.961L1408.59 419.954V449.939L1382.63 464.931L1356.66 449.939V419.954L1382.63 404.961Z" fill="#204544" fill-opacity="0.04" stroke="#204544" stroke-opacity="0.12" stroke-width="0.296556"/>
<path d="M1434.79 404.961L1460.76 419.954V449.939L1434.79 464.931L1408.83 449.939V419.954L1434.79 404.961ZM52.205 449.939L78.1727 464.931V494.916L52.205 509.908L26.2373 494.916V464.931L52.205 449.939ZM104.378 449.939L130.346 464.931V494.916L104.378 509.908L78.4105 494.916V464.931L104.378 449.939ZM260.898 449.939L286.865 464.931V494.916L260.898 509.908L234.93 494.916V464.931L260.898 449.939Z" stroke="#204544" stroke-opacity="0.12" stroke-width="0.296556"/>
<path d="M365.242 449.943L391.209 464.935V494.92L365.242 509.912L339.274 494.92V464.935L365.242 449.943Z" fill="#204544" fill-opacity="0.04" stroke="#204544" stroke-opacity="0.12" stroke-width="0.296556"/>
<path d="M417.414 449.943L443.382 464.935V494.92L417.414 509.912L391.446 494.92V464.935L417.414 449.943Z" fill="#204544" fill-opacity="0.04" stroke="#204544" stroke-opacity="0.12" stroke-width="0.296556"/>
<path d="M469.592 449.943L495.559 464.935V494.92L469.592 509.912L443.624 494.92V464.935L469.592 449.943Z" fill="#204544" fill-opacity="0.12" stroke="#204544" stroke-opacity="0.12" stroke-width="0.296556"/>
<path d="M521.763 449.943L547.73 464.935V494.92L521.763 509.912L495.795 494.92V464.935L521.763 449.943Z" fill="#204544" fill-opacity="0.04" stroke="#204544" stroke-opacity="0.12" stroke-width="0.296556"/>
<path d="M573.937 449.943L599.904 464.935V494.92L573.937 509.912L547.969 494.92V464.935L573.937 449.943ZM626.11 449.943L652.078 464.935V494.92L626.11 509.912L600.142 494.92V464.935L626.11 449.943ZM730.456 449.943L756.424 464.935V494.92L730.456 509.912L704.489 494.92V464.935L730.456 449.943Z" stroke="#204544" stroke-opacity="0.12" stroke-width="0.296556"/>
<path d="M782.628 449.943L808.596 464.935V494.92L782.628 509.912L756.661 494.92V464.935L782.628 449.943Z" fill="#204544" fill-opacity="0.04" stroke="#204544" stroke-opacity="0.12" stroke-width="0.296556"/>
<path d="M834.807 449.943L860.774 464.935V494.92L834.807 509.912L808.839 494.92V464.935L834.807 449.943ZM886.98 449.943L912.948 464.935V494.92L886.98 509.912L861.012 494.92V464.935L886.98 449.943Z" stroke="#204544" stroke-opacity="0.12" stroke-width="0.296556"/>
<path d="M939.149 449.943L965.117 464.935V494.92L939.149 509.912L913.181 494.92V464.935L939.149 449.943Z" fill="#204544" fill-opacity="0.12" stroke="#204544" stroke-opacity="0.12" stroke-width="0.296556"/>
<path d="M991.325 449.943L1017.29 464.935V494.92L991.325 509.912L965.358 494.92V464.935L991.325 449.943Z" stroke="#204544" stroke-opacity="0.12" stroke-width="0.296556"/>
<path d="M1095.67 449.943L1121.64 464.935V494.92L1095.67 509.912L1069.7 494.92V464.935L1095.67 449.943Z" fill="#204544" fill-opacity="0.08" stroke="#204544" stroke-opacity="0.12" stroke-width="0.296556"/>
<path d="M1200.01 449.943L1225.98 464.935V494.92L1200.01 509.912L1174.05 494.92V464.935L1200.01 449.943Z" stroke="#204544" stroke-opacity="0.12" stroke-width="0.296556"/>
<path d="M1252.19 449.943L1278.16 464.935V494.92L1252.19 509.912L1226.23 494.92V464.935L1252.19 449.943Z" fill="#204544" fill-opacity="0.08" stroke="#204544" stroke-opacity="0.12" stroke-width="0.296556"/>
<path d="M1460.88 449.943L1486.85 464.935V494.92L1460.88 509.912L1434.91 494.92V464.935L1460.88 449.943Z" fill="#204544" fill-opacity="0.04" stroke="#204544" stroke-opacity="0.12" stroke-width="0.296556"/>
<path d="M130.466 494.915L156.433 509.906V539.891L130.466 554.883L104.498 539.891V509.906L130.466 494.915Z" fill="#204544" fill-opacity="0.04" stroke="#204544" stroke-opacity="0.12" stroke-width="0.296556"/>
<path d="M182.638 494.915L208.605 509.906V539.891L182.638 554.883L156.67 539.891V509.906L182.638 494.915Z" fill="#204544" fill-opacity="0.04" stroke="#204544" stroke-opacity="0.12" stroke-width="0.296556"/>
<path d="M391.331 494.915L417.299 509.906V539.891L391.331 554.883L365.363 539.891V509.906L391.331 494.915Z" stroke="#204544" stroke-opacity="0.12" stroke-width="0.296556"/>
<path d="M443.503 494.915L469.47 509.906V539.891L443.503 554.883L417.535 539.891V509.906L443.503 494.915Z" fill="#204544" fill-opacity="0.04" stroke="#204544" stroke-opacity="0.12" stroke-width="0.296556"/>
<path d="M495.674 494.915L521.642 509.906V539.891L495.674 554.883L469.706 539.891V509.906L495.674 494.915Z" fill="#204544" fill-opacity="0.08" stroke="#204544" stroke-opacity="0.12" stroke-width="0.296556"/>
<path d="M704.373 494.915L730.34 509.906V539.891L704.373 554.883L678.405 539.891V509.906L704.373 494.915ZM808.719 494.915L834.687 509.906V539.891L808.719 554.883L782.751 539.891V509.906L808.719 494.915ZM913.065 494.915L939.033 509.906V539.891L913.065 554.883L887.098 539.891V509.906L913.065 494.915Z" stroke="#204544" stroke-opacity="0.12" stroke-width="0.296556"/>
<path d="M965.238 494.915L991.206 509.906V539.891L965.238 554.883L939.271 539.891V509.906L965.238 494.915Z" fill="#204544" fill-opacity="0.12" stroke="#204544" stroke-opacity="0.12" stroke-width="0.296556"/>
<path d="M1017.4 494.915L1043.37 509.906V539.891L1017.4 554.883L991.436 539.891V509.906L1017.4 494.915ZM1069.58 494.915L1095.55 509.906V539.891L1069.58 554.883L1043.61 539.891V509.906L1069.58 494.915ZM1121.75 494.915L1147.72 509.906V539.891L1121.75 554.883L1095.78 539.891V509.906L1121.75 494.915Z" stroke="#204544" stroke-opacity="0.12" stroke-width="0.296556"/>
<path d="M1226.1 494.915L1252.07 509.906V539.891L1226.1 554.883L1200.13 539.891V509.906L1226.1 494.915Z" fill="#204544" fill-opacity="0.08" stroke="#204544" stroke-opacity="0.12" stroke-width="0.296556"/>
<path d="M1278.27 494.915L1304.24 509.906V539.891L1278.27 554.883L1252.3 539.891V509.906L1278.27 494.915Z" stroke="#204544" stroke-opacity="0.12" stroke-width="0.296556"/>
<path d="M1330.45 494.915L1356.42 509.906V539.891L1330.45 554.883L1304.48 539.891V509.906L1330.45 494.915Z" fill="#204544" fill-opacity="0.04" stroke="#204544" stroke-opacity="0.12" stroke-width="0.296556"/>
<path d="M1434.79 494.915L1460.76 509.906V539.891L1434.79 554.883L1408.82 539.891V509.906L1434.79 494.915ZM104.377 539.891L130.344 554.883V584.868L104.377 599.86L78.4091 584.868V554.883L104.377 539.891ZM208.723 539.891L234.691 554.883V584.868L208.723 599.86L182.755 584.868V554.883L208.723 539.891ZM313.069 539.891L339.037 554.883V584.868L313.069 599.86L287.102 584.868V554.883L313.069 539.891ZM365.243 539.891L391.21 554.883V584.868L365.243 599.86L339.275 584.868V554.883L365.243 539.891ZM417.416 539.891L443.383 554.883V584.868L417.416 599.86L391.448 584.868V554.883L417.416 539.891ZM469.589 539.891L495.557 554.883V584.868L469.589 599.86L443.621 584.868V554.883L469.589 539.891Z" stroke="#204544" stroke-opacity="0.12" stroke-width="0.296556"/>
<path d="M521.763 539.891L547.73 554.883V584.868L521.763 599.86L495.795 584.868V554.883L521.763 539.891Z" fill="#204544" fill-opacity="0.04" stroke="#204544" stroke-opacity="0.12" stroke-width="0.296556"/>
<path d="M678.284 539.891L704.252 554.883V584.868L678.284 599.86L652.316 584.868V554.883L678.284 539.891Z" fill="#204544" fill-opacity="0.04" stroke="#204544" stroke-opacity="0.12" stroke-width="0.296556"/>
<path d="M782.628 539.891L808.596 554.883V584.868L782.628 599.86L756.661 584.868V554.883L782.628 539.891ZM886.975 539.891L912.942 554.883V584.868L886.975 599.86L861.007 584.868V554.883L886.975 539.891ZM939.148 539.891L965.116 554.883V584.868L939.148 599.86L913.18 584.868V554.883L939.148 539.891ZM1043.49 539.891L1069.46 554.883V584.868L1043.49 599.86L1017.53 584.868V554.883L1043.49 539.891Z" stroke="#204544" stroke-opacity="0.12" stroke-width="0.296556"/>
<path d="M1252.19 539.891L1278.16 554.883V584.868L1252.19 599.86L1226.23 584.868V554.883L1252.19 539.891Z" fill="#204544" fill-opacity="0.04" stroke="#204544" stroke-opacity="0.12" stroke-width="0.296556"/>
<path d="M1304.36 539.891L1330.33 554.883V584.868L1304.36 599.86L1278.39 584.868V554.883L1304.36 539.891ZM1356.53 539.891L1382.5 554.883V584.868L1356.53 599.86L1330.56 584.868V554.883L1356.53 539.891ZM1408.71 539.891L1434.67 554.883V584.868L1408.71 599.86L1382.74 584.868V554.883L1408.71 539.891ZM26.1161 584.868L52.0837 599.86V629.845L26.1161 644.837L0.148375 629.845V599.86L26.1161 584.868ZM130.462 584.868L156.43 599.86V629.845L130.462 644.837L104.495 629.845V599.86L130.462 584.868ZM391.328 584.868L417.296 599.86V629.845L391.328 644.837L365.361 629.845V599.86L391.328 584.868ZM443.501 584.868L469.469 599.86V629.845L443.501 644.837L417.534 629.845V599.86L443.501 584.868ZM495.675 584.868L521.642 599.86V629.845L495.675 644.837L469.707 629.845V599.86L495.675 584.868ZM547.848 584.868L573.815 599.86V629.845L547.848 644.837L521.88 629.845V599.86L547.848 584.868ZM600.021 584.868L625.989 599.86V629.845L600.021 644.837L574.053 629.845V599.86L600.021 584.868Z" stroke="#204544" stroke-opacity="0.12" stroke-width="0.296556"/>
<path d="M652.196 584.873L678.163 599.865V629.85L652.196 644.842L626.228 629.85V599.865L652.196 584.873Z" fill="#204544" fill-opacity="0.04" stroke="#204544" stroke-opacity="0.12" stroke-width="0.296556"/>
<path d="M913.06 584.873L939.028 599.865V629.85L913.06 644.842L887.093 629.85V599.865L913.06 584.873ZM965.234 584.873L991.201 599.865V629.85L965.234 644.842L939.266 629.85V599.865L965.234 584.873Z" stroke="#204544" stroke-opacity="0.12" stroke-width="0.296556"/>
<path d="M1017.4 584.873L1043.37 599.865V629.85L1017.4 644.842L991.436 629.85V599.865L1017.4 584.873Z" fill="#204544" fill-opacity="0.04" stroke="#204544" stroke-opacity="0.12" stroke-width="0.296556"/>
<path d="M1173.93 584.873L1199.89 599.865V629.85L1173.93 644.842L1147.96 629.85V599.865L1173.93 584.873ZM1278.27 584.873L1304.24 599.865V629.85L1278.27 644.842L1252.3 629.85V599.865L1278.27 584.873ZM1330.45 584.873L1356.41 599.865V629.85L1330.45 644.842L1304.48 629.85V599.865L1330.45 584.873Z" stroke="#204544" stroke-opacity="0.12" stroke-width="0.296556"/>
<path d="M1382.63 584.873L1408.59 599.865V629.85L1382.63 644.842L1356.66 629.85V599.865L1382.63 584.873Z" fill="#204544" fill-opacity="0.08" stroke="#204544" stroke-opacity="0.12" stroke-width="0.296556"/>
<path d="M1434.79 584.873L1460.76 599.865V629.85L1434.79 644.842L1408.83 629.85V599.865L1434.79 584.873ZM52.205 629.85L78.1727 644.842V674.825L52.205 689.819L26.2373 674.825V644.842L52.205 629.85ZM156.551 629.85L182.519 644.842V674.825L156.551 689.819L130.584 674.825V644.842L156.551 629.85ZM208.724 629.85L234.692 644.842V674.825L208.724 689.819L182.757 674.825V644.842L208.724 629.85ZM313.071 629.85L339.039 644.842V674.825L313.071 689.819L287.103 674.825V644.842L313.071 629.85ZM365.244 629.85L391.212 644.842V674.825L365.244 689.819L339.276 674.825V644.842L365.244 629.85ZM417.417 629.85L443.385 644.842V674.825L417.417 689.819L391.45 674.825V644.842L417.417 629.85ZM521.764 629.85L547.731 644.842V674.825L521.764 689.819L495.796 674.825V644.842L521.764 629.85ZM573.937 629.85L599.904 644.842V674.825L573.937 689.819L547.969 674.825V644.842L573.937 629.85ZM678.283 629.85L704.251 644.842V674.825L678.283 689.819L652.315 674.825V644.842L678.283 629.85ZM834.803 629.85L860.77 644.842V674.825L834.803 689.819L808.835 674.825V644.842L834.803 629.85ZM1147.84 629.85L1173.81 644.842V674.825L1147.84 689.819L1121.87 674.825V644.842L1147.84 629.85Z" stroke="#204544" stroke-opacity="0.12" stroke-width="0.296556"/>
<path d="M1252.19 629.844L1278.16 644.836V674.82L1252.19 689.813L1226.23 674.82V644.836L1252.19 629.844Z" fill="#204544" fill-opacity="0.04" stroke="#204544" stroke-opacity="0.12" stroke-width="0.296556"/>
<path d="M1304.36 629.844L1330.32 644.836V674.82L1304.36 689.813L1278.39 674.82V644.836L1304.36 629.844Z" fill="#204544" fill-opacity="0.04" stroke="#204544" stroke-opacity="0.12" stroke-width="0.296556"/>
<path d="M1408.7 629.844L1434.67 644.836V674.82L1408.7 689.813L1382.73 674.82V644.836L1408.7 629.844Z" fill="#204544" fill-opacity="0.08" stroke="#204544" stroke-opacity="0.12" stroke-width="0.296556"/>
<path d="M1460.88 629.844L1486.84 644.836V674.82L1460.88 689.813L1434.91 674.82V644.836L1460.88 629.844ZM78.2879 674.82L104.256 689.813V719.797L78.2879 734.79L52.3203 719.797V689.813L78.2879 674.82ZM130.461 674.82L156.429 689.813V719.797L130.461 734.79L104.493 719.797V689.813L130.461 674.82ZM182.634 674.82L208.602 689.813V719.797L182.634 734.79L156.667 719.797V689.813L182.634 674.82ZM286.981 674.82L312.948 689.813V719.797L286.981 734.79L261.013 719.797V689.813L286.981 674.82Z" stroke="#204544" stroke-opacity="0.12" stroke-width="0.296556"/>
<path d="M391.331 674.821L417.299 689.814V719.798L391.331 734.791L365.363 719.798V689.814L391.331 674.821Z" fill="#204544" fill-opacity="0.04" stroke="#204544" stroke-opacity="0.12" stroke-width="0.296556"/>
<path d="M495.674 674.821L521.642 689.814V719.798L495.674 734.791L469.706 719.798V689.814L495.674 674.821ZM547.847 674.821L573.815 689.814V719.798L547.847 734.791L521.88 719.798V689.814L547.847 674.821Z" stroke="#204544" stroke-opacity="0.12" stroke-width="0.296556"/>
<path d="M600.02 674.821L625.988 689.814V719.798L600.02 734.791L574.053 719.798V689.814L600.02 674.821Z" fill="#204544" fill-opacity="0.04" stroke="#204544" stroke-opacity="0.12" stroke-width="0.296556"/>
<path d="M704.373 674.821L730.34 689.814V719.798L704.373 734.791L678.405 719.798V689.814L704.373 674.821Z" fill="#204544" fill-opacity="0.04" stroke="#204544" stroke-opacity="0.12" stroke-width="0.296556"/>
<path d="M913.06 674.821L939.028 689.814V719.798L913.06 734.791L887.093 719.798V689.814L913.06 674.821ZM1069.58 674.821L1095.55 689.814V719.798L1069.58 734.791L1043.61 719.798V689.814L1069.58 674.821Z" stroke="#204544" stroke-opacity="0.12" stroke-width="0.296556"/>
<path d="M1121.76 674.821L1147.73 689.814V719.798L1121.76 734.791L1095.79 719.798V689.814L1121.76 674.821Z" fill="#204544" fill-opacity="0.08" stroke="#204544" stroke-opacity="0.12" stroke-width="0.296556"/>
<path d="M1173.93 674.821L1199.9 689.814V719.798L1173.93 734.791L1147.96 719.798V689.814L1173.93 674.821ZM1330.45 674.821L1356.42 689.814V719.798L1330.45 734.791L1304.48 719.798V689.814L1330.45 674.821ZM52.205 719.798L78.1727 734.791V764.775L52.205 779.769L26.2373 764.775V734.791L52.205 719.798ZM104.378 719.798L130.346 734.791V764.775L104.378 779.769L78.4105 764.775V734.791L104.378 719.798ZM156.551 719.798L182.519 734.791V764.775L156.551 779.768L130.584 764.775V734.791L156.551 719.798ZM208.724 719.798L234.692 734.791V764.775L208.724 779.768L182.757 764.775V734.791L208.724 719.798ZM260.898 719.798L286.865 734.791V764.775L260.898 779.768L234.93 764.775V734.791L260.898 719.798Z" stroke="#204544" stroke-opacity="0.12" stroke-width="0.296556"/>
<path d="M365.242 719.797L391.209 734.79V764.774L365.242 779.767L339.274 764.774V734.79L365.242 719.797Z" fill="#204544" fill-opacity="0.08" stroke="#204544" stroke-opacity="0.12" stroke-width="0.296556"/>
<path d="M417.414 719.797L443.382 734.79V764.774L417.414 779.767L391.446 764.774V734.79L417.414 719.797Z" fill="#204544" fill-opacity="0.12" stroke="#204544" stroke-opacity="0.12" stroke-width="0.296556"/>
<path d="M469.592 719.797L495.559 734.79V764.774L469.592 779.767L443.624 764.774V734.79L469.592 719.797Z" stroke="#204544" stroke-opacity="0.12" stroke-width="0.296556"/>
<path d="M573.937 719.797L599.904 734.79V764.773L573.937 779.767L547.969 764.773V734.79L573.937 719.797Z" fill="#204544" fill-opacity="0.04" stroke="#204544" stroke-opacity="0.12" stroke-width="0.296556"/>
<path d="M626.107 719.797L652.075 734.79V764.774L626.107 779.767L600.14 764.774V734.79L626.107 719.797Z" stroke="#204544" stroke-opacity="0.12" stroke-width="0.296556"/>
<path d="M678.284 719.797L704.252 734.79V764.774L678.284 779.767L652.316 764.774V734.79L678.284 719.797Z" fill="#204544" fill-opacity="0.12" stroke="#204544" stroke-opacity="0.12" stroke-width="0.296556"/>
<path d="M782.628 719.797L808.596 734.79V764.773L782.628 779.767L756.661 764.773V734.79L782.628 719.797Z" stroke="#204544" stroke-opacity="0.12" stroke-width="0.296556"/>
<path d="M834.807 719.797L860.774 734.79V764.773L834.807 779.767L808.839 764.773V734.79L834.807 719.797Z" fill="#204544" fill-opacity="0.04" stroke="#204544" stroke-opacity="0.12" stroke-width="0.296556"/>
<path d="M886.971 719.797L912.939 734.79V764.774L886.971 779.767L861.004 764.774V734.79L886.971 719.797Z" fill="#204544" fill-opacity="0.08" stroke="#204544" stroke-opacity="0.12" stroke-width="0.296556"/>
<path d="M939.15 719.797L965.118 734.79V764.774L939.15 779.767L913.182 764.774V734.79L939.15 719.797ZM991.323 719.797L1017.29 734.79V764.774L991.323 779.767L965.355 764.774V734.79L991.323 719.797ZM1043.5 719.797L1069.46 734.79V764.774L1043.5 779.767L1017.53 764.774V734.79L1043.5 719.797ZM1095.67 719.797L1121.64 734.79V764.774L1095.67 779.767L1069.7 764.774V734.79L1095.67 719.797ZM1147.84 719.797L1173.81 734.79V764.774L1147.84 779.767L1121.87 764.774V734.79L1147.84 719.797ZM1252.19 719.797L1278.16 734.79V764.774L1252.19 779.767L1226.22 764.774V734.79L1252.19 719.797ZM1408.71 719.797L1434.68 734.79V764.774L1408.71 779.767L1382.74 764.774V734.79L1408.71 719.797ZM130.466 764.774L156.433 779.767V809.751L130.466 824.744L104.498 809.749V779.768L130.466 764.774ZM286.985 764.774L312.953 779.767V809.751L286.985 824.744L261.018 809.749V779.768L286.985 764.774ZM443.505 764.774L469.472 779.767V809.751L443.505 824.744L417.537 809.749V779.768L443.505 764.774ZM495.678 764.774L521.646 779.767V809.751L495.678 824.744L469.71 809.749V779.768L495.678 764.774ZM600.024 764.774L625.992 779.767V809.751L600.024 824.744L574.057 809.749V779.768L600.024 764.774ZM652.197 764.774L678.165 779.767V809.751L652.197 824.744L626.23 809.749V779.768L652.197 764.774Z" stroke="#204544" stroke-opacity="0.12" stroke-width="0.296556"/>
<path d="M756.539 764.78L782.507 779.773V809.757L756.539 824.75L730.572 809.756V779.775L756.539 764.78Z" fill="#204544" fill-opacity="0.08" stroke="#204544" stroke-opacity="0.12" stroke-width="0.296556"/>
<path d="M860.882 764.78L886.849 779.773V809.757L860.882 824.75L834.914 809.756V779.775L860.882 764.78ZM965.228 764.78L991.196 779.773V809.757L965.228 824.75L939.26 809.756V779.775L965.228 764.78Z" stroke="#204544" stroke-opacity="0.12" stroke-width="0.296556"/>
<path d="M1017.4 764.78L1043.37 779.773V809.757L1017.4 824.75L991.436 809.756V779.775L1017.4 764.78Z" fill="#204544" fill-opacity="0.04" stroke="#204544" stroke-opacity="0.12" stroke-width="0.296556"/>
<path d="M1069.58 764.78L1095.55 779.773V809.757L1069.58 824.75L1043.61 809.756V779.775L1069.58 764.78ZM1121.75 764.78L1147.72 779.773V809.757L1121.75 824.75L1095.79 809.756V779.775L1121.75 764.78Z" stroke="#204544" stroke-opacity="0.12" stroke-width="0.296556"/>
<path d="M1173.93 764.78L1199.89 779.773V809.757L1173.93 824.75L1147.96 809.756V779.775L1173.93 764.78Z" fill="#204544" fill-opacity="0.04" stroke="#204544" stroke-opacity="0.12" stroke-width="0.296556"/>
<path d="M1278.27 764.78L1304.24 779.773V809.757L1278.27 824.75L1252.3 809.756V779.775L1278.27 764.78Z" fill="#204544" fill-opacity="0.04" stroke="#204544" stroke-opacity="0.12" stroke-width="0.296556"/>
<path d="M1330.45 764.78L1356.42 779.773V809.757L1330.45 824.75L1304.48 809.756V779.775L1330.45 764.78Z" fill="#204544" fill-opacity="0.04" stroke="#204544" stroke-opacity="0.12" stroke-width="0.296556"/>
<path d="M1434.79 764.78L1460.76 779.773V809.757L1434.79 824.75L1408.82 809.756V779.775L1434.79 764.78Z" fill="#204544" fill-opacity="0.08" stroke="#204544" stroke-opacity="0.12" stroke-width="0.296556"/>
<path d="M52.205 809.757L78.1727 824.75V854.734L52.205 869.727L26.2373 854.734V824.75L52.205 809.757ZM104.378 809.757L130.346 824.75V854.734L104.378 869.727L78.4105 854.734V824.75L104.378 809.757ZM208.725 809.757L234.692 824.75V854.734L208.725 869.727L182.757 854.734V824.75L208.725 809.757Z" stroke="#204544" stroke-opacity="0.12" stroke-width="0.296556"/>
<path d="M260.898 809.757L286.866 824.75V854.734L260.898 869.727L234.93 854.734V824.75L260.898 809.757Z" fill="#204544" fill-opacity="0.04" stroke="#204544" stroke-opacity="0.12" stroke-width="0.296556"/>
<path d="M417.414 809.757L443.382 824.75V854.734L417.414 869.727L391.446 854.734V824.75L417.414 809.757Z" fill="#204544" fill-opacity="0.12" stroke="#204544" stroke-opacity="0.12" stroke-width="0.296556"/>
<path d="M469.592 809.757L495.559 824.75V854.734L469.592 869.727L443.624 854.734V824.75L469.592 809.757ZM521.765 809.757L547.733 824.75V854.734L521.765 869.727L495.797 854.734V824.75L521.765 809.757ZM678.284 809.757L704.252 824.75V854.734L678.284 869.727L652.317 854.734V824.75L678.284 809.757ZM730.458 809.757L756.425 824.75V854.734L730.458 869.727L704.49 854.734V824.75L730.458 809.757Z" stroke="#204544" stroke-opacity="0.12" stroke-width="0.296556"/>
<path d="M782.628 809.757L808.596 824.75V854.734L782.628 869.727L756.661 854.734V824.75L782.628 809.757Z" fill="#204544" fill-opacity="0.04" stroke="#204544" stroke-opacity="0.12" stroke-width="0.296556"/>
<path d="M834.807 809.757L860.774 824.75V854.734L834.807 869.727L808.839 854.734V824.75L834.807 809.757ZM886.98 809.757L912.948 824.75V854.734L886.98 869.727L861.012 854.734V824.75L886.98 809.757ZM991.326 809.757L1017.29 824.75V854.734L991.326 869.727L965.359 854.734V824.75L991.326 809.757ZM1043.5 809.757L1069.47 824.75V854.734L1043.5 869.727L1017.53 854.734V824.75L1043.5 809.757ZM1095.67 809.757L1121.64 824.75V854.734L1095.67 869.727L1069.71 854.734V824.75L1095.67 809.757ZM1147.85 809.757L1173.81 824.75V854.734L1147.85 869.727L1121.88 854.734V824.75L1147.85 809.757ZM1200.02 809.757L1225.99 824.75V854.734L1200.02 869.727L1174.05 854.734V824.75L1200.02 809.757ZM1252.19 809.757L1278.16 824.75V854.734L1252.19 869.727L1226.22 854.734V824.75L1252.19 809.757Z" stroke="#204544" stroke-opacity="0.12" stroke-width="0.296556"/>
<path d="M1304.36 809.757L1330.32 824.75V854.734L1304.36 869.727L1278.39 854.734V824.75L1304.36 809.757Z" fill="#204544" fill-opacity="0.04" stroke="#204544" stroke-opacity="0.12" stroke-width="0.296556"/>
<path d="M1356.53 809.757L1382.5 824.75V854.734L1356.53 869.727L1330.56 854.734V824.75L1356.53 809.757ZM26.1161 854.734L52.0837 869.727V899.711L26.1161 914.704L0.148375 899.711V869.727L26.1161 854.734ZM78.2892 854.734L104.257 869.727V899.711L78.2892 914.704L52.3215 899.711V869.727L78.2892 854.734Z" stroke="#204544" stroke-opacity="0.12" stroke-width="0.296556"/>
<path d="M130.466 854.733L156.433 869.726V899.71L130.466 914.703L104.498 899.71V869.726L130.466 854.733Z" fill="#204544" fill-opacity="0.08" stroke="#204544" stroke-opacity="0.12" stroke-width="0.296556"/>
<path d="M339.159 854.733L365.127 869.726V899.71L339.159 914.703L313.191 899.71V869.726L339.159 854.733Z" fill="#204544" fill-opacity="0.04" stroke="#204544" stroke-opacity="0.12" stroke-width="0.296556"/>
<path d="M443.503 854.733L469.47 869.726V899.71L443.503 914.703L417.535 899.71V869.726L443.503 854.733Z" fill="#204544" fill-opacity="0.04" stroke="#204544" stroke-opacity="0.12" stroke-width="0.296556"/>
<path d="M495.674 854.733L521.642 869.726V899.71L495.674 914.703L469.706 899.71V869.726L495.674 854.733ZM600.02 854.733L625.988 869.726V899.71L600.02 914.703L574.053 899.71V869.726L600.02 854.733Z" stroke="#204544" stroke-opacity="0.12" stroke-width="0.296556"/>
<path d="M704.373 854.733L730.34 869.726V899.71L704.373 914.703L678.405 899.71V869.726L704.373 854.733Z" fill="#204544" fill-opacity="0.08" stroke="#204544" stroke-opacity="0.12" stroke-width="0.296556"/>
<path d="M756.54 854.733L782.508 869.726V899.71L756.54 914.703L730.572 899.71V869.726L756.54 854.733ZM913.06 854.733L939.027 869.726V899.71L913.06 914.703L887.092 899.71V869.726L913.06 854.733ZM965.233 854.733L991.2 869.726V899.71L965.233 914.703L939.265 899.71V869.726L965.233 854.733ZM1173.93 854.733L1199.89 869.726V899.71L1173.93 914.703L1147.96 899.71V869.726L1173.93 854.733ZM1226.1 854.733L1252.07 869.726V899.71L1226.1 914.703L1200.13 899.71V869.726L1226.1 854.733ZM1278.27 854.733L1304.24 869.726V899.71L1278.27 914.703L1252.3 899.71V869.726L1278.27 854.733ZM1330.44 854.733L1356.41 869.726V899.71L1330.44 914.703L1304.48 899.71V869.726L1330.44 854.733ZM156.549 899.711L182.516 914.703V944.687L156.549 959.68L130.581 944.687V914.703L156.549 899.711ZM208.722 899.711L234.689 914.703V944.687L208.722 959.68L182.754 944.687V914.703L208.722 899.711Z" stroke="#204544" stroke-opacity="0.12" stroke-width="0.296556"/>
<path d="M260.898 899.71L286.866 914.702V944.685L260.898 959.678L234.93 944.685V914.702L260.898 899.71Z" fill="#204544" fill-opacity="0.04" stroke="#204544" stroke-opacity="0.12" stroke-width="0.296556"/>
<path d="M365.242 899.71L391.209 914.702V944.685L365.242 959.678L339.274 944.685V914.702L365.242 899.71ZM469.588 899.71L495.556 914.702V944.685L469.588 959.678L443.62 944.685V914.702L469.588 899.71ZM573.934 899.71L599.902 914.702V944.685L573.934 959.678L547.967 944.685V914.702L573.934 899.71ZM626.107 899.71L652.075 914.702V944.685L626.107 959.678L600.14 944.685V914.702L626.107 899.71ZM678.281 899.71L704.248 914.702V944.685L678.281 959.678L652.313 944.685V914.702L678.281 899.71Z" stroke="#204544" stroke-opacity="0.12" stroke-width="0.296556"/>
<path d="M730.45 899.71L756.418 914.702V944.685L730.45 959.678L704.483 944.685V914.702L730.45 899.71Z" fill="#204544" fill-opacity="0.04" stroke="#204544" stroke-opacity="0.12" stroke-width="0.296556"/>
<path d="M834.807 899.71L860.774 914.702V944.685L834.807 959.678L808.839 944.685V914.702L834.807 899.71Z" stroke="#204544" stroke-opacity="0.12" stroke-width="0.296556"/>
<path d="M886.971 899.71L912.939 914.702V944.685L886.971 959.678L861.004 944.685V914.702L886.971 899.71Z" fill="#204544" fill-opacity="0.08" stroke="#204544" stroke-opacity="0.12" stroke-width="0.296556"/>
<path d="M939.149 899.71L965.117 914.702V944.685L939.149 959.678L913.181 944.685V914.702L939.149 899.71Z" fill="#204544" fill-opacity="0.08" stroke="#204544" stroke-opacity="0.12" stroke-width="0.296556"/>
<path d="M991.325 899.71L1017.29 914.702V944.685L991.325 959.678L965.358 944.685V914.702L991.325 899.71ZM1043.5 899.71L1069.47 914.702V944.685L1043.5 959.678L1017.53 944.685V914.702L1043.5 899.71ZM1095.67 899.71L1121.64 914.702V944.685L1095.67 959.678L1069.7 944.685V914.702L1095.67 899.71ZM1252.19 899.71L1278.16 914.702V944.685L1252.19 959.678L1226.22 944.685V914.702L1252.19 899.71ZM1304.36 899.71L1330.33 914.702V944.685L1304.36 959.678L1278.4 944.685V914.702L1304.36 899.71ZM1356.54 899.71L1382.51 914.702V944.685L1356.54 959.678L1330.57 944.685V914.702L1356.54 899.71ZM1408.71 899.71L1434.68 914.702V944.685L1408.71 959.678L1382.74 944.685V914.702L1408.71 899.71ZM1460.88 899.71L1486.85 914.702V944.685L1460.88 959.678L1434.92 944.685V914.702L1460.88 899.71Z" stroke="#204544" stroke-opacity="0.12" stroke-width="0.296556"/>
<path d="M78.2879 944.685L104.256 959.678V989.662L78.2879 1004.66L52.3203 989.662V959.678L78.2879 944.685Z" fill="#204544" fill-opacity="0.04" stroke="#204544" stroke-opacity="0.12" stroke-width="0.296556"/>
<path d="M130.466 944.685L156.433 959.678V989.662L130.466 1004.66L104.498 989.662V959.678L130.466 944.685Z" stroke="#204544" stroke-opacity="0.12" stroke-width="0.296556"/>
<path d="M234.809 944.685L260.777 959.678V989.662L234.809 1004.66L208.842 989.662V959.678L234.809 944.685Z" fill="#204544" fill-opacity="0.04" stroke="#204544" stroke-opacity="0.12" stroke-width="0.296556"/>
<path d="M286.981 944.685L312.948 959.678V989.662L286.981 1004.66L261.013 989.662V959.678L286.981 944.685Z" fill="#204544" fill-opacity="0.04" stroke="#204544" stroke-opacity="0.12" stroke-width="0.296556"/>
<path d="M391.331 944.685L417.299 959.678V989.662L391.331 1004.66L365.363 989.662V959.678L391.331 944.685ZM495.677 944.685L521.645 959.678V989.662L495.677 1004.66L469.71 989.662V959.678L495.677 944.685Z" stroke="#204544" stroke-opacity="0.12" stroke-width="0.296556"/>
<path d="M600.02 944.685L625.988 959.678V989.662L600.02 1004.65L574.053 989.662V959.678L600.02 944.685Z" fill="#204544" fill-opacity="0.04" stroke="#204544" stroke-opacity="0.12" stroke-width="0.296556"/>
<path d="M704.373 944.685L730.34 959.678V989.662L704.373 1004.65L678.405 989.662V959.678L704.373 944.685Z" fill="#204544" fill-opacity="0.04" stroke="#204544" stroke-opacity="0.12" stroke-width="0.296556"/>
<path d="M756.539 944.685L782.507 959.678V989.662L756.539 1004.66L730.572 989.662V959.678L756.539 944.685Z" fill="#204544" fill-opacity="0.04" stroke="#204544" stroke-opacity="0.12" stroke-width="0.296556"/>
<path d="M808.717 944.685L834.685 959.678V989.662L808.717 1004.66L782.749 989.662V959.678L808.717 944.685Z" fill="#204544" fill-opacity="0.12" stroke="#204544" stroke-opacity="0.12" stroke-width="0.296556"/>
<path d="M913.06 944.685L939.028 959.678V989.662L913.06 1004.65L887.093 989.662V959.678L913.06 944.685Z" stroke="#204544" stroke-opacity="0.12" stroke-width="0.296556"/>
<path d="M1069.58 944.685L1095.55 959.678V989.662L1069.58 1004.66L1043.61 989.662V959.678L1069.58 944.685Z" fill="#204544" fill-opacity="0.04" stroke="#204544" stroke-opacity="0.12" stroke-width="0.296556"/>
<path d="M1226.1 944.685L1252.07 959.678V989.662L1226.1 1004.66L1200.13 989.662V959.678L1226.1 944.685Z" fill="#204544" fill-opacity="0.04" stroke="#204544" stroke-opacity="0.12" stroke-width="0.296556"/>
<path d="M1278.27 944.685L1304.24 959.678V989.662L1278.27 1004.66L1252.31 989.662V959.678L1278.27 944.685ZM1330.45 944.685L1356.42 959.678V989.662L1330.45 1004.66L1304.48 989.662V959.678L1330.45 944.685ZM1434.79 944.685L1460.76 959.678V989.662L1434.79 1004.66L1408.83 989.662V959.678L1434.79 944.685ZM52.205 989.662L78.1727 1004.66V1034.64L52.205 1049.63L26.2373 1034.64V1004.66L52.205 989.662ZM156.551 989.662L182.519 1004.66V1034.64L156.551 1049.63L130.584 1034.64V1004.66L156.551 989.662Z" stroke="#204544" stroke-opacity="0.12" stroke-width="0.296556"/>
<path d="M260.898 989.662L286.866 1004.66V1034.64L260.898 1049.63L234.93 1034.64V1004.66L260.898 989.662Z" fill="#204544" fill-opacity="0.04" stroke="#204544" stroke-opacity="0.12" stroke-width="0.296556"/>
<path d="M365.242 989.662L391.209 1004.66V1034.64L365.242 1049.63L339.274 1034.64V1004.66L365.242 989.662ZM417.415 989.662L443.382 1004.66V1034.64L417.415 1049.63L391.447 1034.64V1004.66L417.415 989.662ZM469.588 989.662L495.556 1004.66V1034.64L469.588 1049.63L443.62 1034.64V1004.66L469.588 989.662ZM521.761 989.662L547.729 1004.66V1034.64L521.761 1049.63L495.793 1034.64V1004.66L521.761 989.662ZM626.107 989.662L652.075 1004.66V1034.64L626.107 1049.63L600.14 1034.64V1004.66L626.107 989.662ZM834.8 989.662L860.768 1004.66V1034.64L834.8 1049.63L808.833 1034.64V1004.66L834.8 989.662ZM886.973 989.662L912.941 1004.66V1034.64L886.973 1049.63L861.006 1034.64V1004.66L886.973 989.662Z" stroke="#204544" stroke-opacity="0.12" stroke-width="0.296556"/>
<path d="M939.149 989.662L965.117 1004.66V1034.64L939.149 1049.63L913.181 1034.64V1004.66L939.149 989.662Z" fill="#204544" fill-opacity="0.04" stroke="#204544" stroke-opacity="0.12" stroke-width="0.296556"/>
<path d="M1095.67 989.662L1121.64 1004.66V1034.64L1095.67 1049.63L1069.7 1034.64V1004.66L1095.67 989.662ZM1200.02 989.662L1225.98 1004.66V1034.64L1200.02 1049.63L1174.05 1034.64V1004.66L1200.02 989.662ZM1252.19 989.662L1278.16 1004.66V1034.64L1252.19 1049.63L1226.22 1034.64V1004.66L1252.19 989.662Z" stroke="#204544" stroke-opacity="0.12" stroke-width="0.296556"/>
<path d="M1356.54 989.662L1382.5 1004.66V1034.64L1356.54 1049.63L1330.57 1034.64V1004.66L1356.54 989.662Z" fill="#204544" fill-opacity="0.12" stroke="#204544" stroke-opacity="0.12" stroke-width="0.296556"/>
<path d="M1408.7 989.662L1434.67 1004.66V1034.64L1408.7 1049.63L1382.73 1034.64V1004.66L1408.7 989.662ZM1460.87 989.662L1486.84 1004.66V1034.64L1460.87 1049.63L1434.91 1034.64V1004.66L1460.87 989.662Z" stroke="#204544" stroke-opacity="0.12" stroke-width="0.296556"/>
<path d="M130.466 1034.64L156.433 1049.63V1079.62L130.466 1094.61L104.498 1079.62V1049.63L130.466 1034.64Z" fill="#204544" fill-opacity="0.12" stroke="#204544" stroke-opacity="0.12" stroke-width="0.296556"/>
<path d="M182.638 1034.64L208.605 1049.63V1079.62L182.638 1094.61L156.67 1079.62V1049.63L182.638 1034.64ZM286.984 1034.64L312.952 1049.63V1079.62L286.984 1094.61L261.016 1079.62V1049.63L286.984 1034.64ZM339.157 1034.64L365.125 1049.63V1079.62L339.157 1094.61L313.189 1079.62V1049.63L339.157 1034.64Z" stroke="#204544" stroke-opacity="0.12" stroke-width="0.296556"/>
<path d="M495.674 1034.64L521.642 1049.63V1079.62L495.674 1094.61L469.706 1079.62V1049.63L495.674 1034.64Z" fill="#204544" fill-opacity="0.08" stroke="#204544" stroke-opacity="0.12" stroke-width="0.296556"/>
<path d="M547.852 1034.64L573.819 1049.63V1079.62L547.852 1094.61L521.884 1079.62V1049.63L547.852 1034.64ZM652.198 1034.64L678.166 1049.63V1079.62L652.198 1094.61L626.23 1079.62V1049.63L652.198 1034.64ZM704.371 1034.64L730.339 1049.63V1079.62L704.371 1094.61L678.404 1079.62V1049.63L704.371 1034.64ZM756.544 1034.64L782.512 1049.63V1079.62L756.544 1094.61L730.577 1079.62V1049.63L756.544 1034.64Z" stroke="#204544" stroke-opacity="0.12" stroke-width="0.296556"/>
<path d="M808.717 1034.64L834.685 1049.63V1079.62L808.717 1094.61L782.749 1079.62V1049.63L808.717 1034.64Z" fill="#204544" fill-opacity="0.04" stroke="#204544" stroke-opacity="0.12" stroke-width="0.296556"/>
<path d="M860.882 1034.64L886.849 1049.63V1079.62L860.882 1094.61L834.914 1079.62V1049.63L860.882 1034.64Z" fill="#204544" fill-opacity="0.08" stroke="#204544" stroke-opacity="0.12" stroke-width="0.296556"/>
<path d="M913.06 1034.64L939.027 1049.63V1079.62L913.06 1094.61L887.092 1079.62V1049.63L913.06 1034.64ZM1017.41 1034.64L1043.37 1049.63V1079.62L1017.41 1094.61L991.438 1079.62V1049.63L1017.41 1034.64ZM1226.1 1034.64L1252.07 1049.63V1079.62L1226.1 1094.61L1200.13 1079.62V1049.63L1226.1 1034.64ZM1330.44 1034.64L1356.41 1049.63V1079.62L1330.44 1094.61L1304.48 1079.62V1049.63L1330.44 1034.64ZM1382.62 1034.64L1408.59 1049.63V1079.62L1382.62 1094.61L1356.65 1079.62V1049.63L1382.62 1034.64ZM156.549 1079.62L182.516 1094.61V1124.59L156.549 1139.58L130.581 1124.59V1094.61L156.549 1079.62ZM208.722 1079.62L234.689 1094.61V1124.59L208.722 1139.58L182.754 1124.59V1094.61L208.722 1079.62Z" stroke="#204544" stroke-opacity="0.12" stroke-width="0.296556"/>
<path d="M260.898 1079.62L286.866 1094.61V1124.59L260.898 1139.58L234.93 1124.59V1094.61L260.898 1079.62Z" fill="#204544" fill-opacity="0.04" stroke="#204544" stroke-opacity="0.12" stroke-width="0.296556"/>
<path d="M365.241 1079.62L391.209 1094.61V1124.59L365.241 1139.58L339.274 1124.59V1094.61L365.241 1079.62ZM417.415 1079.62L443.382 1094.61V1124.59L417.415 1139.58L391.447 1124.59V1094.61L417.415 1079.62ZM469.588 1079.62L495.555 1094.61V1124.59L469.588 1139.58L443.62 1124.59V1094.61L469.588 1079.62Z" stroke="#204544" stroke-opacity="0.12" stroke-width="0.296556"/>
<path d="M521.763 1079.62L547.73 1094.61V1124.59L521.763 1139.58L495.795 1124.59V1094.61L521.763 1079.62Z" fill="#204544" fill-opacity="0.12" stroke="#204544" stroke-opacity="0.12" stroke-width="0.296556"/>
<path d="M573.937 1079.62L599.904 1094.61V1124.59L573.937 1139.58L547.969 1124.59V1094.61L573.937 1079.62Z" fill="#204544" fill-opacity="0.12" stroke="#204544" stroke-opacity="0.12" stroke-width="0.296556"/>
<path d="M626.107 1079.62L652.075 1094.61V1124.59L626.107 1139.58L600.14 1124.59V1094.61L626.107 1079.62Z" stroke="#204544" stroke-opacity="0.12" stroke-width="0.296556"/>
<path d="M678.284 1079.62L704.252 1094.61V1124.59L678.284 1139.58L652.316 1124.59V1094.61L678.284 1079.62Z" fill="#204544" fill-opacity="0.08" stroke="#204544" stroke-opacity="0.12" stroke-width="0.296556"/>
<path d="M730.45 1079.62L756.418 1094.61V1124.59L730.45 1139.58L704.483 1124.59V1094.61L730.45 1079.62Z" fill="#204544" fill-opacity="0.04" stroke="#204544" stroke-opacity="0.12" stroke-width="0.296556"/>
<path d="M782.628 1079.62L808.596 1094.61V1124.59L782.628 1139.58L756.661 1124.59V1094.61L782.628 1079.62Z" stroke="#204544" stroke-opacity="0.12" stroke-width="0.296556"/>
<path d="M834.807 1079.62L860.774 1094.61V1124.59L834.807 1139.58L808.839 1124.59V1094.61L834.807 1079.62Z" fill="#204544" fill-opacity="0.08" stroke="#204544" stroke-opacity="0.12" stroke-width="0.296556"/>
<path d="M939.149 1079.62L965.117 1094.61V1124.59L939.149 1139.58L913.181 1124.59V1094.61L939.149 1079.62Z" fill="#204544" fill-opacity="0.04" stroke="#204544" stroke-opacity="0.12" stroke-width="0.296556"/>
<path d="M1147.84 1079.62L1173.8 1094.61V1124.59L1147.84 1139.58L1121.87 1124.59V1094.61L1147.84 1079.62Z" fill="#204544" fill-opacity="0.04" stroke="#204544" stroke-opacity="0.12" stroke-width="0.296556"/>
<path d="M1200.01 1079.62L1225.98 1094.61V1124.59L1200.01 1139.58L1174.05 1124.59V1094.61L1200.01 1079.62ZM1252.19 1079.62L1278.16 1094.61V1124.59L1252.19 1139.58L1226.22 1124.59V1094.61L1252.19 1079.62ZM1304.36 1079.62L1330.33 1094.61V1124.59L1304.36 1139.58L1278.39 1124.59V1094.61L1304.36 1079.62ZM1356.53 1079.62L1382.5 1094.61V1124.59L1356.53 1139.58L1330.57 1124.59V1094.61L1356.53 1079.62ZM1408.71 1079.62L1434.67 1094.61V1124.59L1408.71 1139.58L1382.74 1124.59V1094.61L1408.71 1079.62ZM1460.88 1079.62L1486.85 1094.61V1124.59L1460.88 1139.58L1434.91 1124.59V1094.61L1460.88 1079.62Z" stroke="#204544" stroke-opacity="0.12" stroke-width="0.296556"/>
</svg>
