<svg width="18" height="18" viewBox="0 0 18 18" fill="none" xmlns="http://www.w3.org/2000/svg">
<g clip-path="url(#clip0_1_13675)">
<path d="M0.5625 2.8125C0.5625 1.56986 1.56986 0.5625 2.8125 0.5625H5.0625C5.37317 0.5625 5.625 0.81434 5.625 1.125C5.625 1.43566 5.37317 1.6875 5.0625 1.6875H2.8125C2.19118 1.6875 1.6875 2.19118 1.6875 2.8125V5.0625C1.6875 5.37317 1.43566 5.625 1.125 5.625C0.81434 5.625 0.5625 5.37317 0.5625 5.0625V2.8125Z" fill="#204544"/>
<path d="M12.375 1.125C12.375 0.81434 12.6268 0.5625 12.9375 0.5625H15.1875C16.4301 0.5625 17.4375 1.56986 17.4375 2.8125V5.0625C17.4375 5.37317 17.1857 5.625 16.875 5.625C16.5643 5.625 16.3125 5.37317 16.3125 5.0625V2.8125C16.3125 2.19118 15.8088 1.6875 15.1875 1.6875H12.9375C12.6268 1.6875 12.375 1.43566 12.375 1.125Z" fill="#204544"/>
<path d="M1.125 12.375C1.43566 12.375 1.6875 12.6268 1.6875 12.9375V15.1875C1.6875 15.8088 2.19118 16.3125 2.8125 16.3125H5.0625C5.37317 16.3125 5.625 16.5643 5.625 16.875C5.625 17.1857 5.37317 17.4375 5.0625 17.4375H2.8125C1.56986 17.4375 0.5625 16.4301 0.5625 15.1875V12.9375C0.5625 12.6268 0.81434 12.375 1.125 12.375Z" fill="#204544"/>
<path d="M16.875 12.375C17.1857 12.375 17.4375 12.6268 17.4375 12.9375V15.1875C17.4375 16.4301 16.4301 17.4375 15.1875 17.4375H12.9375C12.6268 17.4375 12.375 17.1857 12.375 16.875C12.375 16.5643 12.6268 16.3125 12.9375 16.3125H15.1875C15.8088 16.3125 16.3125 15.8088 16.3125 15.1875V12.9375C16.3125 12.6268 16.5643 12.375 16.875 12.375Z" fill="#204544"/>
<path d="M5.34375 4.78125C5.65442 4.78125 5.90625 5.03308 5.90625 5.34375V6.46875C5.90625 6.77942 5.65442 7.03125 5.34375 7.03125C5.03308 7.03125 4.78125 6.77942 4.78125 6.46875V5.34375C4.78125 5.03308 5.03308 4.78125 5.34375 4.78125Z" fill="#204544"/>
<path d="M13.2188 5.34375C13.2188 5.03308 12.9669 4.78125 12.6562 4.78125C12.3456 4.78125 12.0938 5.03308 12.0938 5.34375V6.46875C12.0938 6.77942 12.3456 7.03125 12.6562 7.03125C12.9669 7.03125 13.2188 6.77942 13.2188 6.46875V5.34375Z" fill="#204544"/>
<path d="M9.00012 4.78125C9.31079 4.78125 9.56262 5.03308 9.56262 5.34375V7.95707C9.56262 8.80931 9.08112 9.5884 8.31885 9.96953L8.12667 10.0656C7.84883 10.2045 7.51093 10.0919 7.372 9.81405C7.23309 9.5362 7.3457 9.19831 7.62357 9.05937L7.81575 8.9633C8.19687 8.77272 8.43762 8.38319 8.43762 7.95707V5.34375C8.43762 5.03308 8.68946 4.78125 9.00012 4.78125Z" fill="#204544"/>
<path d="M6.27737 11.3898C6.0439 11.1848 5.68849 11.2079 5.48354 11.4414C5.27859 11.6749 5.30169 12.0303 5.53515 12.2352C7.45609 13.9216 10.5439 13.9216 12.4649 12.2352C12.6983 12.0303 12.7214 11.6749 12.5165 11.4414C12.3115 11.2079 11.9561 11.1848 11.7227 11.3898C10.2263 12.7034 7.7737 12.7034 6.27737 11.3898Z" fill="#204544"/>
</g>
<defs>
<clipPath id="clip0_1_13675">
<rect width="18" height="18" fill="white"/>
</clipPath>
</defs>
</svg>
