<svg width="24" height="24" viewBox="0 0 24 24" fill="none" xmlns="http://www.w3.org/2000/svg">
<path d="M11.7593 12.7275C13.0071 12.7276 14.0249 13.7453 14.0249 14.9932C14.0248 16.2405 13.0075 17.2578 11.7593 17.2578C10.5114 17.2578 9.49469 16.241 9.49463 14.9932C9.49463 13.7448 10.5118 12.7275 11.7593 12.7275Z" stroke="#204544" stroke-width="2.5"/>
<path fill-rule="evenodd" clip-rule="evenodd" d="M21.5074 13.5801C19.4588 9.26878 15.8156 6.69406 11.7624 6.69214H11.7586C7.70451 6.69406 4.06131 9.26878 2.01267 13.5801L1.60083 14.447L3.33555 15.2716L3.74739 14.4038C5.46963 10.7779 8.46483 8.6131 11.7605 8.61214C15.0552 8.6131 18.0504 10.7779 19.7727 14.4038L20.1855 15.2716L21.9192 14.447L21.5074 13.5801Z" fill="#204544"/>
</svg>
