<svg width="24" height="24" viewBox="0 0 24 24" fill="none" xmlns="http://www.w3.org/2000/svg">
<path fill-rule="evenodd" clip-rule="evenodd" d="M12.67 12.1C15.956 11.922 18.19 9.246 19.529 7.5L21.115 8.718C20.829 9.091 20.47 9.554 20.037 10.051L20.466 10.479L21.315 11.328L21.739 11.752L20.325 13.167L19.9 12.742L19.052 11.894L18.636 11.478C18.0785 11.98 17.4752 12.4286 16.834 12.818L17 13.106L17.562 14.08L17.843 14.567L16.111 15.567L15.831 15.08L15.268 14.106L15.014 13.666C14.4648 13.8521 13.8977 13.9807 13.322 14.05V16.038H11.322V14.05C10.6631 13.971 10.016 13.8143 9.394 13.583L9.092 14.106L8.529 15.08L8.248 15.567L6.516 14.567L6.797 14.08L7.36 13.106L7.6 12.689C7.02332 12.3224 6.47901 11.9072 5.973 11.448L5.608 11.813L4.812 12.609L4.415 13.007L3 11.592L3.398 11.195L4.194 10.399L4.577 10.016C4.157 9.533 3.808 9.083 3.529 8.718L5.115 7.501C6.455 9.246 8.688 11.921 11.974 12.101L12.67 12.1Z" fill="#204544"/>
</svg>
