<svg width="19" height="19" viewBox="0 0 19 19" fill="none" xmlns="http://www.w3.org/2000/svg">
<path d="M10 8.89844C10.457 8.89844 10.8438 9.28516 10.8438 9.74219C10.8438 13.2578 10.2812 15.9648 9.78906 17.6523C9.68359 18.0391 9.36719 18.25 8.98047 18.25C8.24219 18.25 8.06641 17.5469 8.20703 17.1602C8.875 14.6992 9.22656 12.2734 9.19141 9.74219C9.19141 9.28516 9.50781 8.89844 10 8.89844ZM9.96484 6.05078C11.9688 6.08594 13.6211 7.70312 13.6562 9.67188C13.6562 11.4297 13.5508 13.2578 13.2344 15.0156C13.2344 15.1562 12.9883 15.8242 12.2852 15.6836C11.8281 15.6133 11.5117 15.1562 11.582 14.7344C11.8633 13.082 11.9688 11.3242 11.9688 9.67188C11.9336 8.61719 11.0195 7.73828 9.92969 7.73828C8.69922 7.73828 7.99609 8.65234 8.03125 9.60156C8.03125 11.3945 7.89062 13.1875 7.50391 14.9453C7.39844 15.4023 6.94141 15.6836 6.51953 15.6133C6.0625 15.5078 5.74609 15.0156 5.85156 14.5938C6.20312 12.9766 6.34375 11.2891 6.34375 9.60156C6.30859 7.70312 7.78516 6.05078 9.96484 6.05078ZM6.0625 5.34766C6.41406 5.62891 6.48438 6.15625 6.16797 6.54297C5.53516 7.35156 5.18359 8.33594 5.18359 9.39062C5.18359 10.7969 5.07812 12.2383 4.83203 13.6445C4.83203 13.7852 4.58594 14.4531 3.88281 14.3125C3.42578 14.2422 3.10938 13.7852 3.21484 13.3281C3.42578 12.0625 3.53125 10.7266 3.53125 9.39062C3.49609 7.98438 3.98828 6.57812 4.86719 5.45312C5.18359 5.10156 5.71094 5.06641 6.0625 5.34766ZM9.89453 3.16797C13.4805 3.20312 16.3984 6.08594 16.4688 9.53125C16.4688 10.9375 16.3984 12.3438 16.2578 13.75C16.2227 14.0664 15.9062 14.5234 15.3086 14.4883C14.8516 14.418 14.5352 14.0312 14.5703 13.5742C14.7109 12.2031 14.7812 10.9023 14.7812 9.56641C14.7461 7 12.5312 4.89062 9.89453 4.85547C9.47266 4.82031 9.08594 4.89062 8.66406 4.96094C8.20703 5.06641 7.78516 4.78516 7.67969 4.36328C7.57422 3.87109 7.85547 3.41406 8.3125 3.34375C8.83984 3.20312 9.36719 3.13281 9.89453 3.16797ZM18.7891 7.42188C19 8.40625 19 9.17969 18.9648 9.95312C18.9648 10.4453 18.5781 10.7969 18.1211 10.7969C17.6641 10.7969 17.2773 10.4102 17.2773 9.95312C17.3125 9.10938 17.2773 8.54688 17.1367 7.77344C17.0312 7.31641 17.3477 6.89453 17.7695 6.78906C18.2266 6.68359 18.6836 7 18.7891 7.42188ZM17.3477 4.22266C17.6289 4.60938 17.5234 5.13672 17.1719 5.41797C16.7852 5.66406 16.2578 5.59375 15.9766 5.20703C14.5703 3.20312 12.2852 1.97266 9.85938 1.97266C7.85547 1.9375 6.02734 2.67578 4.65625 4.01172C3.35547 5.3125 2.65234 7.07031 2.65234 8.89844V9.74219C2.65234 10.1992 2.26562 10.5508 1.84375 10.5508C1.80859 10.5508 1.80859 10.5508 1.80859 10.5508C1.35156 10.5508 0.964844 10.1641 0.964844 9.70703V8.93359C0.929688 6.61328 1.80859 4.46875 3.42578 2.81641C5.11328 1.12891 7.39844 0.25 9.82422 0.25C12.8125 0.320312 15.625 1.79688 17.3477 4.22266Z" fill="#204544"/>
</svg>
