<svg width="42" height="42" viewBox="0 0 42 42" fill="none" xmlns="http://www.w3.org/2000/svg">
<rect x="0.5" y="0.5" width="41" height="41" rx="20.5" stroke="#204544" stroke-opacity="0.2"/>
<path fill-rule="evenodd" clip-rule="evenodd" d="M23.3876 22.1691C23.0091 22.3238 22.7673 22.9164 22.522 23.2191C22.3962 23.3742 22.2462 23.3984 22.0528 23.3207C20.6321 22.7547 19.5431 21.8066 18.7591 20.4992C18.6263 20.2965 18.6501 20.1363 18.8103 19.948C19.047 19.6691 19.3446 19.3523 19.4087 18.9766C19.5509 18.1453 18.4642 15.5668 17.029 16.7352C12.8993 20.1004 23.9181 29.0258 25.9067 24.1984C26.4692 22.8301 24.0149 21.9121 23.3876 22.1691ZM21.0001 29.2531C19.5396 29.2531 18.1024 28.8648 16.8442 28.1297C16.6423 28.0113 16.3982 27.9801 16.1724 28.0414L13.4384 28.7918L14.3907 26.6938C14.5204 26.4082 14.4872 26.0758 14.304 25.8219C13.2853 24.4098 12.7466 22.7426 12.7466 21C12.7466 16.4488 16.4489 12.7465 21.0001 12.7465C25.5513 12.7465 29.2532 16.4488 29.2532 21C29.2532 25.5508 25.5509 29.2531 21.0001 29.2531ZM21.0001 11C15.486 11 11.0001 15.4859 11.0001 21C11.0001 22.9398 11.5509 24.8027 12.5974 26.4195L11.0782 29.7652C10.938 30.0742 10.9892 30.4359 11.2087 30.6934C11.3774 30.8906 11.6216 31 11.8735 31C12.4368 31 15.5083 30.0348 16.2899 29.8203C17.7349 30.5934 19.3556 31 21.0001 31C26.5138 31 31.0001 26.5137 31.0001 21C31.0001 15.4859 26.5138 11 21.0001 11Z" fill="#204544"/>
</svg>
