<svg width="42" height="42" viewBox="0 0 42 42" fill="none" xmlns="http://www.w3.org/2000/svg">
<rect x="0.5" y="0.5" width="41" height="41" rx="20.5" stroke="#204544" stroke-opacity="0.2"/>
<g clip-path="url(#clip0_1_13674)">
<path d="M12.5625 14.8125C12.5625 13.5699 13.5699 12.5625 14.8125 12.5625H17.0625C17.3732 12.5625 17.625 12.8143 17.625 13.125C17.625 13.4357 17.3732 13.6875 17.0625 13.6875H14.8125C14.1912 13.6875 13.6875 14.1912 13.6875 14.8125V17.0625C13.6875 17.3732 13.4357 17.625 13.125 17.625C12.8143 17.625 12.5625 17.3732 12.5625 17.0625V14.8125Z" fill="#204544"/>
<path d="M24.375 13.125C24.375 12.8143 24.6268 12.5625 24.9375 12.5625H27.1875C28.4301 12.5625 29.4375 13.5699 29.4375 14.8125V17.0625C29.4375 17.3732 29.1857 17.625 28.875 17.625C28.5643 17.625 28.3125 17.3732 28.3125 17.0625V14.8125C28.3125 14.1912 27.8088 13.6875 27.1875 13.6875H24.9375C24.6268 13.6875 24.375 13.4357 24.375 13.125Z" fill="#204544"/>
<path d="M13.125 24.375C13.4357 24.375 13.6875 24.6268 13.6875 24.9375V27.1875C13.6875 27.8088 14.1912 28.3125 14.8125 28.3125H17.0625C17.3732 28.3125 17.625 28.5643 17.625 28.875C17.625 29.1857 17.3732 29.4375 17.0625 29.4375H14.8125C13.5699 29.4375 12.5625 28.4301 12.5625 27.1875V24.9375C12.5625 24.6268 12.8143 24.375 13.125 24.375Z" fill="#204544"/>
<path d="M28.875 24.375C29.1857 24.375 29.4375 24.6268 29.4375 24.9375V27.1875C29.4375 28.4301 28.4301 29.4375 27.1875 29.4375H24.9375C24.6268 29.4375 24.375 29.1857 24.375 28.875C24.375 28.5643 24.6268 28.3125 24.9375 28.3125H27.1875C27.8088 28.3125 28.3125 27.8088 28.3125 27.1875V24.9375C28.3125 24.6268 28.5643 24.375 28.875 24.375Z" fill="#204544"/>
<path d="M17.3438 16.7812C17.6544 16.7812 17.9062 17.0331 17.9062 17.3438V18.4688C17.9062 18.7794 17.6544 19.0312 17.3438 19.0312C17.0331 19.0312 16.7812 18.7794 16.7812 18.4688V17.3438C16.7812 17.0331 17.0331 16.7812 17.3438 16.7812Z" fill="#204544"/>
<path d="M25.2188 17.3438C25.2188 17.0331 24.9669 16.7812 24.6562 16.7812C24.3456 16.7812 24.0938 17.0331 24.0938 17.3438V18.4688C24.0938 18.7794 24.3456 19.0312 24.6562 19.0312C24.9669 19.0312 25.2188 18.7794 25.2188 18.4688V17.3438Z" fill="#204544"/>
<path d="M21.0001 16.7812C21.3108 16.7812 21.5626 17.0331 21.5626 17.3438V19.9571C21.5626 20.8093 21.0811 21.5884 20.3189 21.9695L20.1267 22.0656C19.8488 22.2045 19.5109 22.0919 19.372 21.8141C19.2331 21.5362 19.3457 21.1983 19.6236 21.0594L19.8158 20.9633C20.1969 20.7727 20.4376 20.3832 20.4376 19.9571V17.3438C20.4376 17.0331 20.6895 16.7812 21.0001 16.7812Z" fill="#204544"/>
<path d="M18.2774 23.3898C18.0439 23.1848 17.6885 23.2079 17.4835 23.4414C17.2786 23.6749 17.3017 24.0303 17.5352 24.2352C19.4561 25.9216 22.5439 25.9216 24.4649 24.2352C24.6983 24.0303 24.7214 23.6749 24.5165 23.4414C24.3115 23.2079 23.9561 23.1848 23.7227 23.3898C22.2263 24.7034 19.7737 24.7034 18.2774 23.3898Z" fill="#204544"/>
</g>
<defs>
<clipPath id="clip0_1_13674">
<rect width="18" height="18" fill="white" transform="translate(12 12)"/>
</clipPath>
</defs>
</svg>
