<svg width="42" height="42" viewBox="0 0 42 42" fill="none" xmlns="http://www.w3.org/2000/svg">
<rect x="0.5" y="0.5" width="41" height="41" rx="20.5" stroke="#204544" stroke-opacity="0.2"/>
<path d="M21.2625 12.0043C26.0625 12.1171 30 16.3624 30 21.3966V22.0353C30 23.9514 28.425 25.4917 26.55 25.4917C25.3125 25.4917 24.2625 24.853 23.625 23.9138C22.875 24.6652 21.825 25.1536 20.7 25.1536C18.375 25.1536 16.5 23.2375 16.5 20.9834C16.5 18.6917 18.375 16.7756 20.7 16.7756C21.6 16.7756 22.425 17.0762 23.1 17.6022C23.175 17.1889 23.55 16.8508 24 16.8508C24.4875 16.8508 24.9 17.2265 24.9 17.7149V22.1105C24.9 23.0121 25.6125 23.7635 26.55 23.7635C27.45 23.7635 28.2 23.0121 28.2 22.1105V21.3966C28.2 17.3016 25.05 13.9204 21.1875 13.8077C19.2 13.7325 17.4 14.4463 15.975 15.8364C14.55 17.1889 13.8 19.0674 13.8 21.0585C13.8 24.6276 16.425 27.7083 19.9125 28.2342C20.4 28.3094 20.7375 28.7602 20.6625 29.2486C20.5875 29.6994 20.2125 30 19.8 30C19.725 30 19.6875 30 19.65 30C15.2625 29.3613 12 25.4917 12 21.0585C12 18.579 12.975 16.2497 14.7375 14.5215C16.5 12.8309 18.825 11.9292 21.2625 12.0043ZM20.7 23.3878C22.0125 23.3878 23.1 22.3359 23.1 21.021C23.1 19.7436 22.0125 18.6541 20.7 18.6541C19.35 18.6541 18.3 19.706 18.3 21.021C18.3 22.3359 19.35 23.3878 20.7 23.3878Z" fill="#204544"/>
</svg>
