<svg width="16" height="16" viewBox="0 0 16 16" fill="none" xmlns="http://www.w3.org/2000/svg">
<path d="M16 6.25288H0V3.03448C0 2.88214 0.123531 2.75861 0.275874 2.75861H15.7241C15.8765 2.75861 16 2.88214 16 3.03448L16 6.25288Z" fill="#FAB446"/>
<path d="M15.7241 13.2414H0.275874C0.123531 13.2414 0 13.1178 0 12.9655V9.74713H16V12.9655C16 13.1179 15.8764 13.2414 15.7241 13.2414Z" fill="#73AF00"/>
<path d="M16 6.25281H0V9.74686H16V6.25281Z" fill="#F5F5F5"/>
<path d="M8.00008 9.48277C7.18246 9.48277 6.51733 8.81764 6.51733 8.00002C6.51733 7.1824 7.18246 6.51727 8.00008 6.51727C8.8177 6.51727 9.48283 7.1824 9.48283 8.00002C9.48283 8.81764 8.8177 9.48277 8.00008 9.48277ZM8.00008 6.79312C7.33452 6.79312 6.79318 7.33446 6.79318 8.00002C6.79318 8.66558 7.33452 9.20692 8.00008 9.20692C8.66564 9.20692 9.20699 8.66558 9.20699 8.00002C9.20699 7.33446 8.66564 6.79312 8.00008 6.79312Z" fill="#41479B"/>
<path d="M8.00012 8.1681C8.09296 8.1681 8.16822 8.09284 8.16822 8C8.16822 7.90717 8.09296 7.83191 8.00012 7.83191C7.90729 7.83191 7.83203 7.90717 7.83203 8C7.83203 8.09284 7.90729 8.1681 8.00012 8.1681Z" fill="#41479B"/>
<path d="M8.00008 8.02526L7.5729 8.06839L6.65527 8.02526V7.97483L7.5729 7.9317L8.00008 7.97483V8.02526Z" fill="#41479B"/>
<path d="M8 8.02526L8.42719 8.06839L9.34481 8.02526V7.97483L8.42719 7.9317L8 7.97483V8.02526Z" fill="#41479B"/>
<path d="M7.97477 8.00002L7.93164 7.57284L7.97477 6.65521H8.0252L8.06833 7.57284L8.0252 8.00002H7.97477Z" fill="#41479B"/>
<path d="M7.97477 8L7.93164 8.42719L7.97477 9.34481H8.0252L8.06833 8.42719L8.0252 8H7.97477Z" fill="#41479B"/>
<path d="M7.98219 8.01781L7.64962 7.74628L7.03125 7.06691L7.06691 7.03125L7.74628 7.64962L8.01781 7.98219L7.98219 8.01781Z" fill="#41479B"/>
<path d="M7.98218 8.0178L8.25371 8.35036L8.93308 8.96874L8.96874 8.93308L8.35036 8.25371L8.0178 7.98218L7.98218 8.0178Z" fill="#41479B"/>
<path d="M7.98218 7.98219L8.25371 7.64962L8.93308 7.03125L8.96874 7.06691L8.35036 7.74628L8.0178 8.01781L7.98218 7.98219Z" fill="#41479B"/>
<path d="M7.98219 7.98218L7.64962 8.25371L7.03125 8.93308L7.06691 8.96874L7.74628 8.35036L8.01781 8.0178L7.98219 7.98218Z" fill="#41479B"/>
<path d="M8.00979 8.02331L7.63161 8.22662L6.76736 8.53793L6.74805 8.49134L7.57933 8.10034L7.99048 7.97668L8.00979 8.02331Z" fill="#41479B"/>
<path d="M8.00979 8.02335L8.42095 7.89969L9.25223 7.50869L9.23291 7.4621L8.36867 7.77341L7.99048 7.97672L8.00979 8.02335Z" fill="#41479B"/>
<path d="M7.97678 8.00967L7.77347 7.63149L7.46216 6.76724L7.50875 6.74792L7.89975 7.5792L8.02341 7.99036L7.97678 8.00967Z" fill="#41479B"/>
<path d="M7.97681 8.00967L8.10046 8.42082L8.49146 9.2521L8.53806 9.23279L8.22674 8.36854L8.02343 7.99036L7.97681 8.00967Z" fill="#41479B"/>
<path d="M7.99048 8.02335L7.57933 7.89969L6.74805 7.50869L6.76736 7.4621L7.63161 7.77341L8.00979 7.97672L7.99048 8.02335Z" fill="#41479B"/>
<path d="M7.99048 8.02331L8.36867 8.22662L9.23291 8.53793L9.25223 8.49134L8.42095 8.10034L8.00979 7.97668L7.99048 8.02331Z" fill="#41479B"/>
<path d="M7.97681 7.99036L8.10046 7.5792L8.49146 6.74792L8.53806 6.76724L8.22674 7.63149L8.02343 8.00967L7.97681 7.99036Z" fill="#41479B"/>
<path d="M7.97678 7.99036L7.77347 8.36854L7.46216 9.23279L7.50875 9.2521L7.89975 8.42082L8.02341 8.00967L7.97678 7.99036Z" fill="#41479B"/>
<path d="M7.99994 8.22675C8.12517 8.22675 8.22669 8.12523 8.22669 8C8.22669 7.87477 8.12517 7.77325 7.99994 7.77325C7.87471 7.77325 7.77319 7.87477 7.77319 8C7.77319 8.12523 7.87471 8.22675 7.99994 8.22675Z" fill="#F5F5F5"/>
<path d="M7.99998 8.13601C8.07508 8.13601 8.13595 8.07514 8.13595 8.00004C8.13595 7.92495 8.07508 7.86407 7.99998 7.86407C7.92489 7.86407 7.86401 7.92495 7.86401 8.00004C7.86401 8.07514 7.92489 8.13601 7.99998 8.13601Z" fill="#41479B"/>
</svg>
