<svg width="624" height="513" viewBox="0 0 624 513" fill="none" xmlns="http://www.w3.org/2000/svg">
<path d="M347.001 35C347.001 54.3302 331.332 70 312.001 70C292.671 70 276.999 54.3302 276.999 35C276.999 15.6698 292.668 0 311.999 0C331.329 0 346.999 15.6698 346.999 35" fill="#204544"/>
<path d="M328.289 41.7414C328.289 43.89 327.889 45.8717 327.088 47.6896C326.287 49.5075 325.153 51.0716 323.688 52.381C322.223 53.6904 320.484 54.7154 318.472 55.4562C316.457 56.1998 314.24 56.5714 311.818 56.5714C309.552 56.5714 307.403 56.2386 305.372 55.5744C303.341 54.9101 301.542 53.9801 299.978 52.7882C298.417 51.5964 297.127 50.1913 296.11 48.5675C295.096 46.9464 294.451 45.1774 294.177 43.2638L305.49 39.7482C305.763 41.7383 306.408 43.3899 307.425 44.6994C308.442 46.0086 309.691 46.6651 311.175 46.6652C312.466 46.6652 313.518 46.1373 314.341 45.0822C315.161 44.027 315.572 42.6793 315.572 41.0392V36.6154H315.569L328.289 32.6603V41.7414ZM328.292 13.4308V27.3371H315.572V13.4308H328.292Z" fill="white"/>
<path d="M302.264 83.1934C303.051 83.1934 303.787 83.2851 304.469 83.4688C305.151 83.6524 305.764 83.9104 306.307 84.2432C306.849 84.5759 307.292 84.9735 307.633 85.4375C307.974 85.9013 308.197 86.4039 308.302 86.9463L304.261 87.8389C304.208 87.4371 303.988 87.1001 303.604 86.8281C303.219 86.5575 302.755 86.4209 302.213 86.4209C301.759 86.4209 301.385 86.5295 301.097 86.749C300.808 86.9671 300.663 87.2435 300.663 87.5762C300.681 88.0139 300.974 88.2887 301.543 88.4033C302.112 88.5165 302.798 88.6275 303.604 88.7324C304.251 88.8194 304.929 88.9379 305.637 89.0869C306.345 89.236 306.998 89.4586 307.593 89.7568C308.188 90.0551 308.678 90.4568 309.063 90.9648C309.449 91.4715 309.641 92.1288 309.641 92.9336C309.641 93.6682 309.465 94.3464 309.115 94.9678C308.766 95.5891 308.28 96.1219 307.658 96.5693C307.037 97.0152 306.299 97.3665 305.441 97.6191C304.584 97.8732 303.648 98 302.633 98L302.278 97.9951C301.467 97.9721 300.709 97.8691 300.005 97.6855C299.2 97.4757 298.491 97.1728 297.878 96.7793C297.265 96.3858 296.763 95.9176 296.369 95.375C295.976 94.8324 295.726 94.2374 295.621 93.5898L299.952 92.8027C300.005 93.3453 300.289 93.7869 300.806 94.1279C301.322 94.4689 301.956 94.6406 302.708 94.6406C303.303 94.6406 303.798 94.532 304.191 94.3125C304.585 94.0944 304.791 93.8096 304.809 93.459C304.809 93.2312 304.716 93.0392 304.532 92.8818C304.349 92.7244 304.104 92.5967 303.798 92.5C303.491 92.4034 303.15 92.3254 302.774 92.2646C302.398 92.2039 302.018 92.155 301.633 92.1191C301.021 92.0487 300.394 91.9401 299.756 91.791C299.118 91.6419 298.535 91.4193 298.011 91.1211C297.486 90.8229 297.057 90.4208 296.726 89.9141C296.393 89.4059 296.227 88.7676 296.227 87.9971C296.227 87.2971 296.376 86.6537 296.673 86.0684C296.97 85.4815 297.386 84.9743 297.92 84.5449C298.453 84.1171 299.092 83.7849 299.836 83.5488C300.58 83.3127 301.39 83.1934 302.264 83.1934ZM288.642 83.8301H293.708V97.375H288.642V94.7236C288.24 95.6679 287.666 96.4327 286.923 97.0195C286.18 97.6063 285.345 97.8993 284.417 97.8994C283.769 97.8994 283.165 97.7628 282.604 97.4922C282.044 97.2202 281.563 96.8481 281.16 96.376C280.757 95.9025 280.438 95.3352 280.202 94.6699C279.965 94.0044 279.848 93.2773 279.848 92.4902V85.8477L284.914 84.2715V91.335C284.914 91.9645 285.071 92.481 285.386 92.8828C285.702 93.2846 286.14 93.4863 286.699 93.4863C287.258 93.4863 287.723 93.2806 288.09 92.8691C288.457 92.4577 288.641 91.9204 288.641 91.2549V83.8262L288.642 83.8301ZM362.03 97.3721H359.248V95.2715C358.687 96.0945 357.997 96.7372 357.174 97.2012C356.351 97.6651 355.415 97.8965 354.365 97.8965C353.421 97.8965 352.549 97.7174 351.754 97.3584C350.957 96.9994 350.271 96.5005 349.694 95.8613C349.117 95.222 348.665 94.4649 348.342 93.5908C348.019 92.7169 347.856 91.7533 347.856 90.7041L347.865 90.3145C347.901 89.4152 348.06 88.5824 348.344 87.8164C348.667 86.9412 349.118 86.1847 349.695 85.5469C350.272 84.9075 350.961 84.4084 351.756 84.0508C352.552 83.6919 353.422 83.5127 354.366 83.5127C355.381 83.5127 356.296 83.7366 357.109 84.1826C357.922 84.6286 358.61 85.2636 359.169 86.085V78H362.03V97.3721ZM316.517 83.8262H322.737V87.5791H316.517L316.543 92.4619C316.543 92.9341 316.653 93.3234 316.872 93.6299C317.09 93.9363 317.373 94.0898 317.724 94.0898C318.125 94.0898 318.484 93.8629 318.799 93.4072C319.115 92.9516 319.316 92.358 319.404 91.6221V91.6211L323.604 92.75C323.517 93.5026 323.288 94.199 322.921 94.8369C322.554 95.4762 322.085 96.0189 321.517 96.4648C320.946 96.9108 320.296 97.262 319.561 97.5146C318.826 97.7687 318.065 97.8955 317.226 97.8955C316.386 97.8955 315.615 97.7643 314.915 97.502C314.216 97.2396 313.611 96.8801 313.104 96.4258C312.598 95.9702 312.199 95.4293 311.91 94.7998C311.623 94.1688 311.479 93.4781 311.479 92.7256V81.3252L316.517 79.7578V83.8262ZM338.485 83.5107C339.359 83.5107 340.197 83.6345 340.939 83.8789C341.683 84.1233 342.317 84.4638 342.842 84.9014C343.367 85.3391 343.778 85.8644 344.075 86.4775C344.372 87.0892 344.521 87.7547 344.521 88.4727V94.7197C344.522 95.2442 344.732 95.5068 345.151 95.5068C345.519 95.5067 345.843 95.2783 346.122 94.8242L347.276 96.5049C346.962 96.9067 346.519 97.2396 345.95 97.502C345.381 97.7642 344.818 97.8955 344.258 97.8955C343.523 97.8955 342.924 97.677 342.46 97.2393C341.996 96.8015 341.755 96.2505 341.737 95.585L341.711 95.4014C341.239 96.1719 340.587 96.7796 339.756 97.2256C338.925 97.6715 337.95 97.8955 336.83 97.8955C336.095 97.8955 335.412 97.7944 334.782 97.5928C334.153 97.3912 333.614 97.1065 333.168 96.7393C332.722 96.3721 332.372 95.9387 332.119 95.4404C331.865 94.942 331.737 94.3949 331.737 93.7998C331.737 92.6979 332.188 91.7519 333.09 90.9648C333.992 90.1779 335.369 89.6874 337.224 89.4941L340.583 89.0742C340.932 89.0397 341.213 88.9297 341.423 88.7461C341.633 88.5625 341.737 88.3043 341.737 87.9717C341.737 87.6914 341.651 87.424 341.476 87.1699C341.3 86.9159 341.059 86.6983 340.753 86.5146C340.446 86.331 340.097 86.186 339.703 86.0811C339.31 85.9762 338.886 85.9238 338.431 85.9238L338.231 85.9297C337.766 85.9469 337.335 86.0244 336.938 86.1621C336.482 86.3195 336.088 86.5253 335.757 86.7793C335.424 87.0334 335.158 87.3224 334.956 87.6455C334.755 87.9685 334.637 88.2972 334.602 88.6299L332.029 87.6855C332.082 87.1429 332.283 86.6225 332.633 86.124C332.982 85.6255 333.446 85.1831 334.024 84.7979C334.603 84.4127 335.271 84.1023 336.032 83.8662C336.793 83.6302 337.611 83.5108 338.485 83.5107ZM277.247 91.252C277.247 92.2144 277.068 93.1027 276.709 93.916C276.35 94.7292 275.841 95.4302 275.186 96.0156C274.53 96.6025 273.751 97.0617 272.851 97.3945C271.949 97.7286 270.956 97.8935 269.871 97.8936C268.856 97.8936 267.892 97.7451 266.983 97.4482C266.073 97.1514 265.268 96.7355 264.568 96.2012C263.868 95.6668 263.29 95.0368 262.836 94.3105C262.382 93.5842 262.093 92.793 261.97 91.9355L267.036 90.3613C267.159 91.2533 267.448 91.9922 267.903 92.5791C268.358 93.1645 268.918 93.4589 269.582 93.459C270.161 93.459 270.633 93.2236 271 92.75C271.367 92.2792 271.552 91.6749 271.552 90.9404V88.2891L277.247 86.5176V91.252ZM327.673 92.3564C328.512 92.3565 329.2 92.6107 329.732 93.1172C330.265 93.624 330.533 94.2819 330.533 95.0869C330.533 95.8918 330.267 96.552 329.732 97.0684C329.198 97.5846 328.512 97.8427 327.673 97.8428C326.833 97.8428 326.145 97.5847 325.612 97.0684C325.078 96.552 324.812 95.8918 324.812 95.0869C324.812 94.2819 325.078 93.6253 325.612 93.1172C326.147 92.6092 326.833 92.3564 327.673 92.3564ZM337.464 91.5186C336.467 91.6235 335.735 91.8593 335.272 92.2266C334.809 92.5938 334.576 93.0319 334.576 93.54C334.576 94.1172 334.857 94.5951 335.416 94.9707C335.977 95.3462 336.701 95.5351 337.595 95.5352L337.817 95.5303C338.923 95.4903 339.832 95.1502 340.547 94.5107C341.308 93.8286 341.689 92.9531 341.689 91.8857V91.0459L337.464 91.5186ZM354.996 86.0557C354.383 86.0557 353.794 86.1737 353.277 86.4111C352.761 86.6472 352.311 86.9758 351.926 87.3955C351.541 87.8153 351.243 88.31 351.033 88.8789C350.823 89.4476 350.719 90.0548 350.719 90.7021C350.719 91.3497 350.827 91.9839 351.047 92.5527C351.265 93.1216 351.564 93.6119 351.939 94.0234C352.315 94.4349 352.766 94.758 353.291 94.9941C353.816 95.2303 354.385 95.3486 354.998 95.3486L355.224 95.3438C355.75 95.3178 356.243 95.2008 356.703 94.9941C357.228 94.7581 357.683 94.4294 358.068 94.0098C358.454 93.59 358.751 93.0953 358.961 92.5264C359.171 91.9576 359.275 91.3496 359.275 90.7021C359.275 90.0549 359.171 89.4476 358.961 88.8789C358.751 88.31 358.454 87.8153 358.068 87.3955C357.683 86.9758 357.229 86.6472 356.703 86.4111C356.177 86.175 355.609 86.0557 354.996 86.0557ZM277.247 84.8047H271.552V78.5771H277.247V84.8047Z" fill="#204544"/>
<path d="M313.909 141.523C314.567 141.523 315.159 141.651 315.683 141.907C316.208 142.151 316.64 142.499 316.982 142.95C317.093 143.091 317.189 143.242 317.275 143.399V141.706H318.208V149.884C318.207 150.713 318.018 151.432 317.64 152.042C317.274 152.652 316.756 153.127 316.085 153.469C315.415 153.822 314.634 154 313.744 154C312.914 154 312.164 153.841 311.494 153.524C310.823 153.22 310.287 152.774 309.884 152.188L310.469 151.604C310.799 152.067 311.244 152.433 311.805 152.701C312.366 152.982 313.018 153.121 313.762 153.121C314.848 153.121 315.702 152.829 316.324 152.243C316.958 151.658 317.275 150.871 317.275 149.884V148.262C317.184 148.432 317.081 148.595 316.963 148.749C316.622 149.2 316.189 149.548 315.665 149.792C315.152 150.036 314.573 150.158 313.927 150.158C313.122 150.158 312.396 149.975 311.75 149.609C311.115 149.231 310.615 148.719 310.25 148.072C309.884 147.414 309.701 146.67 309.701 145.841C309.701 145.024 309.884 144.292 310.25 143.646C310.615 142.987 311.115 142.468 311.75 142.09C312.384 141.712 313.104 141.523 313.909 141.523ZM347.011 141.523C347.816 141.523 348.536 141.718 349.17 142.108C349.805 142.499 350.305 143.029 350.67 143.7C351.036 144.371 351.219 145.127 351.219 145.969C351.219 146.81 351.036 147.567 350.67 148.237C350.305 148.896 349.805 149.42 349.17 149.811C348.536 150.201 347.816 150.396 347.011 150.396C346.377 150.395 345.792 150.268 345.255 150.012C344.731 149.756 344.292 149.401 343.938 148.95C343.821 148.796 343.718 148.634 343.627 148.464V153.816H342.694V141.706H343.627V143.428C343.718 143.259 343.821 143.1 343.938 142.95C344.304 142.487 344.749 142.133 345.274 141.889C345.81 141.645 346.39 141.523 347.011 141.523ZM215.021 141.523C215.655 141.523 216.223 141.633 216.723 141.853C217.235 142.072 217.644 142.396 217.949 142.822L217.345 143.444C217.101 143.103 216.772 142.84 216.357 142.657C215.942 142.462 215.479 142.364 214.966 142.364C214.357 142.364 213.894 142.493 213.577 142.749C213.26 143.005 213.1 143.334 213.1 143.736C213.1 144.114 213.216 144.413 213.448 144.633C213.679 144.852 213.978 145.024 214.344 145.146C214.722 145.267 215.113 145.39 215.515 145.512C215.93 145.621 216.32 145.767 216.686 145.95C217.064 146.133 217.369 146.383 217.601 146.7C217.833 147.017 217.949 147.45 217.949 147.999C217.949 148.731 217.68 149.317 217.143 149.756C216.607 150.182 215.887 150.396 214.985 150.396C214.521 150.396 214.082 150.335 213.667 150.213C213.265 150.079 212.893 149.896 212.551 149.664C212.222 149.432 211.929 149.164 211.673 148.859L212.295 148.237C212.637 148.689 213.034 149.024 213.485 149.243C213.948 149.45 214.455 149.555 215.003 149.555C215.637 149.555 216.138 149.426 216.503 149.17C216.869 148.914 217.052 148.554 217.052 148.091C217.052 147.676 216.936 147.353 216.705 147.121C216.473 146.877 216.168 146.688 215.79 146.554C215.424 146.42 215.033 146.292 214.619 146.17C214.216 146.048 213.826 145.901 213.448 145.73C213.082 145.56 212.783 145.322 212.551 145.018C212.32 144.713 212.205 144.304 212.205 143.792C212.205 143.341 212.32 142.944 212.551 142.603C212.783 142.261 213.106 141.998 213.521 141.815C213.948 141.62 214.448 141.523 215.021 141.523ZM236.5 141.523C237.122 141.523 237.708 141.639 238.256 141.871C238.805 142.103 239.274 142.432 239.665 142.858L239.042 143.48C238.725 143.139 238.348 142.877 237.909 142.694C237.482 142.499 237.012 142.401 236.5 142.401C235.841 142.401 235.249 142.56 234.725 142.877C234.213 143.182 233.804 143.597 233.5 144.121C233.195 144.645 233.043 145.249 233.042 145.932C233.042 146.615 233.195 147.225 233.5 147.762C233.804 148.298 234.213 148.725 234.725 149.042C235.249 149.359 235.841 149.518 236.5 149.518C237.012 149.518 237.488 149.426 237.927 149.243C238.378 149.048 238.763 148.774 239.08 148.42L239.702 149.042C239.299 149.469 238.817 149.804 238.256 150.048C237.708 150.28 237.122 150.396 236.5 150.396C235.67 150.395 234.92 150.201 234.25 149.811C233.591 149.408 233.067 148.871 232.676 148.2C232.286 147.517 232.091 146.761 232.091 145.932C232.091 145.103 232.286 144.359 232.676 143.7C233.067 143.029 233.591 142.499 234.25 142.108C234.92 141.718 235.67 141.523 236.5 141.523ZM244.94 141.523C245.72 141.523 246.403 141.7 246.989 142.054C247.586 142.395 248.05 142.871 248.379 143.48C248.721 144.09 248.891 144.791 248.891 145.584C248.891 145.657 248.885 145.755 248.873 145.877C248.86 145.987 248.842 146.127 248.818 146.298H241.537C241.581 146.864 241.72 147.371 241.958 147.816C242.262 148.353 242.684 148.773 243.22 149.078C243.757 149.371 244.385 149.518 245.104 149.518C245.653 149.518 246.159 149.42 246.623 149.225C247.098 149.017 247.495 148.713 247.812 148.311L248.434 148.914C248.044 149.378 247.549 149.743 246.952 150.012C246.366 150.268 245.732 150.396 245.049 150.396C244.208 150.395 243.446 150.201 242.763 149.811C242.092 149.42 241.562 148.889 241.171 148.219C240.781 147.548 240.585 146.792 240.585 145.95C240.585 145.109 240.775 144.359 241.153 143.7C241.531 143.029 242.049 142.499 242.708 142.108C243.378 141.718 244.123 141.523 244.94 141.523ZM258.215 141.523C258.837 141.523 259.423 141.639 259.972 141.871C260.521 142.103 260.99 142.432 261.38 142.858L260.758 143.48C260.441 143.139 260.063 142.877 259.625 142.694C259.198 142.499 258.728 142.401 258.215 142.401C257.557 142.401 256.965 142.56 256.441 142.877C255.929 143.182 255.52 143.597 255.215 144.121C254.911 144.645 254.758 145.249 254.758 145.932C254.758 146.615 254.91 147.225 255.215 147.762C255.52 148.298 255.929 148.725 256.441 149.042C256.965 149.359 257.557 149.518 258.215 149.518C258.728 149.518 259.204 149.426 259.643 149.243C260.094 149.048 260.478 148.774 260.795 148.42L261.417 149.042C261.015 149.469 260.533 149.804 259.972 150.048C259.423 150.28 258.837 150.396 258.215 150.396C257.386 150.395 256.636 150.201 255.965 149.811C255.307 149.408 254.782 148.871 254.392 148.2C254.002 147.517 253.807 146.761 253.807 145.932C253.807 145.103 254.002 144.359 254.392 143.7C254.782 143.029 255.307 142.499 255.965 142.108C256.636 141.718 257.386 141.523 258.215 141.523ZM266.71 141.523C267.528 141.523 268.266 141.718 268.924 142.108C269.595 142.499 270.126 143.029 270.516 143.7C270.906 144.359 271.101 145.103 271.101 145.932C271.101 146.773 270.906 147.529 270.516 148.2C270.126 148.871 269.595 149.408 268.924 149.811C268.266 150.201 267.528 150.396 266.71 150.396C265.881 150.395 265.131 150.201 264.46 149.811C263.802 149.408 263.277 148.871 262.887 148.2C262.497 147.517 262.302 146.761 262.302 145.932C262.302 145.103 262.497 144.359 262.887 143.7C263.277 143.029 263.802 142.499 264.46 142.108C265.131 141.718 265.881 141.524 266.71 141.523ZM273.668 146.627C273.668 147.2 273.772 147.707 273.979 148.146C274.198 148.572 274.504 148.907 274.894 149.151C275.284 149.395 275.742 149.518 276.266 149.518C277.047 149.518 277.669 149.256 278.132 148.731C278.608 148.195 278.845 147.493 278.845 146.627V141.706H279.779V146.664C279.779 147.395 279.626 148.042 279.322 148.603C279.029 149.163 278.614 149.603 278.078 149.92C277.553 150.237 276.949 150.396 276.266 150.396C275.583 150.395 274.974 150.237 274.437 149.92C273.9 149.603 273.479 149.164 273.174 148.603C272.882 148.042 272.736 147.396 272.736 146.664V141.706H273.668V146.627ZM363.33 141.523C364.11 141.523 364.793 141.7 365.378 142.054C365.976 142.395 366.44 142.871 366.769 143.48C367.11 144.09 367.281 144.791 367.281 145.584C367.281 145.657 367.274 145.755 367.262 145.877C367.25 145.987 367.232 146.127 367.208 146.298H359.926C359.971 146.864 360.109 147.371 360.347 147.816C360.652 148.353 361.073 148.773 361.61 149.078C362.146 149.371 362.774 149.518 363.494 149.518C364.042 149.518 364.549 149.42 365.012 149.225C365.488 149.017 365.885 148.713 366.202 148.311L366.824 148.914C366.433 149.378 365.939 149.743 365.341 150.012C364.756 150.268 364.122 150.396 363.439 150.396C362.598 150.395 361.836 150.201 361.153 149.811C360.482 149.42 359.951 148.889 359.561 148.219C359.171 147.548 358.975 146.792 358.975 145.95C358.975 145.109 359.164 144.359 359.542 143.7C359.921 143.029 360.439 142.499 361.097 142.108C361.768 141.718 362.512 141.523 363.33 141.523ZM371.617 141.523C372.251 141.523 372.818 141.633 373.318 141.853C373.83 142.072 374.239 142.395 374.543 142.822L373.94 143.444C373.696 143.103 373.367 142.84 372.953 142.657C372.538 142.462 372.074 142.364 371.562 142.364C370.952 142.364 370.488 142.493 370.171 142.749C369.855 143.005 369.696 143.334 369.696 143.736C369.696 144.114 369.812 144.413 370.043 144.633C370.275 144.852 370.574 145.024 370.94 145.146C371.318 145.267 371.708 145.39 372.111 145.512C372.525 145.621 372.916 145.767 373.282 145.95C373.66 146.133 373.965 146.383 374.197 146.7C374.428 147.017 374.543 147.45 374.543 147.999C374.543 148.731 374.275 149.317 373.739 149.756C373.202 150.183 372.483 150.395 371.581 150.396C371.117 150.396 370.678 150.335 370.263 150.213C369.861 150.079 369.488 149.896 369.147 149.664C368.818 149.432 368.525 149.164 368.269 148.859L368.891 148.237C369.233 148.688 369.629 149.024 370.081 149.243C370.544 149.45 371.05 149.555 371.598 149.555C372.232 149.555 372.733 149.426 373.099 149.17C373.465 148.914 373.648 148.554 373.648 148.091C373.648 147.676 373.532 147.353 373.3 147.121C373.069 146.877 372.763 146.688 372.385 146.554C372.019 146.42 371.629 146.292 371.214 146.17C370.812 146.048 370.422 145.901 370.043 145.73C369.678 145.56 369.379 145.322 369.147 145.018C368.915 144.713 368.799 144.304 368.799 143.792C368.799 143.341 368.915 142.944 369.147 142.603C369.379 142.261 369.702 141.998 370.117 141.815C370.543 141.62 371.044 141.523 371.617 141.523ZM378.933 141.523C379.567 141.523 380.134 141.633 380.634 141.853C381.146 142.072 381.555 142.395 381.86 142.822L381.256 143.444C381.012 143.103 380.683 142.84 380.268 142.657C379.853 142.462 379.39 142.364 378.877 142.364C378.268 142.364 377.805 142.493 377.488 142.749C377.171 143.005 377.012 143.334 377.012 143.736C377.012 144.114 377.128 144.413 377.36 144.633C377.592 144.852 377.89 145.024 378.256 145.146C378.634 145.267 379.024 145.39 379.426 145.512C379.841 145.621 380.231 145.767 380.597 145.95C380.975 146.133 381.281 146.383 381.512 146.7C381.744 147.017 381.86 147.45 381.86 147.999C381.86 148.731 381.592 149.317 381.055 149.756C380.519 150.183 379.798 150.396 378.896 150.396C378.433 150.395 377.993 150.335 377.579 150.213C377.176 150.079 376.805 149.896 376.463 149.664C376.134 149.432 375.841 149.164 375.585 148.859L376.207 148.237C376.548 148.689 376.945 149.024 377.396 149.243C377.859 149.45 378.366 149.555 378.915 149.555C379.549 149.555 380.049 149.426 380.415 149.17C380.78 148.914 380.963 148.554 380.963 148.091C380.963 147.676 380.847 147.353 380.616 147.121C380.384 146.877 380.079 146.688 379.701 146.554C379.335 146.42 378.945 146.292 378.531 146.17C378.128 146.048 377.738 145.901 377.36 145.73C376.994 145.56 376.695 145.322 376.463 145.018C376.232 144.713 376.116 144.304 376.116 143.792C376.116 143.341 376.232 142.944 376.463 142.603C376.695 142.261 377.018 141.998 377.433 141.815C377.86 141.62 378.36 141.523 378.933 141.523ZM390.879 141.523C391.696 141.523 392.435 141.718 393.093 142.108C393.764 142.499 394.295 143.029 394.685 143.7C395.075 144.359 395.27 145.103 395.27 145.932C395.27 146.773 395.075 147.529 394.685 148.2C394.295 148.871 393.764 149.408 393.093 149.811C392.435 150.201 391.696 150.396 390.879 150.396C390.05 150.395 389.3 150.201 388.629 149.811C387.971 149.408 387.446 148.871 387.056 148.2C386.666 147.517 386.471 146.761 386.471 145.932C386.471 145.103 386.666 144.359 387.056 143.7C387.446 143.029 387.971 142.499 388.629 142.108C389.3 141.718 390.05 141.523 390.879 141.523ZM409.216 141.523C409.85 141.523 410.418 141.633 410.917 141.853C411.43 142.072 411.838 142.395 412.143 142.822L411.54 143.444C411.296 143.103 410.966 142.84 410.551 142.657C410.137 142.462 409.673 142.364 409.161 142.364C408.551 142.364 408.088 142.493 407.771 142.749C407.454 143.005 407.296 143.334 407.295 143.736C407.295 144.114 407.411 144.413 407.643 144.633C407.875 144.852 408.173 145.024 408.539 145.146C408.917 145.267 409.307 145.39 409.709 145.512C410.124 145.621 410.515 145.767 410.88 145.95C411.258 146.133 411.564 146.383 411.795 146.7C412.027 147.017 412.143 147.45 412.143 147.999C412.143 148.731 411.875 149.317 411.338 149.756C410.802 150.183 410.082 150.396 409.179 150.396C408.716 150.396 408.276 150.335 407.862 150.213C407.46 150.079 407.088 149.896 406.747 149.664C406.417 149.432 406.124 149.164 405.868 148.859L406.49 148.237C406.831 148.689 407.228 149.024 407.679 149.243C408.143 149.45 408.649 149.555 409.198 149.555C409.832 149.555 410.332 149.426 410.698 149.17C411.064 148.914 411.247 148.554 411.247 148.091C411.247 147.676 411.131 147.353 410.899 147.121C410.667 146.877 410.362 146.688 409.984 146.554C409.618 146.42 409.227 146.292 408.813 146.17C408.411 146.048 408.021 145.901 407.643 145.73C407.277 145.56 406.978 145.322 406.747 145.018C406.515 144.713 406.399 144.304 406.399 143.792C406.399 143.341 406.515 142.944 406.747 142.603C406.978 142.261 407.301 141.998 407.715 141.815C408.142 141.62 408.643 141.523 409.216 141.523ZM220.691 150.213H219.776V141.706H220.691V150.213ZM227.06 141.523C227.731 141.523 228.316 141.682 228.816 141.999C229.328 142.304 229.725 142.724 230.005 143.261C230.286 143.797 230.426 144.395 230.426 145.054V150.213H229.511V145.164C229.511 144.335 229.268 143.664 228.78 143.151C228.292 142.639 227.645 142.383 226.84 142.383C226.292 142.383 225.804 142.505 225.377 142.749C224.963 142.981 224.633 143.304 224.389 143.719C224.158 144.133 224.042 144.615 224.042 145.164V150.213H223.109V141.706H224.042V143.141C224.345 142.642 224.753 142.249 225.267 141.962C225.791 141.669 226.389 141.523 227.06 141.523ZM285.901 141.523C286.572 141.523 287.158 141.682 287.658 141.999C288.17 142.304 288.566 142.724 288.846 143.261C289.127 143.797 289.267 144.395 289.267 145.054V150.213H288.353V145.164C288.353 144.335 288.108 143.664 287.621 143.151C287.133 142.639 286.487 142.383 285.682 142.383C285.133 142.383 284.645 142.505 284.218 142.749C283.804 142.981 283.474 143.304 283.23 143.719C282.998 144.133 282.883 144.615 282.883 145.164V150.213H281.95V141.706H282.883V143.141C283.186 142.642 283.595 142.249 284.109 141.962C284.633 141.669 285.23 141.524 285.901 141.523ZM293.642 141.706H295.837V142.529H293.642V150.213H292.709V142.529H290.514V141.706H292.709V138.103H293.642V141.706ZM298.284 150.213H297.369V141.706H298.284V150.213ZM304.652 141.523C305.322 141.524 305.908 141.682 306.408 141.999C306.92 142.304 307.317 142.724 307.597 143.261C307.878 143.797 308.017 144.395 308.017 145.054V150.213H307.103V145.164C307.103 144.335 306.858 143.664 306.371 143.151C305.883 142.639 305.237 142.383 304.432 142.383C303.883 142.383 303.395 142.505 302.968 142.749C302.554 142.981 302.225 143.304 301.981 143.719C301.749 144.133 301.633 144.615 301.633 145.164V150.213H300.7V141.706H301.633V143.141C301.936 142.642 302.345 142.249 302.859 141.962C303.383 141.669 303.981 141.523 304.652 141.523ZM325.225 150.213H324.31V141.706H325.225V150.213ZM337.301 141.523C337.911 141.523 338.455 141.657 338.93 141.926C339.406 142.194 339.784 142.578 340.064 143.078C340.357 143.566 340.503 144.139 340.503 144.798V150.213H339.57V144.926C339.57 144.157 339.338 143.542 338.875 143.078C338.423 142.615 337.844 142.383 337.137 142.383C336.662 142.383 336.222 142.487 335.82 142.694C335.43 142.902 335.119 143.194 334.887 143.572C334.655 143.95 334.54 144.39 334.54 144.89V150.213H333.606V144.926C333.606 144.157 333.374 143.542 332.911 143.078C332.459 142.615 331.88 142.383 331.173 142.383C330.698 142.383 330.265 142.487 329.875 142.694C329.484 142.902 329.167 143.194 328.923 143.572C328.692 143.95 328.576 144.39 328.576 144.89V150.213H327.642V141.706H328.576V142.974C328.862 142.528 329.233 142.178 329.691 141.926C330.191 141.657 330.746 141.523 331.356 141.523C331.966 141.523 332.508 141.658 332.984 141.926C333.459 142.194 333.838 142.572 334.119 143.06C334.175 143.157 334.223 143.26 334.268 143.364C334.316 143.259 334.369 143.157 334.429 143.06C334.734 142.572 335.137 142.194 335.637 141.926C336.137 141.658 336.692 141.523 337.301 141.523ZM356.522 141.523C356.937 141.523 357.322 141.597 357.675 141.743C358.041 141.89 358.376 142.127 358.681 142.456L358.059 143.115C357.827 142.859 357.577 142.676 357.309 142.566C357.041 142.457 356.724 142.401 356.358 142.401C355.663 142.401 355.096 142.64 354.657 143.115C354.218 143.579 353.998 144.249 353.998 145.127V150.213H353.065V141.706H353.998V142.942C354.102 142.758 354.224 142.59 354.364 142.438C354.912 141.828 355.632 141.524 356.522 141.523ZM384.603 150.213H383.688V141.706H384.603V150.213ZM401.057 141.523C401.728 141.523 402.314 141.682 402.814 141.999C403.326 142.304 403.722 142.724 404.002 143.261C404.283 143.797 404.423 144.395 404.423 145.054V150.213H403.508V145.164C403.508 144.335 403.265 143.664 402.777 143.151C402.289 142.639 401.642 142.383 400.837 142.383C400.289 142.383 399.801 142.505 399.375 142.749C398.96 142.981 398.63 143.304 398.386 143.719C398.155 144.133 398.039 144.615 398.039 145.164V150.213H397.106V141.706H398.039V143.141C398.342 142.642 398.75 142.249 399.264 141.962C399.789 141.669 400.386 141.523 401.057 141.523ZM266.71 142.401C266.052 142.401 265.46 142.56 264.936 142.877C264.424 143.182 264.015 143.597 263.71 144.121C263.406 144.645 263.253 145.249 263.253 145.932C263.253 146.615 263.406 147.225 263.71 147.762C264.015 148.298 264.424 148.725 264.936 149.042C265.46 149.359 266.052 149.518 266.71 149.518C267.357 149.518 267.937 149.359 268.449 149.042C268.973 148.725 269.382 148.298 269.674 147.762C269.979 147.213 270.131 146.597 270.131 145.914C270.131 145.243 269.979 144.646 269.674 144.121C269.382 143.597 268.973 143.182 268.449 142.877C267.937 142.56 267.357 142.401 266.71 142.401ZM346.902 142.401C346.243 142.401 345.664 142.553 345.164 142.858C344.676 143.151 344.292 143.566 344.011 144.103C343.731 144.639 343.59 145.261 343.59 145.969C343.59 146.664 343.724 147.28 343.993 147.816C344.273 148.341 344.657 148.756 345.145 149.061C345.645 149.365 346.213 149.518 346.847 149.518C347.518 149.518 348.109 149.365 348.622 149.061C349.134 148.756 349.536 148.334 349.829 147.798C350.121 147.261 350.268 146.645 350.268 145.95C350.268 145.255 350.121 144.639 349.829 144.103C349.536 143.566 349.134 143.151 348.622 142.858C348.122 142.554 347.548 142.401 346.902 142.401ZM390.879 142.401C390.221 142.401 389.629 142.56 389.105 142.877C388.593 143.182 388.184 143.597 387.879 144.121C387.575 144.645 387.422 145.249 387.422 145.932C387.422 146.615 387.574 147.225 387.879 147.762C388.184 148.298 388.593 148.725 389.105 149.042C389.629 149.359 390.221 149.518 390.879 149.518C391.526 149.518 392.105 149.359 392.618 149.042C393.142 148.725 393.551 148.298 393.843 147.762C394.148 147.213 394.3 146.597 394.3 145.914C394.3 145.243 394.148 144.646 393.843 144.121C393.551 143.597 393.142 143.182 392.618 142.877C392.105 142.56 391.526 142.401 390.879 142.401ZM314.055 142.401C313.397 142.401 312.811 142.548 312.298 142.841C311.786 143.134 311.384 143.536 311.091 144.048C310.799 144.56 310.652 145.152 310.652 145.822C310.652 146.493 310.799 147.091 311.091 147.615C311.384 148.14 311.786 148.555 312.298 148.859C312.823 149.152 313.421 149.298 314.091 149.298C314.725 149.298 315.287 149.157 315.775 148.877C316.275 148.584 316.659 148.182 316.927 147.67C317.195 147.146 317.33 146.536 317.33 145.841C317.33 145.158 317.189 144.56 316.909 144.048C316.64 143.536 316.263 143.134 315.775 142.841C315.287 142.548 314.714 142.401 314.055 142.401ZM244.921 142.383C244.251 142.383 243.659 142.536 243.147 142.841C242.635 143.134 242.233 143.542 241.94 144.066C241.715 144.487 241.581 144.963 241.537 145.493H247.979C247.97 144.928 247.859 144.429 247.647 143.993C247.403 143.481 247.05 143.084 246.586 142.804C246.123 142.523 245.568 142.383 244.921 142.383ZM363.311 142.383C362.64 142.383 362.049 142.536 361.537 142.841C361.024 143.134 360.622 143.542 360.33 144.066C360.105 144.487 359.971 144.963 359.926 145.493H366.369C366.36 144.928 366.249 144.429 366.037 143.993C365.793 143.481 365.439 143.084 364.976 142.804C364.513 142.523 363.957 142.383 363.311 142.383ZM220.234 138.23C220.441 138.231 220.618 138.304 220.764 138.45C220.91 138.584 220.984 138.755 220.984 138.962C220.984 139.169 220.91 139.352 220.764 139.511C220.618 139.657 220.441 139.73 220.234 139.73C220.027 139.73 219.849 139.657 219.703 139.511C219.569 139.352 219.501 139.169 219.501 138.962C219.501 138.755 219.569 138.584 219.703 138.45C219.849 138.304 220.027 138.23 220.234 138.23ZM297.826 138.23C298.033 138.23 298.211 138.304 298.357 138.45C298.503 138.584 298.576 138.755 298.576 138.962C298.576 139.169 298.503 139.352 298.357 139.511C298.211 139.657 298.033 139.73 297.826 139.73C297.619 139.73 297.442 139.657 297.295 139.511C297.161 139.352 297.094 139.169 297.094 138.962C297.094 138.755 297.161 138.584 297.295 138.45C297.442 138.304 297.619 138.231 297.826 138.23ZM324.768 138.23C324.975 138.231 325.152 138.304 325.298 138.45C325.445 138.584 325.518 138.755 325.518 138.962C325.518 139.169 325.445 139.352 325.298 139.511C325.152 139.657 324.975 139.73 324.768 139.73C324.561 139.73 324.383 139.657 324.237 139.511C324.103 139.352 324.036 139.169 324.036 138.962C324.036 138.755 324.103 138.584 324.237 138.45C324.383 138.304 324.561 138.23 324.768 138.23ZM384.146 138.23C384.353 138.231 384.53 138.304 384.676 138.45C384.822 138.584 384.896 138.755 384.896 138.962C384.896 139.169 384.823 139.352 384.676 139.511C384.53 139.657 384.353 139.73 384.146 139.73C383.939 139.73 383.762 139.657 383.616 139.511C383.482 139.352 383.414 139.169 383.414 138.962C383.414 138.755 383.482 138.584 383.616 138.45C383.762 138.304 383.939 138.23 384.146 138.23ZM230.751 122.153C231.41 122.153 232.001 122.281 232.526 122.537C233.05 122.781 233.483 123.129 233.825 123.58C233.935 123.721 234.032 123.871 234.118 124.029V122.336H235.05V130.514C235.05 131.343 234.861 132.062 234.483 132.672C234.117 133.282 233.599 133.757 232.928 134.099C232.257 134.452 231.477 134.63 230.586 134.63C229.757 134.63 229.007 134.471 228.336 134.154C227.666 133.849 227.13 133.404 226.727 132.818L227.312 132.233C227.641 132.697 228.087 133.063 228.648 133.331C229.209 133.611 229.861 133.752 230.605 133.752C231.69 133.752 232.545 133.458 233.167 132.873C233.8 132.288 234.118 131.501 234.118 130.514V128.892C234.027 129.062 233.924 129.225 233.806 129.379C233.465 129.83 233.032 130.178 232.507 130.422C231.995 130.666 231.416 130.788 230.77 130.788C229.965 130.788 229.239 130.605 228.592 130.239C227.958 129.861 227.458 129.348 227.092 128.702C226.727 128.044 226.543 127.3 226.543 126.471C226.543 125.654 226.727 124.922 227.092 124.275C227.458 123.617 227.958 123.099 228.592 122.721C229.226 122.343 229.947 122.153 230.751 122.153ZM241.105 122.153C241.763 122.153 242.355 122.281 242.879 122.537C243.404 122.781 243.837 123.129 244.178 123.58C244.289 123.721 244.386 123.871 244.471 124.029V122.336H245.404V130.514C245.404 131.343 245.214 132.062 244.836 132.672C244.471 133.282 243.952 133.757 243.282 134.099C242.611 134.452 241.83 134.63 240.94 134.63C240.111 134.63 239.361 134.471 238.69 134.154C238.019 133.849 237.482 133.404 237.08 132.818L237.666 132.233C237.995 132.697 238.44 133.063 239 133.331C239.562 133.612 240.215 133.752 240.958 133.752C242.044 133.752 242.897 133.458 243.519 132.873C244.153 132.288 244.471 131.501 244.471 130.514V128.891C244.38 129.061 244.277 129.224 244.16 129.379C243.818 129.83 243.385 130.178 242.861 130.422C242.349 130.666 241.769 130.788 241.123 130.788C240.318 130.788 239.592 130.605 238.946 130.239C238.312 129.861 237.812 129.349 237.446 128.702C237.08 128.044 236.897 127.3 236.897 126.471C236.897 125.654 237.08 124.922 237.446 124.275C237.812 123.617 238.312 123.099 238.946 122.721C239.58 122.343 240.3 122.153 241.105 122.153ZM306.361 122.153C307.019 122.153 307.611 122.281 308.135 122.537C308.66 122.781 309.093 123.129 309.434 123.58C309.545 123.721 309.641 123.871 309.727 124.029V122.336H310.66V130.514C310.66 131.343 310.47 132.062 310.092 132.672C309.726 133.282 309.208 133.757 308.538 134.099C307.867 134.452 307.086 134.63 306.196 134.63C305.367 134.63 304.616 134.471 303.946 134.154C303.275 133.849 302.739 133.404 302.336 132.818L302.921 132.233C303.251 132.697 303.696 133.063 304.257 133.331C304.818 133.611 305.471 133.752 306.214 133.752C307.3 133.752 308.154 133.458 308.776 132.873C309.41 132.288 309.727 131.501 309.727 130.514V128.892C309.636 129.062 309.533 129.225 309.416 129.379C309.074 129.83 308.641 130.178 308.117 130.422C307.605 130.666 307.026 130.788 306.379 130.788C305.574 130.788 304.848 130.605 304.202 130.239C303.568 129.861 303.068 129.348 302.702 128.702C302.336 128.044 302.153 127.3 302.153 126.471C302.153 125.654 302.336 124.922 302.702 124.275C303.067 123.617 303.568 123.099 304.202 122.721C304.836 122.343 305.556 122.153 306.361 122.153ZM360.411 122.153C361.216 122.153 361.936 122.348 362.57 122.738C363.204 123.129 363.704 123.659 364.07 124.33C364.436 125.001 364.619 125.757 364.619 126.599C364.619 127.44 364.436 128.196 364.07 128.867C363.704 129.526 363.204 130.05 362.57 130.44C361.936 130.831 361.216 131.025 360.411 131.025C359.777 131.025 359.191 130.898 358.655 130.642C358.13 130.385 357.691 130.031 357.337 129.58C357.22 129.426 357.117 129.263 357.027 129.093V134.446H356.093V122.336H357.027V124.06C357.117 123.891 357.22 123.73 357.337 123.58C357.703 123.117 358.149 122.762 358.673 122.519C359.21 122.275 359.789 122.153 360.411 122.153ZM370.783 122.153C371.587 122.153 372.307 122.348 372.941 122.738C373.575 123.129 374.076 123.659 374.442 124.33C374.808 125.001 374.991 125.757 374.991 126.599C374.991 127.44 374.808 128.196 374.442 128.867C374.076 129.526 373.575 130.05 372.941 130.44C372.307 130.831 371.587 131.025 370.783 131.025C370.149 131.025 369.563 130.898 369.027 130.642C368.502 130.385 368.063 130.031 367.709 129.58C367.592 129.426 367.489 129.262 367.398 129.092V134.446H366.465V122.336H367.398V124.06C367.489 123.89 367.592 123.73 367.709 123.58C368.075 123.117 368.52 122.762 369.044 122.519C369.581 122.275 370.161 122.153 370.783 122.153ZM203.937 122.153C204.718 122.153 205.4 122.33 205.986 122.684C206.583 123.025 207.047 123.501 207.376 124.11C207.718 124.72 207.888 125.422 207.888 126.215C207.888 126.288 207.883 126.385 207.871 126.507C207.858 126.617 207.839 126.757 207.815 126.928H200.534C200.578 127.494 200.718 128.001 200.956 128.446C201.26 128.983 201.681 129.404 202.217 129.709C202.754 130.002 203.383 130.147 204.102 130.147C204.651 130.147 205.156 130.05 205.62 129.854C206.095 129.647 206.492 129.343 206.809 128.94L207.431 129.544C207.041 130.007 206.547 130.373 205.95 130.642C205.364 130.898 204.729 131.025 204.046 131.025C203.205 131.025 202.443 130.831 201.76 130.44C201.089 130.05 200.559 129.519 200.168 128.849C199.778 128.178 199.583 127.422 199.583 126.58C199.584 125.739 199.772 124.989 200.15 124.33C200.528 123.659 201.047 123.129 201.706 122.738C202.376 122.348 203.12 122.153 203.937 122.153ZM214.286 124.06C214.376 123.891 214.479 123.73 214.597 123.58C214.963 123.117 215.408 122.762 215.932 122.519C216.469 122.275 217.048 122.153 217.67 122.153C218.475 122.153 219.195 122.348 219.829 122.738C220.463 123.129 220.963 123.659 221.329 124.33C221.694 125.001 221.877 125.757 221.877 126.599C221.877 127.44 221.694 128.196 221.329 128.867C220.963 129.526 220.463 130.05 219.829 130.44C219.195 130.831 218.475 131.025 217.67 131.025C217.036 131.025 216.45 130.898 215.914 130.642C215.389 130.385 214.951 130.031 214.597 129.58C214.479 129.426 214.376 129.263 214.286 129.093V130.843H213.353V118H214.286V124.06ZM251.585 122.153C252.366 122.153 253.049 122.33 253.634 122.684C254.232 123.025 254.696 123.501 255.025 124.11C255.366 124.72 255.537 125.422 255.537 126.215C255.537 126.288 255.53 126.385 255.518 126.507C255.506 126.617 255.488 126.757 255.463 126.928H248.182C248.227 127.494 248.365 128.001 248.603 128.446C248.908 128.983 249.329 129.404 249.866 129.709C250.402 130.002 251.03 130.147 251.75 130.147C252.298 130.147 252.805 130.05 253.268 129.854C253.744 129.647 254.14 129.343 254.458 128.94L255.08 129.544C254.689 130.007 254.195 130.373 253.597 130.642C253.012 130.898 252.378 131.025 251.695 131.025C250.854 131.025 250.092 130.831 249.409 130.44C248.738 130.05 248.207 129.519 247.817 128.849C247.427 128.178 247.231 127.422 247.231 126.58C247.231 125.739 247.42 124.989 247.798 124.33C248.176 123.659 248.695 123.129 249.353 122.738C250.024 122.348 250.768 122.153 251.585 122.153ZM259.874 122.153C260.508 122.153 261.075 122.263 261.575 122.482C262.087 122.702 262.495 123.025 262.8 123.452L262.197 124.074C261.953 123.733 261.624 123.47 261.209 123.287C260.795 123.092 260.331 122.994 259.819 122.994C259.209 122.994 258.745 123.123 258.428 123.379C258.111 123.635 257.953 123.964 257.953 124.366C257.953 124.744 258.069 125.043 258.3 125.263C258.532 125.482 258.831 125.653 259.197 125.775C259.575 125.897 259.965 126.02 260.368 126.142C260.782 126.251 261.173 126.397 261.539 126.58C261.916 126.763 262.221 127.013 262.453 127.33C262.684 127.647 262.8 128.08 262.8 128.629C262.8 129.361 262.532 129.947 261.996 130.386C261.459 130.812 260.74 131.025 259.837 131.025C259.374 131.025 258.935 130.965 258.52 130.843C258.118 130.709 257.745 130.526 257.404 130.294C257.075 130.062 256.782 129.794 256.526 129.489L257.148 128.867C257.489 129.318 257.885 129.654 258.336 129.873C258.8 130.08 259.306 130.185 259.855 130.185C260.489 130.185 260.989 130.056 261.355 129.8C261.721 129.544 261.904 129.184 261.904 128.721C261.904 128.306 261.788 127.983 261.556 127.751C261.324 127.507 261.02 127.318 260.642 127.184C260.276 127.049 259.886 126.922 259.471 126.8C259.069 126.678 258.678 126.531 258.3 126.36C257.935 126.19 257.635 125.952 257.404 125.647C257.172 125.343 257.056 124.934 257.056 124.422C257.056 123.971 257.172 123.574 257.404 123.232C257.636 122.891 257.959 122.629 258.374 122.446C258.8 122.251 259.3 122.153 259.874 122.153ZM326.259 122.153C327.076 122.153 327.814 122.348 328.472 122.738C329.143 123.129 329.674 123.659 330.064 124.33C330.454 124.989 330.65 125.732 330.65 126.562C330.65 127.403 330.454 128.159 330.064 128.83C329.674 129.501 329.143 130.038 328.472 130.44C327.814 130.831 327.076 131.025 326.259 131.025C325.43 131.025 324.68 130.831 324.009 130.44C323.351 130.038 322.825 129.501 322.435 128.83C322.045 128.147 321.85 127.391 321.85 126.562C321.85 125.732 322.045 124.988 322.435 124.33C322.825 123.659 323.351 123.129 324.009 122.738C324.68 122.348 325.43 122.153 326.259 122.153ZM349.455 122.153C350.113 122.153 350.698 122.281 351.21 122.537C351.735 122.781 352.162 123.129 352.492 123.58C352.602 123.726 352.699 123.883 352.784 124.047V122.336H353.717V130.843H352.784V129.09C352.693 129.269 352.591 129.439 352.473 129.599C352.144 130.05 351.723 130.404 351.21 130.66C350.711 130.904 350.137 131.025 349.491 131.025C348.674 131.025 347.936 130.831 347.278 130.44C346.631 130.05 346.119 129.526 345.741 128.867C345.363 128.196 345.174 127.44 345.174 126.599C345.174 125.769 345.363 125.019 345.741 124.349C346.119 123.678 346.631 123.147 347.278 122.757C347.924 122.354 348.65 122.153 349.455 122.153ZM380.641 122.153C381.422 122.153 382.105 122.33 382.69 122.684C383.288 123.025 383.751 123.501 384.081 124.11C384.422 124.72 384.592 125.422 384.592 126.215C384.592 126.288 384.587 126.385 384.575 126.507C384.563 126.617 384.543 126.757 384.519 126.928H377.238C377.282 127.494 377.422 128.001 377.66 128.446C377.965 128.983 378.385 129.404 378.921 129.709C379.458 130.002 380.087 130.147 380.806 130.147C381.355 130.147 381.86 130.05 382.324 129.854C382.799 129.647 383.196 129.343 383.513 128.94L384.135 129.544C383.745 130.007 383.251 130.373 382.654 130.642C382.068 130.898 381.433 131.025 380.75 131.025C379.909 131.025 379.147 130.831 378.464 130.44C377.794 130.05 377.263 129.519 376.873 128.849C376.482 128.178 376.288 127.422 376.288 126.58C376.288 125.739 376.476 124.989 376.854 124.33C377.232 123.659 377.751 123.129 378.41 122.738C379.08 122.348 379.824 122.153 380.641 122.153ZM409.103 122.153C409.92 122.153 410.658 122.348 411.317 122.738C411.988 123.129 412.518 123.659 412.909 124.33C413.299 124.989 413.494 125.732 413.494 126.562C413.494 127.403 413.299 128.159 412.909 128.83C412.518 129.501 411.988 130.038 411.317 130.44C410.658 130.831 409.92 131.025 409.103 131.025C408.274 131.025 407.524 130.831 406.853 130.44C406.194 130.038 405.67 129.501 405.28 128.83C404.89 128.147 404.695 127.391 404.695 126.562C404.695 125.732 404.89 124.989 405.28 124.33C405.67 123.659 406.194 123.129 406.853 122.738C407.524 122.348 408.274 122.153 409.103 122.153ZM422.768 122.153C423.427 122.153 424.013 122.281 424.525 122.537C425.049 122.781 425.476 123.129 425.805 123.58C425.916 123.727 426.013 123.883 426.098 124.048V122.336H427.031V130.843H426.098V129.088C426.008 129.267 425.905 129.438 425.787 129.599C425.457 130.05 425.037 130.404 424.525 130.66C424.025 130.904 423.451 131.025 422.805 131.025C421.988 131.025 421.25 130.831 420.591 130.44C419.945 130.05 419.432 129.526 419.054 128.867C418.676 128.196 418.488 127.44 418.488 126.599C418.488 125.769 418.676 125.019 419.054 124.349C419.432 123.678 419.945 123.147 420.591 122.757C421.238 122.354 421.963 122.153 422.768 122.153ZM437.402 130.843H436.469V129.093C436.379 129.263 436.276 129.426 436.159 129.58C435.805 130.031 435.359 130.385 434.823 130.642C434.298 130.898 433.719 131.025 433.084 131.025C432.28 131.025 431.56 130.831 430.926 130.44C430.292 130.05 429.792 129.526 429.426 128.867C429.06 128.196 428.877 127.44 428.877 126.599C428.877 125.757 429.06 125.001 429.426 124.33C429.792 123.659 430.292 123.129 430.926 122.738C431.56 122.348 432.28 122.153 433.084 122.153C433.706 122.153 434.28 122.275 434.804 122.519C435.341 122.762 435.793 123.117 436.159 123.58C436.277 123.726 436.379 123.881 436.469 124.045V118H437.402V130.843ZM442.358 122.153C442.992 122.153 443.559 122.263 444.059 122.482C444.571 122.702 444.98 123.025 445.285 123.452L444.681 124.074C444.437 123.733 444.108 123.47 443.693 123.287C443.278 123.092 442.815 122.994 442.303 122.994C441.693 122.994 441.23 123.123 440.913 123.379C440.596 123.635 440.437 123.964 440.437 124.366C440.437 124.744 440.553 125.043 440.785 125.263C441.016 125.482 441.315 125.653 441.681 125.775C442.059 125.897 442.45 126.02 442.852 126.142C443.267 126.251 443.657 126.397 444.023 126.58C444.401 126.763 444.705 127.013 444.937 127.33C445.169 127.647 445.285 128.08 445.285 128.629C445.285 129.361 445.017 129.947 444.48 130.386C443.943 130.813 443.223 131.025 442.321 131.025C441.858 131.025 441.419 130.965 441.004 130.843C440.602 130.709 440.23 130.526 439.888 130.294C439.559 130.062 439.266 129.794 439.01 129.489L439.632 128.867C439.974 129.318 440.37 129.654 440.821 129.873C441.284 130.08 441.791 130.185 442.339 130.185C442.974 130.185 443.473 130.056 443.839 129.8C444.205 129.544 444.388 129.184 444.388 128.721C444.388 128.306 444.272 127.983 444.041 127.751C443.809 127.507 443.504 127.318 443.126 127.184C442.761 127.049 442.37 126.922 441.956 126.8C441.553 126.678 441.163 126.531 440.785 126.36C440.419 126.19 440.12 125.952 439.888 125.647C439.656 125.343 439.541 124.934 439.541 124.422C439.541 123.971 439.656 123.574 439.888 123.232C440.12 122.891 440.443 122.629 440.858 122.446C441.285 122.251 441.785 122.153 442.358 122.153ZM188.813 119.244H184.24V130.843H183.289V119.244H178.714V118.366H188.813V119.244ZM191.534 123.771C191.837 123.272 192.245 122.879 192.759 122.592C193.284 122.299 193.882 122.153 194.552 122.153C195.223 122.153 195.808 122.306 196.308 122.61C196.82 122.903 197.217 123.318 197.498 123.854C197.778 124.391 197.918 125.001 197.918 125.684V130.843H197.003V125.794C197.003 124.965 196.76 124.293 196.272 123.781C195.784 123.269 195.137 123.013 194.333 123.013C193.784 123.013 193.295 123.135 192.869 123.379C192.454 123.611 192.125 123.934 191.881 124.349C191.65 124.763 191.534 125.245 191.534 125.794V130.843H190.601V118H191.534V123.771ZM224.657 130.843H223.742V122.336H224.657V130.843ZM266.878 122.336H269.074V123.159H266.878V130.843H265.946V123.159H263.75V122.336H265.946V118.732H266.878V122.336ZM276.563 122.336H278.758V123.159H276.563V130.843H275.629V123.159H273.434V122.336H275.629V118.732H276.563V122.336ZM281.204 123.771C281.507 123.272 281.915 122.879 282.429 122.592C282.954 122.299 283.552 122.153 284.222 122.153C284.893 122.153 285.478 122.306 285.978 122.61C286.49 122.903 286.887 123.318 287.167 123.854C287.448 124.391 287.587 125.001 287.587 125.684V130.843H286.673V125.794C286.673 124.965 286.429 124.293 285.941 123.781C285.453 123.269 284.807 123.013 284.002 123.013C283.454 123.013 282.965 123.135 282.539 123.379C282.124 123.611 281.795 123.934 281.551 124.349C281.32 124.763 281.204 125.245 281.204 125.794V130.843H280.27V118H281.204V123.771ZM290.735 130.843H289.82V122.336H290.735V130.843ZM297.104 122.153C297.775 122.153 298.36 122.312 298.86 122.629C299.372 122.934 299.769 123.354 300.049 123.891C300.33 124.427 300.469 125.025 300.469 125.684V130.843H299.555V125.794C299.555 124.965 299.311 124.293 298.823 123.781C298.335 123.269 297.689 123.013 296.884 123.013C296.335 123.013 295.847 123.135 295.42 123.379C295.006 123.611 294.677 123.934 294.433 124.349C294.201 124.763 294.085 125.245 294.085 125.794V130.843H293.152V122.336H294.085V123.771C294.389 123.272 294.797 122.879 295.311 122.592C295.835 122.299 296.433 122.153 297.104 122.153ZM319.012 122.336H321.208V123.159H319.012V130.843H318.08V123.159H315.884V122.336H318.08V118.732H319.012V122.336ZM337.125 123.771C337.428 123.272 337.836 122.879 338.35 122.592C338.874 122.299 339.472 122.153 340.143 122.153C340.814 122.153 341.399 122.306 341.899 122.61C342.411 122.903 342.808 123.318 343.088 123.854C343.369 124.391 343.509 125.001 343.509 125.684V130.843H342.594V125.794C342.594 124.965 342.351 124.293 341.863 123.781C341.375 123.269 340.728 123.013 339.923 123.013C339.375 123.013 338.886 123.135 338.459 123.379C338.045 123.611 337.716 123.934 337.472 124.349C337.24 124.763 337.125 125.245 337.125 125.794V130.843H336.192V118H337.125V123.771ZM390.301 122.153C390.972 122.153 391.557 122.312 392.057 122.629C392.569 122.934 392.966 123.354 393.247 123.891C393.527 124.427 393.667 125.025 393.667 125.684V130.843H392.752V125.794C392.752 124.965 392.509 124.293 392.021 123.781C391.533 123.269 390.886 123.013 390.082 123.013C389.533 123.013 389.045 123.135 388.618 123.379C388.203 123.611 387.874 123.934 387.63 124.349C387.399 124.763 387.283 125.245 387.283 125.794V130.843H386.35V122.336H387.283V123.771C387.586 123.272 387.994 122.879 388.508 122.592C389.033 122.299 389.631 122.153 390.301 122.153ZM401.857 122.336H404.052V123.159H401.857V130.843H400.924V123.159H398.729V122.336H400.924V118.732H401.857V122.336ZM217.56 123.031C216.902 123.031 216.323 123.184 215.823 123.488C215.335 123.781 214.951 124.196 214.67 124.732C214.39 125.269 214.25 125.891 214.25 126.599C214.25 127.294 214.384 127.91 214.652 128.446C214.932 128.971 215.316 129.386 215.804 129.69C216.304 129.995 216.871 130.147 217.505 130.147C218.176 130.147 218.768 129.995 219.28 129.69C219.792 129.386 220.195 128.964 220.488 128.428C220.78 127.891 220.926 127.275 220.926 126.58C220.926 125.885 220.78 125.269 220.488 124.732C220.195 124.196 219.792 123.781 219.28 123.488C218.78 123.184 218.206 123.031 217.56 123.031ZM326.259 123.031C325.601 123.031 325.009 123.19 324.485 123.507C323.973 123.812 323.563 124.227 323.258 124.751C322.954 125.275 322.801 125.879 322.801 126.562C322.801 127.244 322.953 127.855 323.258 128.392C323.563 128.928 323.973 129.355 324.485 129.672C325.009 129.989 325.601 130.147 326.259 130.147C326.905 130.147 327.484 129.989 327.997 129.672C328.521 129.355 328.929 128.928 329.222 128.392C329.527 127.843 329.68 127.227 329.68 126.544C329.68 125.873 329.527 125.275 329.222 124.751C328.929 124.227 328.521 123.812 327.997 123.507C327.484 123.19 326.905 123.031 326.259 123.031ZM349.601 123.031C348.93 123.031 348.333 123.183 347.808 123.488C347.296 123.793 346.887 124.214 346.583 124.751C346.29 125.288 346.143 125.897 346.143 126.58C346.143 127.275 346.29 127.891 346.583 128.428C346.887 128.964 347.302 129.386 347.827 129.69C348.351 129.995 348.949 130.147 349.62 130.147C350.595 130.147 351.37 129.824 351.943 129.178C352.528 128.519 352.821 127.659 352.821 126.599C352.821 125.879 352.687 125.257 352.418 124.732C352.162 124.196 351.79 123.781 351.302 123.488C350.814 123.183 350.247 123.031 349.601 123.031ZM360.301 123.031C359.643 123.031 359.063 123.183 358.563 123.488C358.075 123.781 357.691 124.196 357.411 124.732C357.13 125.269 356.99 125.891 356.99 126.599C356.99 127.294 357.124 127.91 357.392 128.446C357.673 128.971 358.058 129.386 358.545 129.69C359.045 129.995 359.613 130.147 360.247 130.147C360.917 130.147 361.509 129.995 362.021 129.69C362.533 129.386 362.935 128.964 363.228 128.428C363.521 127.891 363.667 127.275 363.667 126.58C363.667 125.885 363.521 125.269 363.228 124.732C362.935 124.196 362.533 123.781 362.021 123.488C361.521 123.183 360.948 123.031 360.301 123.031ZM370.673 123.031C370.015 123.031 369.435 123.183 368.935 123.488C368.447 123.781 368.063 124.196 367.783 124.732C367.502 125.269 367.362 125.891 367.362 126.599C367.362 127.294 367.496 127.91 367.764 128.446C368.045 128.971 368.429 129.386 368.917 129.69C369.416 129.995 369.984 130.147 370.618 130.147C371.288 130.147 371.88 129.995 372.392 129.69C372.904 129.386 373.307 128.964 373.6 128.428C373.893 127.891 374.039 127.275 374.039 126.58C374.039 125.885 373.893 125.269 373.6 124.732C373.307 124.196 372.904 123.781 372.392 123.488C371.892 123.184 371.319 123.031 370.673 123.031ZM409.103 123.031C408.445 123.031 407.853 123.19 407.329 123.507C406.816 123.812 406.408 124.227 406.103 124.751C405.798 125.275 405.646 125.879 405.646 126.562C405.646 127.244 405.798 127.855 406.103 128.392C406.408 128.928 406.816 129.355 407.329 129.672C407.853 129.989 408.445 130.147 409.103 130.147C409.749 130.147 410.329 129.989 410.841 129.672C411.366 129.355 411.774 128.928 412.067 128.392C412.372 127.843 412.524 127.227 412.524 126.544C412.524 125.873 412.372 125.275 412.067 124.751C411.774 124.227 411.366 123.812 410.841 123.507C410.329 123.19 409.749 123.031 409.103 123.031ZM422.915 123.031C422.244 123.031 421.646 123.183 421.122 123.488C420.609 123.793 420.201 124.214 419.896 124.751C419.603 125.288 419.457 125.897 419.457 126.58C419.457 127.275 419.603 127.891 419.896 128.428C420.201 128.964 420.616 129.386 421.14 129.69C421.665 129.995 422.262 130.147 422.933 130.147C423.909 130.147 424.683 129.824 425.256 129.178C425.842 128.519 426.134 127.66 426.134 126.599C426.134 125.879 426 125.257 425.732 124.732C425.476 124.196 425.104 123.781 424.616 123.488C424.128 123.183 423.561 123.031 422.915 123.031ZM433.195 123.031C432.548 123.031 431.969 123.183 431.457 123.488C430.957 123.793 430.56 124.214 430.267 124.751C429.975 125.275 429.829 125.885 429.829 126.58C429.829 127.275 429.975 127.891 430.267 128.428C430.56 128.964 430.963 129.386 431.475 129.69C431.987 129.995 432.579 130.147 433.25 130.147C433.896 130.147 434.463 129.995 434.951 129.69C435.439 129.386 435.817 128.971 436.085 128.446C436.366 127.91 436.505 127.294 436.505 126.599C436.505 125.891 436.366 125.275 436.085 124.751C435.805 124.214 435.415 123.793 434.915 123.488C434.427 123.183 433.853 123.031 433.195 123.031ZM230.898 123.031C230.239 123.031 229.653 123.178 229.141 123.471C228.629 123.763 228.227 124.166 227.934 124.678C227.641 125.19 227.495 125.781 227.495 126.452C227.495 127.123 227.641 127.721 227.934 128.245C228.227 128.769 228.629 129.184 229.141 129.489C229.665 129.782 230.263 129.928 230.934 129.928C231.568 129.928 232.13 129.787 232.618 129.507C233.117 129.214 233.502 128.812 233.77 128.3C234.038 127.775 234.172 127.166 234.172 126.471C234.172 125.788 234.032 125.19 233.751 124.678C233.483 124.166 233.105 123.763 232.618 123.471C232.13 123.178 231.556 123.031 230.898 123.031ZM241.251 123.031C240.593 123.031 240.007 123.178 239.495 123.471C238.983 123.763 238.58 124.166 238.288 124.678C237.995 125.19 237.848 125.781 237.848 126.452C237.848 127.123 237.995 127.721 238.288 128.245C238.58 128.769 238.982 129.184 239.495 129.489C240.019 129.782 240.617 129.928 241.288 129.928C241.922 129.928 242.482 129.787 242.97 129.507C243.47 129.214 243.855 128.812 244.124 128.3C244.392 127.775 244.526 127.166 244.526 126.471C244.526 125.788 244.385 125.19 244.105 124.678C243.837 124.166 243.458 123.763 242.97 123.471C242.483 123.178 241.91 123.031 241.251 123.031ZM306.507 123.031C305.849 123.031 305.263 123.178 304.75 123.471C304.238 123.763 303.836 124.166 303.543 124.678C303.251 125.19 303.104 125.781 303.104 126.452C303.104 127.123 303.251 127.721 303.543 128.245C303.836 128.769 304.238 129.184 304.75 129.489C305.275 129.782 305.873 129.928 306.543 129.928C307.178 129.928 307.739 129.787 308.227 129.507C308.727 129.214 309.111 128.812 309.379 128.3C309.648 127.775 309.782 127.166 309.782 126.471C309.782 125.788 309.641 125.19 309.361 124.678C309.093 124.166 308.715 123.763 308.227 123.471C307.739 123.178 307.166 123.031 306.507 123.031ZM203.918 123.013C203.248 123.013 202.656 123.166 202.144 123.471C201.632 123.763 201.23 124.172 200.937 124.696C200.712 125.117 200.579 125.593 200.535 126.123H206.977C206.968 125.558 206.856 125.058 206.644 124.623C206.4 124.111 206.047 123.714 205.583 123.434C205.12 123.153 204.565 123.013 203.918 123.013ZM251.567 123.013C250.896 123.013 250.305 123.166 249.792 123.471C249.28 123.763 248.878 124.172 248.585 124.696C248.36 125.117 248.227 125.592 248.182 126.123H254.625C254.616 125.558 254.505 125.058 254.292 124.623C254.049 124.111 253.695 123.714 253.232 123.434C252.768 123.153 252.213 123.013 251.567 123.013ZM380.623 123.013C379.952 123.013 379.36 123.166 378.848 123.471C378.336 123.763 377.934 124.172 377.641 124.696C377.416 125.117 377.283 125.593 377.239 126.123H383.681C383.672 125.558 383.561 125.058 383.349 124.623C383.105 124.111 382.751 123.714 382.288 123.434C381.824 123.153 381.269 123.013 380.623 123.013ZM224.2 118.86C224.407 118.86 224.584 118.934 224.73 119.08C224.876 119.214 224.95 119.385 224.95 119.592C224.95 119.799 224.876 119.982 224.73 120.141C224.584 120.287 224.407 120.36 224.2 120.36C223.992 120.36 223.816 120.287 223.669 120.141C223.535 119.982 223.468 119.799 223.468 119.592C223.468 119.385 223.535 119.214 223.669 119.08C223.816 118.934 223.992 118.86 224.2 118.86ZM290.278 118.86C290.485 118.86 290.662 118.934 290.808 119.08C290.954 119.214 291.028 119.385 291.028 119.592C291.028 119.799 290.954 119.982 290.808 120.141C290.662 120.287 290.485 120.36 290.278 120.36C290.071 120.36 289.893 120.287 289.747 120.141C289.613 119.982 289.545 119.799 289.545 119.592C289.545 119.385 289.613 119.214 289.747 119.08C289.893 118.934 290.071 118.86 290.278 118.86Z" fill="#6B758A"/>
</svg>
