<svg width="24" height="16" viewBox="0 0 24 16" fill="none" xmlns="http://www.w3.org/2000/svg">
<path d="M0 0H23.8057V16H0V0Z" fill="#D6D4D1"/>
<path d="M0.198975 0.19574H23.6135V15.8051H0.198975V0.19574Z" fill="#026C34"/>
<path d="M5.80384 4.18645C5.80384 4.18645 5.94567 3.98618 5.94567 3.79663C5.94567 3.6063 5.82938 3.63792 5.78636 3.67014C5.74266 3.70313 5.6573 3.7878 5.70161 3.83965C5.74463 3.89141 5.79304 3.80065 5.82261 3.80065C5.85286 3.80065 5.86091 3.81676 5.86091 3.89603C5.86091 3.97539 5.80384 4.18645 5.80384 4.18645Z" fill="white"/>
<path d="M5.46315 4.22496C5.46315 4.22496 5.47189 5.20643 5.68698 5.20643C5.68698 5.20643 5.78245 5.20643 5.80867 4.95157C5.83626 4.6968 5.94715 4.05957 6.21538 4.05957C6.48292 4.05957 6.08092 4.5752 6.29336 5.0269C6.29336 5.0269 6.36998 5.19426 6.51583 5.19426C6.51583 5.19426 6.48018 4.51264 6.43382 4.28546C6.38814 4.05691 6.41368 4.05691 6.41368 4.05691C6.41368 4.05691 6.31016 3.93188 6.37666 3.81902C6.44453 3.70607 6.47752 3.66237 6.53999 3.76049C6.60118 3.85921 6.82167 4.17191 6.61995 4.27946L6.70333 5.16341C6.70333 5.16341 6.9144 5.02955 6.86332 4.78489C6.81216 4.53818 6.70462 4.17457 6.83504 3.98227C6.83504 3.98227 7.00978 4.0959 7.00978 4.27064C7.00978 4.44614 6.99641 5.14327 7.34862 5.14327C7.69954 5.14327 7.26258 4.36147 7.26258 4.22093C7.26258 4.22093 7.24647 4.18263 7.33045 4.09393C7.41443 4.00524 7.42463 3.97156 7.48916 4.03874C7.553 4.10593 7.66929 4.2229 7.66929 4.33791C7.66929 4.45282 7.57057 4.40381 7.57057 4.40381C7.57057 4.40381 7.68951 4.78027 7.68951 5.03161C7.68951 5.28364 7.54366 5.48734 7.27346 5.48734C7.00455 5.48734 6.95287 5.15724 6.95287 5.15724C6.95287 5.15724 6.80359 5.39796 6.72767 5.44895L6.78543 6.55476C6.78543 6.55476 6.77874 6.72084 6.6873 6.80679C6.6873 6.80679 6.66717 6.81553 6.65903 6.7013C6.65097 6.58895 6.54608 5.5726 6.54608 5.5726C6.54608 5.5726 6.0715 5.65461 6.0715 4.95148C6.0715 4.95148 6.0769 4.83528 6.08898 4.69808C6.10243 4.56157 6.08761 4.41435 6.04399 4.52335C6.00029 4.63227 5.98546 4.72893 5.91699 5.07583C5.84706 5.42135 5.75965 5.51819 5.65613 5.51819C5.55261 5.51819 5.36108 5.20086 5.36108 4.68394C5.361 4.16643 5.46315 4.22496 5.46315 4.22496Z" fill="white"/>
<path d="M7.18727 3.7086C7.18727 3.7086 7.20338 3.90227 7.27331 3.90227C7.34461 3.90227 7.35395 3.76576 7.35395 3.76576C7.35395 3.76576 7.38077 3.7913 7.38077 3.88008C7.38077 3.96809 7.31487 4.00305 7.27931 4.00305C7.24229 4.00305 7.17502 3.96346 7.17502 3.92035C7.17502 3.92035 7.14348 3.99568 7.04665 3.99568C6.95058 3.99568 6.90894 3.88008 6.90894 3.81084C6.90894 3.74159 6.93644 3.68246 6.95864 3.68246C6.98083 3.68246 6.99095 3.78333 6.99095 3.80347C6.99095 3.82498 7.00834 3.89285 7.04999 3.89285C7.09164 3.89285 7.13149 3.85583 7.18727 3.7086Z" fill="white"/>
<path d="M5.45166 6.43443C5.45166 6.43443 5.78647 5.96456 6.30938 5.82676C6.30938 5.82676 6.39945 5.78974 6.39945 5.88452C6.39945 5.98067 6.41153 5.97733 6.28925 6.01366C6.16627 6.05051 5.84294 6.1884 5.45166 6.43443Z" fill="white"/>
<path d="M9.3289 5.92351C9.3289 5.8805 9.32478 5.63309 9.28314 5.63044C9.24149 5.62907 9.13325 5.71442 9.15339 5.73593C9.17353 5.75881 9.24414 6.07477 9.07875 6.07477C8.91267 6.07477 8.86631 5.67071 8.86631 5.67071C8.77496 5.92814 8.65662 6.1063 8.53159 6.1063C8.40853 6.1063 8.37562 5.94631 8.37562 5.90809C8.37562 5.8691 8.40459 5.69625 8.33809 5.69625C8.27013 5.69625 8.1337 5.8469 8.1337 5.8469L8.0409 4.51048C8.1337 4.61066 8.19018 4.53465 8.19018 4.43996C8.19018 4.34518 8.00396 3.84772 7.96017 3.77239C7.91715 3.69852 7.83111 3.79527 7.75853 3.90419C7.68458 4.01311 7.76787 4.11457 7.76787 4.11457C7.76787 4.26711 7.78672 4.50517 7.84054 4.97495C7.89564 5.44551 7.94209 5.97193 7.94209 5.97193L7.76393 6.07742C7.76393 6.07742 7.6497 5.68888 7.34317 5.68888C7.03663 5.68888 7.03929 5.94768 7.03929 6.33014C7.03929 6.7126 7.63076 6.41815 7.63076 6.41815C7.63076 6.66889 7.26647 7.17706 6.7798 7.17706C6.29314 7.17706 6.41354 6.32491 6.41354 6.32491C6.13186 6.90635 6.30531 7.49722 6.77046 7.49722C7.23493 7.49722 7.65844 7.06566 7.7593 6.86342C7.86016 6.66169 7.81912 6.34985 7.81912 6.34985L7.95623 6.27049C7.95623 6.27049 7.99119 6.73428 7.92538 7.03678C7.86017 7.33997 7.23973 7.76211 6.72342 7.76211C6.20719 7.76211 6.14737 7.27947 6.14737 7.13362C6.14737 6.98776 6.18165 6.81903 6.18165 6.71011C6.18165 6.60119 6.15474 6.55217 6.15474 6.55217C6.00683 6.74645 6.01223 7.20817 6.01223 7.20817C6.01223 8.06384 6.42768 8.09418 6.68314 8.09418C6.93851 8.09418 7.34591 8.04302 7.84937 7.69286C8.35214 7.344 8.15796 6.1884 8.15796 6.1884L8.19558 6.14735C8.19558 6.14735 8.19018 6.31608 8.44161 6.31608C8.69235 6.31608 8.8167 6.12653 8.8167 6.12653C8.91756 6.28052 9.05459 6.28052 9.05459 6.28052C9.34844 6.28052 9.3289 5.9679 9.3289 5.92351ZM7.34591 6.20785C7.22491 6.20785 7.20477 5.98402 7.30092 5.98402C7.39767 5.98402 7.52133 6.15952 7.52133 6.15952C7.52133 6.15952 7.46888 6.20785 7.34591 6.20785Z" fill="white"/>
<path d="M5.68281 6.8989C5.68281 6.8989 5.72043 7.06292 5.65728 7.23508C5.5948 7.40715 5.55641 8.01542 5.86834 7.61685C5.86834 7.61685 5.98532 8.01542 5.68281 8.01542C5.37902 8.01542 5.49865 7.35531 5.58126 7.13087C5.66268 6.90644 5.68281 6.8989 5.68281 6.8989Z" fill="white"/>
<path d="M8.76167 6.77064C8.76167 6.77064 8.62524 6.84793 8.62524 6.69128C8.62524 6.53403 8.7603 6.55151 8.7603 6.55151C8.7603 6.55151 8.87727 6.56025 8.87727 6.78606C8.87727 7.01187 8.73879 7.12079 8.73879 7.12079C8.73879 7.12079 8.80735 6.90235 8.76167 6.77064Z" fill="white"/>
<path d="M9.44125 3.92117C9.44125 3.86941 9.42308 3.70599 9.29608 3.70599C9.16839 3.70599 9.04131 3.82768 9.04131 4.01184C9.04131 4.196 9.13137 4.23773 9.13137 4.23773C8.88397 4.63227 8.02085 5.12099 8.5801 4.87899C9.13934 4.6363 9.27054 4.33243 9.27054 4.33243C9.46207 4.34125 9.35187 4.18854 9.35187 4.18854C9.35187 4.18854 9.44125 3.97156 9.44125 3.92117ZM9.23215 4.07568C9.17902 4.03129 9.19316 3.98219 9.20799 3.94663C9.22281 3.90961 9.29197 3.87199 9.29197 3.94183C9.29205 4.01313 9.23215 4.07568 9.23215 4.07568Z" fill="white"/>
<path d="M9.29933 5.03427C9.29933 5.03427 9.28451 5.32135 9.04662 5.32135C8.80727 5.32135 8.85303 4.94027 9.10112 4.76074C9.10112 4.76074 9.1468 4.75671 9.09367 4.85354C9.04131 4.94961 8.93504 5.17816 9.08227 5.17816C9.23009 5.17816 9.29933 5.03427 9.29933 5.03427Z" fill="white"/>
<path d="M10.7985 3.89886C10.7985 3.89886 10.7474 3.85919 10.7972 3.7968C10.8455 3.73484 10.8913 3.74161 10.9382 3.85524C10.986 3.96819 11.0263 4.21422 10.9187 4.48116C10.9188 4.48099 10.9571 4.07565 10.7985 3.89886Z" fill="white"/>
<path d="M11.0862 5.59969C11.0862 5.59969 11.1466 5.83758 11.2126 5.83758C11.2778 5.83758 11.2885 5.59086 11.2885 5.59086C11.2885 5.59086 11.3873 5.79859 11.4398 5.79859C11.4922 5.79859 11.4936 5.51828 11.4936 5.51828C11.4936 5.51828 11.5675 5.59086 11.5675 5.74212C11.5675 5.89337 11.4687 5.91753 11.4364 5.91753C11.4035 5.91753 11.3175 5.84769 11.3175 5.84769C11.3175 5.84769 11.2885 5.97744 11.1938 5.97744C11.0989 5.97735 11.0311 5.78976 11.0862 5.59969Z" fill="white"/>
<path d="M13.6474 3.78268C13.6474 3.78268 13.7031 3.66236 13.7684 3.74506C13.8344 3.82638 13.9069 3.99443 13.9069 4.1773C13.9069 4.36146 13.7911 4.4469 13.7911 4.4469C13.7911 4.4469 13.8422 4.13034 13.7224 4.01131C13.6031 3.89151 13.599 3.88011 13.6474 3.78268Z" fill="white"/>
<path d="M13.7038 4.7189C13.7038 4.7189 13.7442 4.85807 13.7865 4.85807C13.8288 4.85807 13.8645 4.67725 13.8645 4.67725C13.8645 4.67725 13.9055 4.83724 13.9557 4.83724C14.0062 4.83724 14.0573 4.62549 14.0573 4.62549C14.0573 4.62549 14.0936 4.68522 14.0936 4.82105C14.0936 4.95619 14.0183 4.96956 13.9983 4.96956C13.9775 4.96956 13.9203 4.96818 13.8826 4.89157C13.8826 4.89157 13.845 4.97093 13.7591 4.97093C13.6735 4.9711 13.6661 4.81102 13.7038 4.7189Z" fill="white"/>
<path d="M17.544 4.08374C17.544 4.08374 17.5997 3.96351 17.6656 4.04475C17.7302 4.12676 17.8028 4.29558 17.8028 4.47837C17.8028 4.66125 17.6871 4.74728 17.6871 4.74728C17.6871 4.74728 17.7383 4.43073 17.6192 4.31101C17.4988 4.19198 17.4948 4.18058 17.544 4.08374Z" fill="white"/>
<path d="M12.2867 7.75609C12.2867 7.75609 12.4755 7.58942 12.5741 7.58942C12.6723 7.58942 12.5634 7.76415 12.5634 7.81531C12.5634 7.86638 12.5401 7.97522 12.6977 7.89869C12.8565 7.82268 13.0001 7.76424 13.0272 7.77435C13.054 7.78643 12.8002 8.07214 12.5686 8.07214C12.3374 8.07214 12.4503 7.82474 12.457 7.79183C12.465 7.75892 12.4731 7.70991 12.3446 7.76835C12.2154 7.82594 12.2867 7.75609 12.2867 7.75609Z" fill="white"/>
<path d="M16.671 7.62224C16.671 7.62224 16.8191 7.60956 16.8191 7.69285C16.8191 7.77684 16.6766 7.87701 16.7991 7.87701C16.9215 7.87701 16.9175 7.97111 16.8157 8.01884C16.7129 8.06657 16.4978 8.17275 16.4978 8.04506C16.4978 7.91669 16.651 7.96108 16.651 7.84942C16.651 7.73785 16.5382 7.79835 16.5382 7.71634C16.5379 7.6351 16.671 7.62224 16.671 7.62224Z" fill="white"/>
<path d="M16.145 6.14743C16.145 6.14743 16.2029 6.05402 16.2849 6.14675C16.3669 6.2375 16.4007 6.34376 16.4007 6.45533C16.4007 6.56485 16.3145 6.64284 16.2917 6.63949C16.2683 6.63478 16.2943 6.54197 16.2943 6.46733C16.2943 6.39209 16.1801 6.29791 16.1404 6.26775C16.1007 6.2375 16.1209 6.16894 16.145 6.14743Z" fill="white"/>
<path d="M16.3024 5.65137C16.3024 5.65137 16.3858 5.58753 16.3858 5.74821C16.3858 5.91026 16.2233 5.86578 15.9046 6.1065C15.5847 6.34722 15.6745 6.19254 15.6894 6.16897C15.7048 6.14669 16.3024 5.65137 16.3024 5.65137Z" fill="white"/>
<path d="M15.7089 5.14595C15.7089 5.14595 15.8091 5.28709 15.8696 5.41486C15.9316 5.54126 15.996 5.58154 15.9987 5.42361C16.0006 5.2649 15.9987 5.03703 15.9987 5.03703C15.9987 5.03703 15.9939 4.94028 16.0532 4.94028C16.1118 4.94028 16.1143 5.01749 16.1533 4.97516C16.1909 4.93283 16.154 4.8731 16.1441 4.83608C16.1317 4.79906 16.0916 4.70428 15.9975 4.79109C15.9033 4.87713 15.9113 4.97653 15.9236 5.09488C15.9358 5.21185 15.9504 5.41152 15.8747 5.24339C15.7974 5.07534 15.7544 4.91398 15.6516 4.91398C15.5494 4.91398 15.5743 5.19703 15.6401 5.19703C15.705 5.19686 15.7089 5.14595 15.7089 5.14595Z" fill="white"/>
<path d="M12.8825 6.63684C12.625 6.68252 11.4016 6.65835 11.4016 6.65835C11.8438 6.44994 12.1229 6.35251 12.1229 6.35251L12.2129 6.39887L12.2156 6.325C12.2156 6.325 12.6968 6.13878 12.6968 5.89078C12.6968 5.64209 12.358 5.43968 12.1387 5.43968C11.9203 5.43968 11.7811 5.71793 11.7811 5.87124C11.7811 6.02515 11.8523 6.09842 11.8523 6.09842C11.8523 6.09842 11.0874 6.36056 10.9886 6.43452C10.8898 6.5077 10.8299 6.69126 10.8299 6.79744C10.8299 6.9037 11.1008 6.88219 11.1008 6.88219C11.6467 6.88219 11.7509 7.0361 11.7509 7.0361C11.2098 7.24245 11.3468 7.65859 11.3468 7.65859C10.9368 7.52756 10.8574 7.31983 10.797 7.09266C10.7379 6.86676 10.6827 6.42577 10.6168 6.18583C10.5516 5.94511 10.3244 5.37378 10.2779 5.37378C10.2316 5.37378 10.0978 5.62855 10.1529 5.78649C10.2067 5.94511 10.5106 6.93926 10.5106 6.93926C10.2053 7.52482 9.7671 7.84677 9.48345 7.84677C9.19911 7.84677 9.24273 7.58532 9.24273 7.58532C9.80815 7.29018 10.0602 6.8492 10.0602 6.57694C10.0602 6.3034 9.93112 6.00818 9.93112 6.00818C9.93112 6.00818 10.0212 6.05994 10.0212 5.96448C10.0212 5.86841 9.75364 5.57122 9.71062 5.57122C9.66623 5.57122 9.54326 5.78092 9.54326 5.87441C9.54326 5.96713 9.64747 5.99473 9.64747 5.99473C9.64747 5.99473 9.87404 6.30049 9.87404 6.55466C9.87404 6.80875 9.29526 7.19326 9.29526 7.19326C9.29526 7.19326 9.35507 6.77036 9.27778 6.7839C9.20108 6.79726 9.04117 7.37674 9.04117 7.37674C9.04117 7.37674 8.38509 7.7861 8.34875 7.80358C8.31388 7.8191 7.68933 8.08998 7.94007 8.08998C8.1915 8.08998 9.02969 7.71086 9.02969 7.71086C9.03706 8.17267 9.47068 8.18476 9.47068 8.18476C10.0575 8.18476 10.6033 7.31761 10.6033 7.31761C10.9569 8.11551 11.6742 8.13634 11.8415 8.13634C12.0081 8.13634 12.0325 7.98843 12.0325 7.88491C12.0325 7.78139 11.5486 7.72423 11.5486 7.495C11.5486 7.26508 12.5073 7.06009 12.7452 7.0157C12.9831 6.972 12.9912 6.90078 13.0187 6.82417C13.0465 6.74833 13.1392 6.5904 12.8825 6.63684ZM12.09 5.78974C12.1216 5.78974 12.3742 5.91743 12.3742 5.94631C12.3742 5.97527 12.0859 6.03175 12.0859 6.03175C12.0388 5.90063 12.0596 5.78974 12.09 5.78974Z" fill="white"/>
<path d="M9.6894 4.01173C9.6894 4.01173 9.65444 4.35794 9.65444 4.55221C9.65444 4.74708 9.78761 5.01128 9.89712 5.01128C10.006 5.01128 10.2998 3.93169 10.531 3.93169C10.7622 3.93169 10.5781 4.20797 10.5781 4.75513C10.5781 5.30093 10.9209 5.1094 10.9585 5.09389C10.9975 5.07641 11.2523 4.93124 11.2523 4.59111C11.2523 4.25022 11.1333 3.91686 11.1333 3.86047C11.1333 3.80332 11.2368 3.56465 11.2905 3.61847C11.3443 3.6722 11.4398 4.00093 11.4398 4.23016C11.4398 4.46017 11.5272 5.04624 11.7987 5.04624C12.0702 5.04624 11.8807 4.42649 11.8498 4.32563C11.8189 4.22279 11.6858 3.96605 11.7355 3.90221C11.7873 3.83837 11.8511 3.74153 11.8727 3.69988C11.8956 3.65823 11.9694 3.71128 12.0314 3.77855C12.0933 3.84574 12.2169 4.00641 12.2169 4.15364C12.2169 4.30155 12.0333 4.11602 12.0333 4.11602C12.0333 4.11602 12.1537 4.46891 12.1537 4.77879C12.1537 5.08866 11.9896 5.30984 11.7932 5.30984C11.5969 5.30984 11.3643 5.02276 11.3643 5.02276C11.3643 5.02276 11.17 5.43418 10.7687 5.43418C10.3688 5.43418 10.401 4.81838 10.401 4.81838C10.401 4.81838 10.434 4.48494 10.3903 4.50045C10.3466 4.5145 10.2175 4.91178 10.1718 5.04024C10.1261 5.16998 10.0804 5.30504 9.95137 5.30504C9.82223 5.30504 9.54663 4.9878 9.54663 4.58717C9.54689 4.18646 9.6894 4.01173 9.6894 4.01173Z" fill="white"/>
<path d="M12.7673 4.24106L13.0732 4.68882L13.0234 4.16376C13.0234 4.16376 12.9643 4.11474 12.9643 4.03273C12.9643 3.95141 13.0248 3.76254 13.1081 3.76254C13.1917 3.76254 13.431 4.35203 13.431 4.48383C13.431 4.61555 13.31 4.51871 13.31 4.51871L13.3342 5.11764C13.3342 5.11764 13.9843 6.06817 14.2135 6.65501C14.4435 7.24117 14.3029 7.22968 14.2417 7.08649C14.1792 6.94192 13.7161 5.95925 13.372 5.54114C13.372 5.54114 13.4781 6.64224 13.4781 6.9091C13.4781 7.17732 13.3961 7.71378 13.2737 7.71378C13.1502 7.71378 13.325 7.34674 13.3167 7.12625C13.3087 6.90378 13.1609 5.50352 13.0949 5.11772L12.4288 4.19076C12.4288 4.19076 12.2978 4.20755 12.2978 4.02134C12.2978 3.83649 12.2562 3.65842 12.3408 3.65842C12.4255 3.65842 12.9312 4.12828 12.9312 4.21098C12.9308 4.29205 12.7673 4.24106 12.7673 4.24106Z" fill="white"/>
<path d="M14.5076 4.39901C14.5076 4.39901 14.4976 4.74993 14.5708 5.38374C14.6433 6.01702 14.6542 6.47609 14.6542 6.72752C14.6542 6.97895 14.7309 8.19163 13.4705 8.19163C13.4705 8.19163 13.3933 8.19497 13.3933 8.16335C13.3933 8.1325 13.4694 8.10559 13.5803 8.06797C13.6912 8.03103 14.5308 7.77352 14.4608 6.77534C14.3921 5.77716 14.2759 4.19943 14.2215 4.14835C14.2215 4.14835 14.1702 4.12153 14.1702 4.02332C14.1702 3.9246 14.3625 3.73633 14.4136 3.73633C14.4642 3.73633 14.626 4.28418 14.626 4.39036C14.626 4.49705 14.5076 4.39901 14.5076 4.39901Z" fill="white"/>
<path d="M15.1169 4.47955C15.1169 4.47955 15.3307 6.37385 15.4012 6.84448C15.4724 7.31427 15.213 7.54427 15.1667 7.54427C15.1202 7.54427 15.1774 7.38222 15.1774 7.12608C15.1774 6.86865 14.926 5.19416 14.8709 4.7512C14.8171 4.30885 14.7593 4.31082 14.7593 4.04328C14.7593 3.77573 14.9287 3.67496 14.9723 3.67496C15.0159 3.67496 15.0739 3.85706 15.0739 3.85706C15.0739 3.85706 15.1942 4.21604 15.2594 4.31622C15.3254 4.41776 15.3254 4.46138 15.3254 4.49498C15.3253 4.52737 15.1943 4.54494 15.1169 4.47955Z" fill="white"/>
<path d="M14.9803 6.87679C14.9803 6.87679 14.9695 7.77557 15.2397 7.77557C15.2397 7.77557 15.3143 7.82261 15.5213 7.35206C15.7298 6.88228 15.8278 6.79478 15.926 6.79478C16.0242 6.79478 16.2185 7.18538 16.4121 7.18538C16.6063 7.18538 16.664 6.88493 16.664 6.6671C16.664 6.44737 16.559 5.02757 16.559 5.02757L15.9314 4.22092C15.9314 4.22092 15.9045 4.1941 15.9045 4.01791C15.9045 3.84181 15.8789 3.72818 15.9448 3.72818C16.0108 3.72818 16.1075 3.8754 16.2319 3.98226C16.3563 4.08921 16.4075 4.12683 16.4075 4.18862C16.4075 4.2498 16.3146 4.21158 16.3146 4.21158L16.5203 4.51537L16.4888 4.15177C16.4888 4.15177 16.4316 4.07173 16.4316 3.98775C16.4316 3.90437 16.5312 3.69801 16.5938 3.69801C16.6569 3.69801 16.8527 4.24115 16.8527 4.34664C16.8527 4.4535 16.7674 4.34124 16.7674 4.34124L16.7977 4.92405L17.1835 5.45099C17.1835 5.45099 17.0235 4.45007 17.0235 4.01723C17.0235 4.01723 17.002 3.99709 17.002 3.93453C17.002 3.87197 17.1278 3.66562 17.1902 3.66562C17.2534 3.66562 17.4228 4.24509 17.4228 4.37475C17.4228 4.50252 17.32 4.41374 17.32 4.41374L17.4242 5.78983C17.4242 5.78983 17.9189 6.48354 18.0037 6.67712C18.0883 6.87071 18.0805 7.15308 18.0494 7.13894C18.0197 7.12617 17.7819 6.65219 17.4599 6.27307C17.4599 6.27307 17.5519 7.05418 17.3798 7.17724C17.3798 7.17724 17.3637 6.8552 17.3637 6.69118C17.3637 6.52716 17.2842 6.04049 17.2842 6.04049L16.8387 5.41535C16.8387 5.41535 16.908 6.60111 16.908 6.92315C16.908 7.24511 16.7513 7.54085 16.4616 7.54085C16.1719 7.54085 15.9178 7.18324 15.9178 7.18324C15.9178 7.18324 15.819 7.25111 15.6152 7.6645C15.4101 8.07593 15.347 8.11226 15.2597 8.11226C15.1724 8.11226 14.8228 7.90385 14.8228 7.54967C14.8222 7.19335 14.9803 6.87679 14.9803 6.87679Z" fill="white"/>
<path d="M17.9306 4.00095C17.9306 4.00095 17.9064 3.98622 17.9064 3.91826C17.9064 3.85107 18.026 3.66623 18.0813 3.66623C18.1357 3.66623 18.3903 4.21751 18.3903 4.323C18.3903 4.42917 18.2728 4.30689 18.2728 4.30689C18.2728 4.30689 18.2701 4.40707 18.3366 5.23257C18.4018 6.0567 18.7789 7.54968 17.6913 7.99127C16.6038 8.43363 17.9104 7.70154 18.0946 7.24512C18.2775 6.78802 18.1699 6.19244 18.1081 5.57595C18.0463 4.961 17.9306 4.00095 17.9306 4.00095Z" fill="white"/>
<path d="M16.4477 11.5998H15.2741L15.27 11.4921C15.27 11.4921 15.3501 11.4154 15.3501 11.363C15.3501 11.31 15.2741 11.1668 15.2191 11.1668C15.1646 11.1668 15.0826 11.2865 15.0826 11.3556C15.0826 11.425 15.1665 11.4939 15.1665 11.4939V11.6017L7.01929 11.5759C7.41186 11.9694 7.44888 11.9767 9.21206 12.0205C10.9746 12.0649 15.1867 11.9384 15.1867 11.9384V12.0702C15.1867 12.0702 15.1021 12.1355 15.1021 12.2045C15.1021 12.2736 15.1733 12.3908 15.2371 12.3908C15.301 12.3908 15.34 12.2524 15.34 12.2524H15.7554C15.7554 12.2524 15.7474 12.3363 15.8497 12.3363C15.9518 12.3363 15.9551 12.2411 15.9551 12.2411H16.3995C16.3995 12.2411 16.4639 12.3404 16.5661 12.3404C16.6676 12.3404 16.7974 12.2915 16.7974 11.9312C16.7973 11.5721 16.4477 11.5998 16.4477 11.5998ZM16.3629 12.1355L15.9536 12.1403C15.9536 12.1403 15.9262 12.0656 15.8495 12.0656C15.7727 12.0656 15.7606 12.1524 15.7606 12.1524L15.3589 12.1584C15.3589 12.1584 15.3399 12.0965 15.2836 12.0624L15.2769 11.9325L16.3782 11.9057C16.3777 11.9054 16.3193 12.0433 16.3629 12.1355Z" fill="white"/>
</svg>
