<svg width="101" height="98" viewBox="0 0 101 98" fill="none" xmlns="http://www.w3.org/2000/svg">
<path d="M85.0315 35C85.0315 54.3302 69.3618 70 50.0315 70C30.7013 70 15.0288 54.3302 15.0288 35C15.0288 15.6698 30.6986 0 50.0288 0C69.359 0 85.0288 15.6698 85.0288 35" fill="#204544"/>
<path d="M66.3188 41.7414C66.3188 43.89 65.9196 45.8717 65.1187 47.6896C64.3177 49.5075 63.1835 51.0716 61.7183 52.381C60.2531 53.6904 58.5143 54.7154 56.5024 55.4562C54.4877 56.1998 52.2702 56.5714 49.8481 56.5714C47.5819 56.5714 45.433 56.2386 43.4019 55.5744C41.3708 54.9101 39.5719 53.9801 38.0083 52.7882C36.4474 51.5964 35.157 50.1913 34.1401 48.5675C33.1259 46.9464 32.4809 45.1774 32.2075 43.2638L43.52 39.7482C43.7934 41.7383 44.4386 43.3899 45.4556 44.6994C46.4724 46.0086 47.7214 46.6651 49.2056 46.6652C50.4959 46.6652 51.5487 46.1373 52.3716 45.0822C53.1916 44.027 53.602 42.6793 53.6021 41.0392V36.6154H53.5991L66.3188 32.6603V41.7414ZM66.3218 13.4308V27.3371H53.6021V13.4308H66.3218Z" fill="white"/>
<path d="M40.2939 83.1934C41.081 83.1934 41.8169 83.2851 42.499 83.4688C43.1811 83.6524 43.7943 83.9104 44.3369 84.2432C44.8796 84.5759 45.322 84.9735 45.6631 85.4375C46.004 85.9013 46.2271 86.4039 46.332 86.9463L42.291 87.8389C42.2385 87.4371 42.0186 87.1001 41.6348 86.8281C41.2496 86.5575 40.7857 86.4209 40.2432 86.4209C39.7889 86.4209 39.4155 86.5295 39.127 86.749C38.8385 86.9671 38.6934 87.2435 38.6934 87.5762C38.7113 88.0139 39.0044 88.2887 39.5732 88.4033C40.1421 88.5165 40.8288 88.6275 41.6338 88.7324C42.2812 88.8194 42.9589 88.9379 43.667 89.0869C44.3754 89.236 45.0279 89.4586 45.623 89.7568C46.218 90.0551 46.7086 90.4568 47.0938 90.9648C47.4788 91.4715 47.6708 92.1288 47.6709 92.9336C47.6709 93.6682 47.4948 94.3464 47.1455 94.9678C46.7962 95.5891 46.3098 96.1219 45.6885 96.5693C45.0672 97.0152 44.329 97.3665 43.4717 97.6191C42.6143 97.8732 41.6779 98 40.6631 98L40.3086 97.9951C39.4975 97.9721 38.7394 97.8691 38.0352 97.6855C37.2301 97.4757 36.5213 97.1728 35.9082 96.7793C35.2953 96.3858 34.7929 95.9176 34.3994 95.375C34.0059 94.8324 33.7563 94.2374 33.6514 93.5898L37.9824 92.8027C38.0349 93.3453 38.3196 93.7869 38.8359 94.1279C39.3523 94.4689 39.9859 94.6406 40.7383 94.6406C41.3333 94.6406 41.8282 94.532 42.2217 94.3125C42.6151 94.0944 42.8208 93.8096 42.8389 93.459C42.8389 93.2312 42.7461 93.0392 42.5625 92.8818C42.3788 92.7244 42.1347 92.5967 41.8281 92.5C41.5216 92.4034 41.1802 92.3254 40.8047 92.2646C40.4278 92.2039 40.0482 92.155 39.6631 92.1191C39.0514 92.0487 38.4241 91.9401 37.7861 91.791C37.1483 91.6419 36.5657 91.4193 36.041 91.1211C35.5163 90.8229 35.0872 90.4208 34.7559 89.9141C34.4231 89.4059 34.2568 88.7676 34.2568 87.9971C34.2569 87.2971 34.4063 86.6537 34.7031 86.0684C35 85.4815 35.4158 84.9743 35.9502 84.5449C36.483 84.1171 37.1223 83.7849 37.8662 83.5488C38.6104 83.3127 39.4199 83.1934 40.2939 83.1934ZM26.6719 83.8301H31.7383V97.375H26.6719V94.7236C26.2701 95.6679 25.6959 96.4327 24.9531 97.0195C24.2103 97.6063 23.375 97.8993 22.4473 97.8994C21.7997 97.8994 21.1954 97.7628 20.6348 97.4922C20.0743 97.2202 19.5935 96.8481 19.1904 96.376C18.7874 95.9025 18.4685 95.3352 18.2324 94.6699C17.9949 94.0044 17.8779 93.2773 17.8779 92.4902V85.8477L22.9443 84.2715V91.335C22.9443 91.9645 23.1013 92.481 23.416 92.8828C23.7322 93.2846 24.1703 93.4863 24.7295 93.4863C25.2887 93.4863 25.7528 93.2806 26.1201 92.8691C26.4874 92.4577 26.6709 91.9204 26.6709 91.2549V83.8262L26.6719 83.8301ZM100.061 97.3721H97.2783V95.2715C96.7177 96.0945 96.0271 96.7372 95.2041 97.2012C94.3812 97.6651 93.4449 97.8965 92.3955 97.8965C91.451 97.8965 90.5795 97.7174 89.7842 97.3584C88.9876 96.9994 88.3017 96.5005 87.7246 95.8613C87.1474 95.222 86.6952 94.4649 86.3721 93.5908C86.0491 92.7169 85.8867 91.7533 85.8867 90.7041L85.8955 90.3145C85.9309 89.4152 86.0901 88.5824 86.374 87.8164C86.6971 86.9412 87.1485 86.1847 87.7256 85.5469C88.3028 84.9075 88.9908 84.4084 89.7861 84.0508C90.5826 83.6919 91.4523 83.5127 92.3965 83.5127C93.4114 83.5127 94.3263 83.7366 95.1396 84.1826C95.9527 84.6286 96.6401 85.2636 97.1992 86.085V78H100.061V97.3721ZM54.5469 83.8262H60.7676V87.5791H54.5469L54.5732 92.4619C54.5733 92.9341 54.6828 93.3234 54.9023 93.6299C55.1205 93.9363 55.4032 94.0898 55.7539 94.0898C56.1557 94.0898 56.5143 93.8629 56.8291 93.4072C57.1453 92.9516 57.3462 92.358 57.4346 91.6221V91.6211L61.6338 92.75C61.5468 93.5026 61.3185 94.199 60.9512 94.8369C60.5839 95.4762 60.1157 96.0189 59.5469 96.4648C58.9767 96.9108 58.3266 97.262 57.5908 97.5146C56.8564 97.7687 56.0952 97.8955 55.2559 97.8955C54.4164 97.8955 53.6454 97.7643 52.9453 97.502C52.2466 97.2396 51.6415 96.8801 51.1348 96.4258C50.6282 95.9702 50.229 95.4293 49.9404 94.7998C49.6532 94.1688 49.5088 93.4781 49.5088 92.7256V81.3252L54.5469 79.7578V83.8262ZM76.5156 83.5107C77.3897 83.5107 78.2268 83.6345 78.9697 83.8789C79.7137 84.1233 80.3475 84.4638 80.8721 84.9014C81.3968 85.3391 81.8086 85.8644 82.1055 86.4775C82.4023 87.0892 82.5518 87.7547 82.5518 88.4727V94.7197C82.5518 95.2442 82.762 95.5068 83.1816 95.5068C83.5488 95.5067 83.8735 95.2783 84.1523 94.8242L85.3066 96.5049C84.9918 96.9067 84.5494 97.2396 83.9805 97.502C83.4118 97.7642 82.8485 97.8955 82.2881 97.8955C81.5535 97.8955 80.9542 97.677 80.4902 97.2393C80.0263 96.8015 79.7855 96.2505 79.7676 95.585L79.7412 95.4014C79.269 96.1719 78.6174 96.7796 77.7861 97.2256C76.9549 97.6715 75.9801 97.8955 74.8604 97.8955C74.1257 97.8955 73.4422 97.7944 72.8125 97.5928C72.1829 97.3912 71.6442 97.1065 71.1982 96.7393C70.7525 96.3721 70.402 95.9387 70.1494 95.4404C69.8953 94.942 69.7676 94.3949 69.7676 93.7998C69.7676 92.6979 70.2184 91.7519 71.1201 90.9648C72.0218 90.1779 73.3996 89.6874 75.2539 89.4941L78.6133 89.0742C78.9626 89.0397 79.2432 88.9297 79.4531 88.7461C79.6629 88.5625 79.7675 88.3043 79.7676 87.9717C79.7676 87.6914 79.6812 87.424 79.5059 87.1699C79.3305 86.9159 79.0897 86.6983 78.7832 86.5146C78.4767 86.331 78.1269 86.186 77.7334 86.0811C77.34 85.9762 76.9164 85.9238 76.4609 85.9238L76.2617 85.9297C75.7967 85.9469 75.3652 86.0244 74.9678 86.1621C74.5122 86.3195 74.1185 86.5253 73.7871 86.7793C73.4544 87.0334 73.1879 87.3224 72.9863 87.6455C72.7848 87.9685 72.6677 88.2972 72.6318 88.6299L70.0596 87.6855C70.112 87.1429 70.3137 86.6225 70.6631 86.124C71.0124 85.6255 71.4761 85.1831 72.0547 84.7979C72.6332 84.4127 73.3018 84.1023 74.0625 83.8662C74.8232 83.6302 75.6418 83.5108 76.5156 83.5107ZM15.2773 91.252C15.2773 92.2144 15.0983 93.1027 14.7393 93.916C14.3803 94.7292 13.8716 95.4302 13.2158 96.0156C12.5599 96.6025 11.7812 97.0617 10.8809 97.3945C9.9793 97.7286 8.98651 97.8935 7.90137 97.8936C6.88646 97.8936 5.92226 97.7451 5.01367 97.4482C4.10374 97.1514 3.29869 96.7355 2.59863 96.2012C1.89859 95.6668 1.32049 95.0368 0.866211 94.3105C0.411918 93.5842 0.122894 92.793 0 91.9355L5.06641 90.3613C5.1893 91.2533 5.47792 91.9922 5.93359 92.5791C6.38781 93.1645 6.94827 93.4589 7.6123 93.459C8.19087 93.459 8.66297 93.2236 9.03027 92.75C9.39751 92.2792 9.58197 91.6749 9.58203 90.9404V88.2891L15.2773 86.5176V91.252ZM65.7031 92.3564C66.5423 92.3565 67.2298 92.6107 67.7627 93.1172C68.2957 93.624 68.5635 94.2819 68.5635 95.0869C68.5634 95.8918 68.297 96.552 67.7627 97.0684C67.2284 97.5846 66.5424 97.8427 65.7031 97.8428C64.8636 97.8428 64.1756 97.5847 63.6426 97.0684C63.1082 96.552 62.8418 95.8918 62.8418 95.0869C62.8418 94.2819 63.1082 93.6253 63.6426 93.1172C64.1769 92.6092 64.8637 92.3564 65.7031 92.3564ZM75.4941 91.5186C74.4973 91.6235 73.7653 91.8593 73.3027 92.2266C72.8388 92.5938 72.6065 93.0319 72.6064 93.54C72.6064 94.1172 72.8871 94.5951 73.4463 94.9707C74.0068 95.3462 74.7318 95.5351 75.625 95.5352L75.8477 95.5303C76.9529 95.4903 77.8626 95.1502 78.5771 94.5107C79.338 93.8286 79.7197 92.9531 79.7197 91.8857V91.0459L75.4941 91.5186ZM93.0264 86.0557C92.4134 86.0557 91.824 86.1737 91.3076 86.4111C90.7913 86.6472 90.3413 86.9758 89.9561 87.3955C89.5708 87.8153 89.2734 88.31 89.0635 88.8789C88.8537 89.4476 88.7491 90.0548 88.749 90.7021C88.749 91.3497 88.8576 91.9839 89.0771 92.5527C89.2953 93.1216 89.5941 93.6119 89.9697 94.0234C90.3453 94.4349 90.7966 94.758 91.3213 94.9941C91.846 95.2303 92.4152 95.3486 93.0283 95.3486L93.2539 95.3438C93.7806 95.3178 94.2729 95.2008 94.7334 94.9941C95.258 94.7581 95.7134 94.4294 96.0986 94.0098C96.4839 93.59 96.7813 93.0953 96.9912 92.5264C97.201 91.9576 97.3057 91.3496 97.3057 90.7021C97.3056 90.0549 97.2009 89.4476 96.9912 88.8789C96.7813 88.31 96.4839 87.8153 96.0986 87.3955C95.7134 86.9758 95.2594 86.6472 94.7334 86.4111C94.2073 86.175 93.6395 86.0557 93.0264 86.0557ZM15.2773 84.8047H9.58203V78.5771H15.2773V84.8047Z" fill="#204544"/>
</svg>
