<svg width="16" height="16" viewBox="0 0 16 16" fill="none" xmlns="http://www.w3.org/2000/svg">
<path d="M15.7241 13.2414H0.275874C0.123531 13.2414 0 13.1179 0 12.9656V3.03454C0 2.8822 0.123531 2.75867 0.275874 2.75867H15.7241C15.8765 2.75867 16 2.8822 16 3.03454V12.9656C16 13.1179 15.8764 13.2414 15.7241 13.2414Z" fill="#F5F5F5"/>
<path d="M16 3.56507H0V3.03454C0 2.8822 0.123531 2.75867 0.275874 2.75867H15.7241C15.8765 2.75867 16 2.8822 16 3.03454L16 3.56507Z" fill="#FF4B55"/>
<path d="M16 5.98413H0V6.7905H16V5.98413Z" fill="#FF4B55"/>
<path d="M16 4.37134H0V5.17771H16V4.37134Z" fill="#FF4B55"/>
<path d="M16 8.40321H0.275874C0.123531 8.40321 0 8.27968 0 8.12733V7.5968H16V8.40321Z" fill="#FF4B55"/>
<path d="M16 10.8225H0V11.6289H16V10.8225Z" fill="#FF4B55"/>
<path d="M15.7241 13.2414H0.275874C0.123531 13.2414 0 13.1179 0 12.9656V12.4351H16V12.9656C16 13.1179 15.8764 13.2414 15.7241 13.2414Z" fill="#FF4B55"/>
<path d="M16 9.20972H0V10.0161H16V9.20972Z" fill="#FF4B55"/>
<path d="M7.17239 2.75867H0.275874C0.123531 2.75867 0 2.88217 0 3.03451V8.12731C0 8.27966 0.123531 8.40319 0.275874 8.40319H7.17242C7.32477 8.40319 7.4483 8.27966 7.4483 8.12731V3.03451C7.44827 2.88217 7.32474 2.75867 7.17239 2.75867Z" fill="#41479B"/>
<path d="M0.774573 3.39193L0.835635 3.57506L1.02867 3.57652C1.05367 3.57674 1.06401 3.60862 1.04392 3.62346L0.888635 3.73815L0.946885 3.92218C0.954448 3.94599 0.927292 3.96574 0.906948 3.95118L0.749917 3.83896L0.592886 3.95121C0.572542 3.96574 0.545449 3.94602 0.552949 3.92221L0.611198 3.73818L0.455917 3.62349C0.435824 3.60862 0.446167 3.57677 0.471167 3.57656L0.664198 3.57509L0.725261 3.39196C0.733136 3.36821 0.766636 3.36821 0.774573 3.39193Z" fill="#F5F5F5"/>
<path d="M0.774573 4.34979L0.835635 4.53292L1.02867 4.53439C1.05367 4.53461 1.06401 4.56648 1.04392 4.58132L0.888635 4.69601L0.946885 4.88004C0.954448 4.90385 0.927292 4.9236 0.906948 4.90904L0.749917 4.79682L0.592886 4.90907C0.572542 4.9236 0.545449 4.90389 0.552949 4.88007L0.611198 4.69604L0.455917 4.58136C0.435824 4.56648 0.446167 4.53464 0.471167 4.53442L0.664198 4.53295L0.725261 4.34982C0.733136 4.32611 0.766636 4.32611 0.774573 4.34979Z" fill="#F5F5F5"/>
<path d="M0.774573 5.30768L0.835635 5.4908L1.02867 5.49227C1.05367 5.49249 1.06401 5.52437 1.04392 5.53921L0.888635 5.6539L0.946885 5.83793C0.954448 5.86174 0.927292 5.88149 0.906948 5.86693L0.749917 5.75471L0.592886 5.86696C0.572542 5.88149 0.545449 5.86177 0.552949 5.83796L0.611198 5.65393L0.455917 5.53924C0.435824 5.52437 0.446167 5.49252 0.471167 5.4923L0.664198 5.49083L0.725261 5.30771C0.733136 5.28399 0.766636 5.28399 0.774573 5.30768Z" fill="#F5F5F5"/>
<path d="M0.774573 6.26571L0.835635 6.44883L1.02867 6.4503C1.05367 6.45052 1.06401 6.4824 1.04392 6.49724L0.888635 6.61193L0.946885 6.79596C0.954448 6.81977 0.927292 6.83952 0.906948 6.82496L0.749917 6.71274L0.592886 6.82499C0.572542 6.83952 0.545449 6.8198 0.552949 6.79599L0.611198 6.61196L0.455917 6.49727C0.435824 6.4824 0.446167 6.45055 0.471167 6.45033L0.664198 6.44887L0.725261 6.26574C0.733136 6.24199 0.766636 6.24199 0.774573 6.26571Z" fill="#F5F5F5"/>
<path d="M0.774573 7.22362L0.835635 7.40674L1.02867 7.40821C1.05367 7.40843 1.06401 7.44031 1.04392 7.45515L0.888635 7.56984L0.946885 7.75387C0.954448 7.77768 0.927292 7.79743 0.906948 7.78287L0.749917 7.67065L0.592886 7.7829C0.572542 7.79743 0.545449 7.77771 0.552949 7.7539L0.611198 7.56987L0.455917 7.45518C0.435824 7.44031 0.446167 7.40846 0.471167 7.40824L0.664198 7.40678L0.725261 7.22365C0.733136 7.19987 0.766636 7.19987 0.774573 7.22362Z" fill="#F5F5F5"/>
<path d="M1.51798 3.86152L1.57904 4.04464L1.77207 4.04611C1.79707 4.04633 1.80742 4.0782 1.78732 4.09305L1.63204 4.20773L1.69029 4.39176C1.69786 4.41558 1.6707 4.43533 1.65036 4.42076L1.49333 4.30851L1.33629 4.42076C1.31595 4.4353 1.28886 4.41558 1.29636 4.39176L1.35461 4.20773L1.19933 4.09305C1.17923 4.07817 1.18958 4.04633 1.21458 4.04611L1.40761 4.04464L1.46867 3.86152C1.47651 3.83783 1.51008 3.83783 1.51798 3.86152Z" fill="#F5F5F5"/>
<path d="M1.51798 4.81942L1.57904 5.00255L1.77207 5.00402C1.79707 5.00424 1.80742 5.03611 1.78732 5.05096L1.63204 5.16564L1.69029 5.34967C1.69786 5.37349 1.6707 5.39324 1.65036 5.37867L1.49333 5.26642L1.33629 5.37867C1.31595 5.3932 1.28886 5.37352 1.29636 5.34967L1.35461 5.16564L1.19933 5.05096C1.17923 5.03608 1.18958 5.00424 1.21458 5.00402L1.40761 5.00255L1.46867 4.81942C1.47651 4.79571 1.51008 4.79571 1.51798 4.81942Z" fill="#F5F5F5"/>
<path d="M1.51798 5.77731L1.57904 5.96043L1.77207 5.9619C1.79707 5.96212 1.80742 5.994 1.78732 6.00884L1.63204 6.12353L1.69029 6.30756C1.69786 6.33137 1.6707 6.35112 1.65036 6.33656L1.49333 6.22431L1.33629 6.33656C1.31595 6.35109 1.28886 6.33137 1.29636 6.30756L1.35461 6.12353L1.19933 6.00884C1.17923 5.99397 1.18958 5.96212 1.21458 5.9619L1.40761 5.96043L1.46867 5.77731C1.47651 5.75359 1.51008 5.75359 1.51798 5.77731Z" fill="#F5F5F5"/>
<path d="M1.51798 6.73529L1.57904 6.91842L1.77207 6.91989C1.79707 6.92011 1.80742 6.95198 1.78732 6.96683L1.63204 7.08151L1.69029 7.26554C1.69786 7.28936 1.6707 7.30911 1.65036 7.29454L1.49333 7.18229L1.33629 7.29454C1.31595 7.30907 1.28886 7.28936 1.29636 7.26554L1.35461 7.08151L1.19933 6.96683C1.17923 6.95195 1.18958 6.92011 1.21458 6.91989L1.40761 6.91842L1.46867 6.73529C1.47651 6.71161 1.51008 6.71161 1.51798 6.73529Z" fill="#F5F5F5"/>
<path d="M2.26163 3.39181L2.3227 3.57494L2.51573 3.57641C2.54073 3.57662 2.55107 3.6085 2.53098 3.62334L2.3757 3.73803L2.43395 3.92206C2.44151 3.94587 2.41435 3.96562 2.39401 3.95106L2.23698 3.83881L2.07995 3.95106C2.0596 3.96559 2.03251 3.94587 2.04001 3.92206L2.09826 3.73803L1.94298 3.62334C1.92288 3.60847 1.93323 3.57662 1.95823 3.57641L2.15126 3.57494L2.21232 3.39181C2.2202 3.36809 2.25373 3.36809 2.26163 3.39181Z" fill="#F5F5F5"/>
<path d="M2.26163 4.3498L2.3227 4.53292L2.51573 4.53439C2.54073 4.53461 2.55107 4.56648 2.53098 4.58133L2.3757 4.69601L2.43395 4.88005C2.44151 4.90386 2.41435 4.92361 2.39401 4.90905L2.23698 4.7968L2.07995 4.90905C2.0596 4.92358 2.03251 4.90386 2.04001 4.88005L2.09826 4.69601L1.94298 4.58133C1.92288 4.56645 1.93323 4.53461 1.95823 4.53439L2.15126 4.53292L2.21232 4.3498C2.2202 4.32611 2.25373 4.32611 2.26163 4.3498Z" fill="#F5F5F5"/>
<path d="M2.26163 5.30768L2.3227 5.49081L2.51573 5.49228C2.54073 5.4925 2.55107 5.52437 2.53098 5.53921L2.3757 5.6539L2.43395 5.83793C2.44151 5.86174 2.41435 5.88149 2.39401 5.86693L2.23698 5.75468L2.07995 5.86693C2.0596 5.88146 2.03251 5.86174 2.04001 5.83793L2.09826 5.6539L1.94298 5.53921C1.92288 5.52434 1.93323 5.4925 1.95823 5.49228L2.15126 5.49081L2.21232 5.30768C2.2202 5.284 2.25373 5.284 2.26163 5.30768Z" fill="#F5F5F5"/>
<path d="M2.26163 6.26559L2.3227 6.44872L2.51573 6.45019C2.54073 6.4504 2.55107 6.48228 2.53098 6.49712L2.3757 6.61181L2.43395 6.79584C2.44151 6.81965 2.41435 6.8394 2.39401 6.82484L2.23698 6.71259L2.07995 6.82484C2.0596 6.83937 2.03251 6.81965 2.04001 6.79584L2.09826 6.61181L1.94298 6.49712C1.92288 6.48225 1.93323 6.4504 1.95823 6.45019L2.15126 6.44872L2.21232 6.26559C2.2202 6.24187 2.25373 6.24187 2.26163 6.26559Z" fill="#F5F5F5"/>
<path d="M2.26163 7.22362L2.3227 7.40675L2.51573 7.40822C2.54073 7.40844 2.55107 7.44031 2.53098 7.45515L2.3757 7.56984L2.43395 7.75387C2.44151 7.77768 2.41435 7.79743 2.39401 7.78287L2.23698 7.67062L2.07995 7.78287C2.0596 7.7974 2.03251 7.77768 2.04001 7.75387L2.09826 7.56984L1.94298 7.45515C1.92288 7.44028 1.93323 7.40844 1.95823 7.40822L2.15126 7.40675L2.21232 7.22362C2.2202 7.19987 2.25373 7.19987 2.26163 7.22362Z" fill="#F5F5F5"/>
<path d="M3.00529 3.86152L3.06635 4.04464L3.25938 4.04611C3.28438 4.04633 3.29472 4.0782 3.27463 4.09305L3.11935 4.20773L3.1776 4.39176C3.18516 4.41558 3.158 4.43533 3.13766 4.42076L2.98063 4.30851L2.8236 4.42076C2.80326 4.4353 2.77616 4.41558 2.78366 4.39176L2.84191 4.20773L2.68663 4.09305C2.66654 4.07817 2.67688 4.04633 2.70188 4.04611L2.89491 4.04464L2.95597 3.86152C2.96382 3.83783 2.99738 3.83783 3.00529 3.86152Z" fill="#F5F5F5"/>
<path d="M3.00529 4.81942L3.06635 5.00255L3.25938 5.00402C3.28438 5.00424 3.29472 5.03611 3.27463 5.05096L3.11935 5.16564L3.1776 5.34967C3.18516 5.37349 3.158 5.39324 3.13766 5.37867L2.98063 5.26642L2.8236 5.37867C2.80326 5.3932 2.77616 5.37352 2.78366 5.34967L2.84191 5.16564L2.68663 5.05096C2.66654 5.03608 2.67688 5.00424 2.70188 5.00402L2.89491 5.00255L2.95597 4.81942C2.96382 4.79571 2.99738 4.79571 3.00529 4.81942Z" fill="#F5F5F5"/>
<path d="M3.00529 5.77731L3.06635 5.96043L3.25938 5.9619C3.28438 5.96212 3.29472 5.994 3.27463 6.00884L3.11935 6.12353L3.1776 6.30756C3.18516 6.33137 3.158 6.35112 3.13766 6.33656L2.98063 6.22431L2.8236 6.33656C2.80326 6.35109 2.77616 6.33137 2.78366 6.30756L2.84191 6.12353L2.68663 6.00884C2.66654 5.99397 2.67688 5.96212 2.70188 5.9619L2.89491 5.96043L2.95597 5.77731C2.96382 5.75359 2.99738 5.75359 3.00529 5.77731Z" fill="#F5F5F5"/>
<path d="M3.00529 6.73529L3.06635 6.91842L3.25938 6.91989C3.28438 6.92011 3.29472 6.95198 3.27463 6.96683L3.11935 7.08151L3.1776 7.26554C3.18516 7.28936 3.158 7.30911 3.13766 7.29454L2.98063 7.18229L2.8236 7.29454C2.80326 7.30907 2.77616 7.28936 2.78366 7.26554L2.84191 7.08151L2.68663 6.96683C2.66654 6.95195 2.67688 6.92011 2.70188 6.91989L2.89491 6.91842L2.95597 6.73529C2.96382 6.71161 2.99738 6.71161 3.00529 6.73529Z" fill="#F5F5F5"/>
<path d="M3.74873 3.39181L3.80979 3.57494L4.00282 3.57641C4.02782 3.57662 4.03816 3.6085 4.01807 3.62334L3.86279 3.73803L3.92104 3.92206C3.9286 3.94587 3.90144 3.96562 3.8811 3.95106L3.72404 3.83881L3.56701 3.95106C3.54666 3.96559 3.51957 3.94587 3.52707 3.92206L3.58532 3.73803L3.43004 3.62334C3.40994 3.60847 3.42029 3.57662 3.44529 3.57641L3.63832 3.57494L3.69938 3.39181C3.70729 3.36809 3.74082 3.36809 3.74873 3.39181Z" fill="#F5F5F5"/>
<path d="M3.74873 4.3498L3.80979 4.53292L4.00282 4.53439C4.02782 4.53461 4.03816 4.56648 4.01807 4.58133L3.86279 4.69601L3.92104 4.88005C3.9286 4.90386 3.90144 4.92361 3.8811 4.90905L3.72404 4.7968L3.56701 4.90905C3.54666 4.92358 3.51957 4.90386 3.52707 4.88005L3.58532 4.69601L3.43004 4.58133C3.40994 4.56645 3.42029 4.53461 3.44529 4.53439L3.63832 4.53292L3.69938 4.3498C3.70729 4.32611 3.74082 4.32611 3.74873 4.3498Z" fill="#F5F5F5"/>
<path d="M3.74873 5.30768L3.80979 5.49081L4.00282 5.49228C4.02782 5.4925 4.03816 5.52437 4.01807 5.53921L3.86279 5.6539L3.92104 5.83793C3.9286 5.86174 3.90144 5.88149 3.8811 5.86693L3.72404 5.75468L3.56701 5.86693C3.54666 5.88146 3.51957 5.86174 3.52707 5.83793L3.58532 5.6539L3.43004 5.53921C3.40994 5.52434 3.42029 5.4925 3.44529 5.49228L3.63832 5.49081L3.69938 5.30768C3.70729 5.284 3.74082 5.284 3.74873 5.30768Z" fill="#F5F5F5"/>
<path d="M3.74873 6.26559L3.80979 6.44872L4.00282 6.45019C4.02782 6.4504 4.03816 6.48228 4.01807 6.49712L3.86279 6.61181L3.92104 6.79584C3.9286 6.81965 3.90144 6.8394 3.8811 6.82484L3.72404 6.71259L3.56701 6.82484C3.54666 6.83937 3.51957 6.81965 3.52707 6.79584L3.58532 6.61181L3.43004 6.49712C3.40994 6.48225 3.42029 6.4504 3.44529 6.45019L3.63832 6.44872L3.69938 6.26559C3.70729 6.24187 3.74082 6.24187 3.74873 6.26559Z" fill="#F5F5F5"/>
<path d="M3.74873 7.22362L3.80979 7.40675L4.00282 7.40822C4.02782 7.40844 4.03816 7.44031 4.01807 7.45515L3.86279 7.56984L3.92104 7.75387C3.9286 7.77768 3.90144 7.79743 3.8811 7.78287L3.72404 7.67062L3.56701 7.78287C3.54666 7.7974 3.51957 7.77768 3.52707 7.75387L3.58532 7.56984L3.43004 7.45515C3.40994 7.44028 3.42029 7.40844 3.44529 7.40822L3.63832 7.40675L3.69938 7.22362C3.70729 7.19987 3.74082 7.19987 3.74873 7.22362Z" fill="#F5F5F5"/>
<path d="M4.49235 3.86152L4.55341 4.04464L4.74644 4.04611C4.77144 4.04633 4.78178 4.0782 4.76169 4.09305L4.60641 4.20773L4.66466 4.39176C4.67222 4.41558 4.64506 4.43533 4.62472 4.42076L4.46769 4.30851L4.31066 4.42076C4.29032 4.4353 4.26322 4.41558 4.27072 4.39176L4.32897 4.20773L4.17369 4.09305C4.1536 4.07817 4.16394 4.04633 4.18894 4.04611L4.38197 4.04464L4.44303 3.86152C4.45094 3.83783 4.48444 3.83783 4.49235 3.86152Z" fill="#F5F5F5"/>
<path d="M4.49235 4.81942L4.55341 5.00255L4.74644 5.00402C4.77144 5.00424 4.78178 5.03611 4.76169 5.05096L4.60641 5.16564L4.66466 5.34967C4.67222 5.37349 4.64506 5.39324 4.62472 5.37867L4.46769 5.26642L4.31066 5.37867C4.29032 5.3932 4.26322 5.37352 4.27072 5.34967L4.32897 5.16564L4.17369 5.05096C4.1536 5.03608 4.16394 5.00424 4.18894 5.00402L4.38197 5.00255L4.44303 4.81942C4.45094 4.79571 4.48444 4.79571 4.49235 4.81942Z" fill="#F5F5F5"/>
<path d="M4.49235 5.77731L4.55341 5.96043L4.74644 5.9619C4.77144 5.96212 4.78178 5.994 4.76169 6.00884L4.60641 6.12353L4.66466 6.30756C4.67222 6.33137 4.64506 6.35112 4.62472 6.33656L4.46769 6.22431L4.31066 6.33656C4.29032 6.35109 4.26322 6.33137 4.27072 6.30756L4.32897 6.12353L4.17369 6.00884C4.1536 5.99397 4.16394 5.96212 4.18894 5.9619L4.38197 5.96043L4.44303 5.77731C4.45094 5.75359 4.48444 5.75359 4.49235 5.77731Z" fill="#F5F5F5"/>
<path d="M4.49235 6.73529L4.55341 6.91842L4.74644 6.91989C4.77144 6.92011 4.78178 6.95198 4.76169 6.96683L4.60641 7.08151L4.66466 7.26554C4.67222 7.28936 4.64506 7.30911 4.62472 7.29454L4.46769 7.18229L4.31066 7.29454C4.29032 7.30907 4.26322 7.28936 4.27072 7.26554L4.32897 7.08151L4.17369 6.96683C4.1536 6.95195 4.16394 6.92011 4.18894 6.91989L4.38197 6.91842L4.44303 6.73529C4.45094 6.71161 4.48444 6.71161 4.49235 6.73529Z" fill="#F5F5F5"/>
<path d="M5.23575 3.39181L5.29682 3.57494L5.48985 3.57641C5.51485 3.57662 5.52519 3.6085 5.5051 3.62334L5.34982 3.73803L5.40807 3.92206C5.41563 3.94587 5.38847 3.96562 5.36813 3.95106L5.2111 3.83881L5.05407 3.95106C5.03372 3.96559 5.00663 3.94587 5.01413 3.92206L5.07238 3.73803L4.9171 3.62334C4.89701 3.60847 4.90735 3.57662 4.93235 3.57641L5.12538 3.57494L5.18644 3.39181C5.19429 3.36809 5.22785 3.36809 5.23575 3.39181Z" fill="#F5F5F5"/>
<path d="M5.23575 4.3498L5.29682 4.53292L5.48985 4.53439C5.51485 4.53461 5.52519 4.56648 5.5051 4.58133L5.34982 4.69601L5.40807 4.88005C5.41563 4.90386 5.38847 4.92361 5.36813 4.90905L5.2111 4.7968L5.05407 4.90905C5.03372 4.92358 5.00663 4.90386 5.01413 4.88005L5.07238 4.69601L4.9171 4.58133C4.89701 4.56645 4.90735 4.53461 4.93235 4.53439L5.12538 4.53292L5.18644 4.3498C5.19429 4.32611 5.22785 4.32611 5.23575 4.3498Z" fill="#F5F5F5"/>
<path d="M5.23575 5.30768L5.29682 5.49081L5.48985 5.49228C5.51485 5.4925 5.52519 5.52437 5.5051 5.53921L5.34982 5.6539L5.40807 5.83793C5.41563 5.86174 5.38847 5.88149 5.36813 5.86693L5.2111 5.75468L5.05407 5.86693C5.03372 5.88146 5.00663 5.86174 5.01413 5.83793L5.07238 5.6539L4.9171 5.53921C4.89701 5.52434 4.90735 5.4925 4.93235 5.49228L5.12538 5.49081L5.18644 5.30768C5.19429 5.284 5.22785 5.284 5.23575 5.30768Z" fill="#F5F5F5"/>
<path d="M5.23575 6.26559L5.29682 6.44872L5.48985 6.45019C5.51485 6.4504 5.52519 6.48228 5.5051 6.49712L5.34982 6.61181L5.40807 6.79584C5.41563 6.81965 5.38847 6.8394 5.36813 6.82484L5.2111 6.71259L5.05407 6.82484C5.03372 6.83937 5.00663 6.81965 5.01413 6.79584L5.07238 6.61181L4.9171 6.49712C4.89701 6.48225 4.90735 6.4504 4.93235 6.45019L5.12538 6.44872L5.18644 6.26559C5.19429 6.24187 5.22785 6.24187 5.23575 6.26559Z" fill="#F5F5F5"/>
<path d="M5.23575 7.22362L5.29682 7.40675L5.48985 7.40822C5.51485 7.40844 5.52519 7.44031 5.5051 7.45515L5.34982 7.56984L5.40807 7.75387C5.41563 7.77768 5.38847 7.79743 5.36813 7.78287L5.2111 7.67062L5.05407 7.78287C5.03372 7.7974 5.00663 7.77768 5.01413 7.75387L5.07238 7.56984L4.9171 7.45515C4.89701 7.44028 4.90735 7.40844 4.93235 7.40822L5.12538 7.40675L5.18644 7.22362C5.19429 7.19987 5.22785 7.19987 5.23575 7.22362Z" fill="#F5F5F5"/>
<path d="M5.97941 3.86152L6.04047 4.04464L6.2335 4.04611C6.2585 4.04633 6.26884 4.0782 6.24875 4.09305L6.09347 4.20773L6.15172 4.39176C6.15928 4.41558 6.13213 4.43533 6.11178 4.42076L5.95475 4.30851L5.79772 4.42076C5.77738 4.4353 5.75028 4.41558 5.75778 4.39176L5.81603 4.20773L5.66075 4.09305C5.64066 4.07817 5.651 4.04633 5.676 4.04611L5.86903 4.04464L5.93009 3.86152C5.93797 3.83783 5.97153 3.83783 5.97941 3.86152Z" fill="#F5F5F5"/>
<path d="M5.97941 4.81942L6.04047 5.00255L6.2335 5.00402C6.2585 5.00424 6.26884 5.03611 6.24875 5.05096L6.09347 5.16564L6.15172 5.34967C6.15928 5.37349 6.13213 5.39324 6.11178 5.37867L5.95475 5.26642L5.79772 5.37867C5.77738 5.3932 5.75028 5.37352 5.75778 5.34967L5.81603 5.16564L5.66075 5.05096C5.64066 5.03608 5.651 5.00424 5.676 5.00402L5.86903 5.00255L5.93009 4.81942C5.93797 4.79571 5.97153 4.79571 5.97941 4.81942Z" fill="#F5F5F5"/>
<path d="M5.97941 5.77731L6.04047 5.96043L6.2335 5.9619C6.2585 5.96212 6.26884 5.994 6.24875 6.00884L6.09347 6.12353L6.15172 6.30756C6.15928 6.33137 6.13213 6.35112 6.11178 6.33656L5.95475 6.22431L5.79772 6.33656C5.77738 6.35109 5.75028 6.33137 5.75778 6.30756L5.81603 6.12353L5.66075 6.00884C5.64066 5.99397 5.651 5.96212 5.676 5.9619L5.86903 5.96043L5.93009 5.77731C5.93797 5.75359 5.97153 5.75359 5.97941 5.77731Z" fill="#F5F5F5"/>
<path d="M5.97941 6.73529L6.04047 6.91842L6.2335 6.91989C6.2585 6.92011 6.26884 6.95198 6.24875 6.96683L6.09347 7.08151L6.15172 7.26554C6.15928 7.28936 6.13213 7.30911 6.11178 7.29454L5.95475 7.18229L5.79772 7.29454C5.77738 7.30907 5.75028 7.28936 5.75778 7.26554L5.81603 7.08151L5.66075 6.96683C5.64066 6.95195 5.651 6.92011 5.676 6.91989L5.86903 6.91842L5.93009 6.73529C5.93797 6.71161 5.97153 6.71161 5.97941 6.73529Z" fill="#F5F5F5"/>
<path d="M6.72282 3.39181L6.78388 3.57494L6.97691 3.57641C7.00191 3.57662 7.01225 3.6085 6.99216 3.62334L6.83688 3.73803L6.89513 3.92206C6.90269 3.94587 6.87553 3.96562 6.85519 3.95106L6.69816 3.83881L6.54113 3.95106C6.52078 3.96559 6.49369 3.94587 6.50119 3.92206L6.55944 3.73803L6.40416 3.62334C6.38407 3.60847 6.39441 3.57662 6.41941 3.57641L6.61244 3.57494L6.6735 3.39181C6.68138 3.36809 6.71488 3.36809 6.72282 3.39181Z" fill="#F5F5F5"/>
<path d="M6.72282 4.3498L6.78388 4.53292L6.97691 4.53439C7.00191 4.53461 7.01225 4.56648 6.99216 4.58133L6.83688 4.69601L6.89513 4.88005C6.90269 4.90386 6.87553 4.92361 6.85519 4.90905L6.69816 4.7968L6.54113 4.90905C6.52078 4.92358 6.49369 4.90386 6.50119 4.88005L6.55944 4.69601L6.40416 4.58133C6.38407 4.56645 6.39441 4.53461 6.41941 4.53439L6.61244 4.53292L6.6735 4.3498C6.68138 4.32611 6.71488 4.32611 6.72282 4.3498Z" fill="#F5F5F5"/>
<path d="M6.72282 5.30768L6.78388 5.49081L6.97691 5.49228C7.00191 5.4925 7.01225 5.52437 6.99216 5.53921L6.83688 5.6539L6.89513 5.83793C6.90269 5.86174 6.87553 5.88149 6.85519 5.86693L6.69816 5.75468L6.54113 5.86693C6.52078 5.88146 6.49369 5.86174 6.50119 5.83793L6.55944 5.6539L6.40416 5.53921C6.38407 5.52434 6.39441 5.4925 6.41941 5.49228L6.61244 5.49081L6.6735 5.30768C6.68138 5.284 6.71488 5.284 6.72282 5.30768Z" fill="#F5F5F5"/>
<path d="M6.72282 6.26559L6.78388 6.44872L6.97691 6.45019C7.00191 6.4504 7.01225 6.48228 6.99216 6.49712L6.83688 6.61181L6.89513 6.79584C6.90269 6.81965 6.87553 6.8394 6.85519 6.82484L6.69816 6.71259L6.54113 6.82484C6.52078 6.83937 6.49369 6.81965 6.50119 6.79584L6.55944 6.61181L6.40416 6.49712C6.38407 6.48225 6.39441 6.4504 6.41941 6.45019L6.61244 6.44872L6.6735 6.26559C6.68138 6.24187 6.71488 6.24187 6.72282 6.26559Z" fill="#F5F5F5"/>
<path d="M6.72282 7.22362L6.78388 7.40675L6.97691 7.40822C7.00191 7.40844 7.01225 7.44031 6.99216 7.45515L6.83688 7.56984L6.89513 7.75387C6.90269 7.77768 6.87553 7.79743 6.85519 7.78287L6.69816 7.67062L6.54113 7.78287C6.52078 7.7974 6.49369 7.77768 6.50119 7.75387L6.55944 7.56984L6.40416 7.45515C6.38407 7.44028 6.39441 7.40844 6.41941 7.40822L6.61244 7.40675L6.6735 7.22362C6.68138 7.19987 6.71488 7.19987 6.72282 7.22362Z" fill="#F5F5F5"/>
</svg>
