<svg width="20" height="21" viewBox="0 0 20 21" fill="none" xmlns="http://www.w3.org/2000/svg">
<path fill-rule="evenodd" clip-rule="evenodd" d="M12.3876 11.6691C12.0091 11.8238 11.7673 12.4164 11.522 12.7191C11.3962 12.8742 11.2462 12.8984 11.0528 12.8207C9.63214 12.2547 8.54307 11.3066 7.75909 9.99922C7.62628 9.79648 7.6501 9.63633 7.81026 9.44805C8.04698 9.16914 8.34464 8.85234 8.4087 8.47656C8.55089 7.64531 7.46417 5.0668 6.02901 6.23516C1.89932 9.60039 12.9181 18.5258 14.9067 13.6984C15.4692 12.3301 13.0149 11.4121 12.3876 11.6691ZM10.0001 18.7531C8.53956 18.7531 7.10245 18.3648 5.84424 17.6297C5.64229 17.5113 5.39815 17.4801 5.17237 17.5414L2.43839 18.2918L3.39073 16.1938C3.52042 15.9082 3.48721 15.5758 3.30401 15.3219C2.28526 13.9098 1.74659 12.2426 1.74659 10.5C1.74659 5.94883 5.44893 2.24648 10.0001 2.24648C14.5513 2.24648 18.2532 5.94883 18.2532 10.5C18.2532 15.0508 14.5509 18.7531 10.0001 18.7531ZM10.0001 0.5C4.48604 0.5 0.000104544 4.98594 0.000104544 10.5C0.000104544 12.4398 0.550886 14.3027 1.59737 15.9195L0.0782295 19.2652C-0.0620048 19.5742 -0.0108329 19.9359 0.208698 20.1934C0.377448 20.3906 0.621589 20.5 0.873542 20.5C1.43682 20.5 4.50831 19.5348 5.28995 19.3203C6.73487 20.0934 8.35557 20.5 10.0001 20.5C15.5138 20.5 20.0001 16.0137 20.0001 10.5C20.0001 4.98594 15.5138 0.5 10.0001 0.5Z" fill="#204544"/>
</svg>
