<svg width="19" height="17" viewBox="0 0 19 17" fill="none" xmlns="http://www.w3.org/2000/svg">
<path d="M11.6172 6.28906C11.793 6.32422 11.9336 6.53516 11.9336 6.74609V9.62891C11.9336 9.91016 11.7227 10.1211 11.4414 10.1211C11.1953 10.1211 10.9492 9.91016 10.9492 9.62891V8.1875L10.3867 8.96094C10.1758 9.20703 9.78906 9.20703 9.57812 8.96094L9.01562 8.1875V9.66406C9.01562 9.94531 8.76953 10.1562 8.52344 10.1562C8.24219 10.1562 8.03125 9.94531 8.03125 9.66406V6.74609C8.03125 6.53516 8.17188 6.32422 8.34766 6.28906C8.55859 6.21875 8.76953 6.28906 8.91016 6.42969L10 7.87109L11.0547 6.42969C11.1953 6.28906 11.4062 6.21875 11.6172 6.28906ZM5.95703 7.73047C6.48438 7.87109 7.43359 8.15234 7.25781 9.17188C7.15234 9.80469 6.625 10.1562 5.88672 10.1562C5.78125 10.1562 5.64062 10.1562 5.5 10.1211C5.25391 10.0859 5.00781 10.0156 4.76172 9.91016C4.51562 9.83984 4.33984 9.52344 4.44531 9.27734C4.51562 9.03125 4.76172 8.89062 5.00781 8.96094C5.21875 9.03125 5.46484 9.13672 5.64062 9.17188C5.99219 9.20703 6.27344 9.13672 6.30859 9.03125C6.34375 8.82031 5.99219 8.75 5.57031 8.64453C5.18359 8.53906 4.19922 8.22266 4.375 7.23828C4.51562 6.5 5.21875 6.11328 6.16797 6.28906C6.34375 6.28906 6.51953 6.35938 6.73047 6.42969C6.97656 6.53516 7.11719 6.78125 7.01172 7.0625C6.94141 7.30859 6.66016 7.44922 6.41406 7.34375C6.27344 7.30859 6.13281 7.27344 5.99219 7.23828C5.64062 7.20312 5.35938 7.27344 5.35938 7.37891C5.32422 7.55469 5.64062 7.625 5.95703 7.73047ZM14.2891 7.73047C14.7812 7.87109 15.7656 8.15234 15.5898 9.17188C15.4844 9.80469 14.957 10.1562 14.1836 10.1562C14.0781 10.1562 13.9375 10.1562 13.832 10.1211C13.5508 10.0859 13.3047 9.98047 13.0938 9.91016C12.8477 9.83984 12.6719 9.52344 12.7422 9.27734C12.8477 9.03125 13.0586 8.89062 13.3398 8.96094C13.5508 9.03125 13.7617 9.13672 13.9727 9.17188C14.3242 9.20703 14.6055 9.13672 14.6406 8.99609C14.6406 8.82031 14.2891 8.75 13.8672 8.64453C13.5156 8.53906 12.5312 8.22266 12.707 7.23828C12.8125 6.5 13.5156 6.14844 14.4648 6.28906C14.6406 6.32422 14.8516 6.35938 15.0273 6.42969C15.2734 6.53516 15.4141 6.78125 15.3438 7.0625C15.2383 7.30859 14.957 7.44922 14.7109 7.34375C14.5703 7.30859 14.4297 7.27344 14.3242 7.23828C13.9727 7.20312 13.6914 7.27344 13.6562 7.37891C13.6211 7.55469 13.9375 7.625 14.2891 7.73047ZM10 0.875C14.957 0.875 19 4.17969 19 8.1875C19 12.2305 14.957 15.5 10 15.5C8.83984 15.5 7.71484 15.3242 6.73047 15.0078C5.67578 15.7461 3.98828 16.625 1.80859 16.625C1.49219 16.625 1.17578 16.4492 1.03516 16.1328C0.929688 15.8164 0.964844 15.4648 1.21094 15.2188C1.24609 15.2188 2.33594 14.0234 2.82812 12.6523C1.66797 11.4219 1 9.875 1 8.1875C1 4.17969 5.00781 0.875 10 0.875ZM10 13.8125C14.0078 13.8125 17.2422 11.3164 17.2422 8.1875C17.2422 5.09375 13.9727 2.5625 9.96484 2.5625C5.95703 2.5625 2.6875 5.09375 2.6875 8.1875C2.6875 9.69922 3.42578 10.8242 4.05859 11.4922L4.79688 12.2656L4.41016 13.25C4.23438 13.7422 3.98828 14.2344 3.70703 14.6562C4.55078 14.375 5.25391 13.9883 5.74609 13.6367L6.41406 13.1445L7.22266 13.3906C8.10156 13.6719 9.05078 13.8125 10 13.8125Z" fill="#204544"/>
</svg>
